<svg width="61" height="53" viewBox="0 0 61 53" fill="none" xmlns="http://www.w3.org/2000/svg">
<path d="M33.49 0.0323197C32.0174 0.0473218 30.4922 0.0623325 28.9996 0.00982508C26.5938 -0.0751869 24.3611 0.434885 22.4922 0.947458C21.2856 1.25725 20.1317 1.74343 19.068 2.39017C17.5026 3.39031 16.7199 4.66298 16.6722 6.32322V6.37321C16.6572 6.9583 16.6396 7.56589 16.5945 8.15847C16.4615 9.90872 16.3436 10.0388 14.6453 10.2438C13.1602 10.4213 11.6751 10.7114 10.2377 10.9939C9.10125 11.2164 7.92721 11.4465 6.76322 11.619C4.75633 11.914 3.2913 13.0717 2.10974 14.1643C1.46952 14.7343 1.07273 15.527 1.00094 16.3796C0.89056 17.6298 0.732522 18.88 0.582005 20.1152C0.228291 22.9556 -0.135467 25.891 0.0551876 28.8264C0.0752565 29.4548 0.0936609 30.0824 0.110385 30.7092C0.145506 32.1044 0.185632 33.5446 0.270925 34.9598C0.341166 36.1424 0.441512 37.3426 0.539348 38.5028C0.687356 40.2805 0.84039 42.1208 0.893071 43.9285C0.988398 47.2065 1.64565 49.7694 2.94009 51.9972C3.35903 52.7148 3.82063 52.9973 4.64345 52.9973H4.82657C6.06797 52.9861 7.30603 52.8673 8.52678 52.6423C9.48387 52.4935 10.4488 52.4 11.4167 52.3622C12.6396 52.3263 13.8568 52.1824 15.0542 51.9322C17.327 51.3896 19.6826 51.0995 21.9629 50.8195C23.2875 50.657 24.6572 50.4895 25.9968 50.2719C28.0237 49.9469 30.0908 49.6618 32.0902 49.3843C33.9541 49.1343 35.8832 48.8592 37.7747 48.5592C41.9967 47.8916 46.2613 47.4315 50.3855 46.984C52.0944 46.8351 53.7893 46.5559 55.4554 46.1489C57.4824 45.6113 57.8837 45.1237 57.9866 43.0884C58.0217 42.4133 58.0167 41.7257 58.0117 41.0606C58.0117 40.7806 58.0117 40.5006 58.0117 40.218C58.0117 39.2454 58.0393 38.4353 58.2951 37.6177C59.0301 35.2547 59.3517 32.7833 59.2459 30.3116C59.2208 29.689 59.1957 28.9839 59.4968 28.3538C59.9533 27.4237 59.9985 26.4386 59.9985 25.5084C59.9985 24.9508 59.9985 24.3883 59.9985 23.8307C59.9985 22.5805 60.0186 21.2628 59.9709 19.9776C59.8906 17.7498 59.6122 16.0646 59.0703 14.5169C57.8637 11.0814 57.6279 10.8814 54.0129 10.2363C52.7235 10.0062 51.4333 9.77955 50.1422 9.55619C48.9405 9.34866 47.7364 9.14113 46.5348 8.9261C45.1024 8.67606 44.9819 8.55105 44.6759 7.09084C44.568 6.56827 44.5028 6.02567 44.4426 5.5031C44.3721 4.74313 44.2379 3.99038 44.0412 3.25278C43.6198 1.84508 42.7869 1.02496 41.4699 0.752423C39.7139 0.387371 37.8675 0.0273398 35.9735 0.0223391C35.1482 0.0123376 34.3178 0.0248187 33.49 0.0323197ZM2.17246 23.2006L3.12323 16.0421L3.42676 16.0571C3.42676 16.5197 3.42676 16.9897 3.44181 17.4473C3.49199 19.3476 3.54216 21.3128 2.17246 23.2006ZM2.58136 30.2016V39.6454L2.56129 39.2154C2.5362 38.7303 2.51113 38.2427 2.49357 37.7552C2.49357 37.5051 2.47851 37.2726 2.47098 37.0326C2.46533 35.9794 2.38148 34.928 2.22012 33.8871C2.0094 32.7044 2.27782 31.5268 2.53872 30.3866C2.55377 30.3341 2.56882 30.2666 2.58136 30.2116V30.2016ZM3.71526 48.5217C2.87989 46.8715 2.86734 45.1162 3.04796 43.2034L3.71526 48.5217ZM6.7256 38.4653C6.97646 40.8831 7.21226 43.3835 6.82844 45.8588C6.74886 46.4605 6.71281 47.0672 6.72057 47.6741C6.72057 48.0216 6.72057 48.3817 6.69047 48.7317C6.66944 49.0616 6.60362 49.3871 6.49481 49.6993C6.44245 49.8061 6.36806 49.9007 6.27654 49.9769C6.2429 50.0075 6.21108 50.0401 6.18123 50.0744C5.67951 49.8794 5.63686 49.4093 5.59923 48.9943L5.58418 48.8367C5.44119 47.5416 5.26308 46.2239 5.08246 44.9512C4.4553 40.293 3.80808 35.4774 4.62338 30.5592C5.49136 30.9892 5.73218 31.6018 5.93538 32.2919C6.23289 33.3352 6.40965 34.409 6.46219 35.4924C6.51989 36.495 6.6127 37.5026 6.71555 38.4753L6.7256 38.4653ZM32.5467 25.4634C32.6797 25.4334 32.7976 25.4109 32.908 25.3934C33.2449 25.3746 33.5618 25.2279 33.7935 24.9834C34.7242 23.9382 35.9359 23.8607 37.0372 24.7733C37.1606 24.8697 37.2629 24.9901 37.338 25.1272C37.413 25.2644 37.4592 25.4154 37.4737 25.5709C37.4962 25.821 37.5113 26.096 37.5113 26.3785V27.1287C37.5263 29.7474 37.538 32.3652 37.5464 34.9823C37.5485 35.4542 37.5149 35.9256 37.4461 36.3925C37.4178 36.6102 37.3186 36.8126 37.1635 36.9685C37.0085 37.1243 36.8063 37.2251 36.5881 37.2551C36.2647 37.3223 35.9351 37.3558 35.6047 37.3551C33.0309 37.3551 32.928 37.0701 32.9005 34.8548C32.8879 33.8096 32.8001 32.7545 32.7173 31.7343C32.5731 30.3315 32.517 28.921 32.5493 27.5112C32.5718 27.0486 32.5668 26.5861 32.5493 26.096C32.5392 25.8935 32.5367 25.681 32.5367 25.4634H32.5467ZM8.36873 47.7816C8.7325 44.9302 8.7325 42.0443 8.36873 39.1929C8.26588 38.3427 8.22324 37.4676 8.1831 36.6225C8.15139 35.5733 8.06263 34.5267 7.91719 33.4871C7.91822 33.363 7.94468 33.2405 7.99495 33.127C8.02004 33.0495 8.05015 32.9595 8.07774 32.857C11.0958 33.1621 14.1339 33.2198 17.1614 33.0295C19.0253 32.9245 20.9243 32.7795 22.7456 32.6319C23.9497 32.5394 25.1564 32.4444 26.363 32.3619C27.3188 32.2944 28.5756 32.2194 29.8425 32.2369C30.718 32.2369 30.9212 32.4519 30.9889 33.3895C31.0165 33.7921 31.019 34.2072 31.024 34.6072C31.024 35.0798 31.024 35.5699 31.0767 36.0474C31.2975 38.3828 31.8569 38.9353 34.22 39.1604C34.9751 39.2384 35.7356 39.2502 36.4928 39.1954C38.437 39.0328 39.3551 37.9452 39.2272 35.9624C39.1583 35.0832 39.1399 34.2008 39.172 33.3195C39.2096 32.5094 39.4228 32.2744 40.1754 32.2194C42.4295 32.016 44.6706 31.6888 46.8885 31.2392C48.0751 31.0217 49.3043 30.7942 50.5184 30.6142C51.7326 30.4341 53.0095 30.1341 54.2136 29.8515L55.5382 29.544C56.2607 29.384 56.6921 29.329 56.9204 29.504C57.1487 29.679 57.2164 30.1491 57.244 30.8892C57.3168 32.742 56.9505 34.5522 56.6244 35.9199C56.2163 37.5133 56.0082 39.1511 56.0048 40.7956C55.995 41.4085 55.9363 42.0197 55.8292 42.6234C55.789 42.8884 55.7489 43.1534 55.7163 43.4185C55.6335 44.1086 55.2597 44.4761 54.462 44.6511C53.1089 44.921 51.741 45.1105 50.3654 45.2187C49.6454 45.2912 48.8979 45.3638 48.1654 45.4688C46.2011 45.7188 44.2018 45.9688 42.2676 46.2189C40.3335 46.4689 38.3341 46.7189 36.3674 46.969C32.5041 47.4691 28.3047 48.0566 23.157 48.7792C22.3342 48.8968 21.4938 48.9893 20.6785 49.0818C18.8146 49.2918 16.888 49.5093 15.0341 49.9919C13.8814 50.2532 12.7041 50.3915 11.5221 50.4045C10.8096 50.437 10.0721 50.472 9.34959 50.562C9.22316 50.5961 9.09101 50.6036 8.96148 50.5843C8.83195 50.5649 8.70786 50.519 8.59701 50.4495C8.43395 50.3144 8.34616 50.0544 8.32358 49.6018C8.28164 48.995 8.29675 48.3856 8.36873 47.7816ZM48.0926 29.0164C47.1795 29.174 46.2638 29.3315 45.3507 29.4965C44.1315 29.7215 42.8822 29.8416 41.6756 29.9591C41.1362 30.0091 40.5969 30.0616 40.0575 30.1216C39.9366 30.1514 39.8108 30.1563 39.6879 30.1361C39.565 30.1159 39.4475 30.071 39.3426 30.0041C39.2609 29.9124 39.1992 29.8048 39.1612 29.6882C39.1232 29.5716 39.1098 29.4485 39.1218 29.3265C39.0817 28.2263 39.0541 26.9286 39.1218 25.6535C39.1896 24.3783 38.6853 23.5682 37.4385 23.0131C35.7653 22.263 34.0168 22.318 31.7741 23.1656C31.2247 23.3731 30.9362 23.8532 30.9111 24.5908C30.886 25.3284 30.9111 26.0235 30.9111 26.7236C30.9111 27.037 30.9111 27.3495 30.9111 27.6612V28.0163C30.9111 28.4388 30.9111 28.8589 30.9111 29.2815C30.9111 29.8966 30.6251 30.2191 30.0507 30.2991C29.7998 30.3341 29.5189 30.3866 29.2605 30.4366C28.7908 30.5436 28.312 30.6064 27.8306 30.6242C26.3053 30.6242 24.765 30.7692 23.2749 30.9042C21.5206 31.0962 19.7566 31.1863 17.9918 31.1742C17.2985 31.1313 16.6026 31.1733 15.9197 31.2993C13.6619 31.7843 11.4167 31.4018 9.23921 31.0292L9.02599 30.9917C7.46563 30.7267 6.36185 29.649 5.91281 27.9563C5.63533 26.9068 5.4738 25.8303 5.43114 24.7458C5.32327 22.048 5.2731 18.85 5.71211 15.577C5.93286 13.9418 6.10094 13.7593 7.719 13.3867C11.0203 12.6366 14.432 12.154 17.6305 11.749C18.8848 11.589 20.1542 11.4164 21.416 11.2489C23.9748 10.9014 26.6214 10.5413 29.2329 10.2863C29.9854 10.2113 30.7706 10.1888 31.5458 10.1888C32.1855 10.1888 32.8252 10.2038 33.4549 10.2213C34.0845 10.2388 34.7393 10.2513 35.379 10.2513C40.7374 9.96122 46.4896 10.5313 53.4811 12.044C55.9722 12.5816 57.3268 13.9118 57.7458 16.2296L57.811 16.5947C57.986 17.4003 58.0826 18.2209 58.0995 19.045C58.0995 19.8876 58.0995 20.7303 58.0995 21.5729C58.0995 22.8931 58.0995 24.2582 58.0694 25.5984C58.0443 26.7736 58.0092 26.8186 56.7875 27.1712C53.9477 27.9988 50.9725 28.5164 48.0926 29.0164ZM23.3376 9.21862C23.2147 9.23862 23.0868 9.24613 22.9212 9.25613H22.713C22.5374 8.25599 22.6678 7.43838 23.1043 6.8583C23.606 6.1932 24.5292 5.79314 25.8638 5.66312C25.9993 5.66312 26.1423 5.66314 26.2777 5.64814H26.4709H26.6941H27.2887L29.2755 5.63312C31.4864 5.61312 33.6949 5.59729 35.9008 5.58563H36.0111C36.6544 5.58088 37.2975 5.61009 37.9377 5.67313C38.8609 5.77315 39.1344 6.0757 39.1519 7.02834C39.167 7.89096 38.9487 8.11598 38.0456 8.17098C36.9604 8.24876 35.8719 8.27046 34.7844 8.236C31.1244 8.04597 27.5646 8.48853 23.3376 9.20613V9.21862ZM42.3328 8.41351C41.8888 8.46352 41.5301 8.31349 41.3821 8.00345C41.1662 7.5134 41.0088 6.99982 40.913 6.47323C40.4112 4.04289 40.3586 3.98788 37.9603 3.59282L37.7822 3.56282C36.4913 3.35267 35.1756 3.3417 33.8813 3.53031C32.6667 3.69637 31.437 3.72323 30.2162 3.61034C29.2137 3.54138 28.2074 3.54805 27.2059 3.63033C26.6415 3.66284 26.057 3.69785 25.48 3.70035C24.8496 3.70697 24.226 3.83076 23.6412 4.06539C21.5214 4.91801 20.6308 6.11318 20.7236 7.94344C20.7387 8.21348 20.7236 8.48102 20.7236 8.78856C20.7236 8.92358 20.7236 9.06362 20.7236 9.21364L20.6333 9.28363C20.608 9.30657 20.5803 9.32668 20.5506 9.34363C19.6048 9.59367 19.1231 9.62368 18.8823 9.41615C18.6415 9.20863 18.6039 8.78606 18.6967 7.94094C18.7168 7.76842 18.7494 7.5909 18.782 7.42088C18.8477 7.12101 18.8822 6.81517 18.8848 6.50824C18.8472 5.25807 19.4668 4.40794 20.834 3.81536C22.7173 3.01177 24.6844 2.41972 26.6992 2.05012C26.9251 2.00915 27.1543 1.98823 27.384 1.98761C27.5518 1.98831 27.7194 2.00001 27.8857 2.02262C30.1861 2.33767 32.5217 2.27264 34.7844 2.22263C35.2861 2.20763 35.7879 2.19512 36.3072 2.18762C37.4479 2.19128 38.5873 2.2656 39.7189 2.41016L40.183 2.46018C41.4197 2.5902 42.1422 3.24279 42.3328 4.39796C42.3905 4.74551 42.4683 5.09306 42.5436 5.43061C42.7343 6.13937 42.833 6.86959 42.8371 7.6034C42.8396 8.05346 42.7367 8.35102 42.3328 8.40103V8.41351Z" fill="#168430"/>
</svg>
