<svg width="69" height="72" viewBox="0 0 69 72" fill="none" xmlns="http://www.w3.org/2000/svg">
<path d="M24.7942 70.8865C26.2967 69.2106 28.3358 67.0754 30.7946 65.4224C33.1595 63.8307 35.6988 62.6674 37.8682 61.7395C40.3424 60.6815 42.7801 59.6848 45.4037 59.1338C46.2968 58.9424 46.795 58.4584 47.0212 57.5496C47.1438 56.9951 47.3424 56.4601 47.6114 55.9598C49.4934 52.6614 51.7069 49.8681 54.1868 47.6565C57.9871 44.272 62.2761 42.3512 66.935 41.9494H67.0212C67.15 41.9417 67.2781 41.9251 67.4045 41.8997C68.1941 41.7256 68.4739 41.3257 68.3436 40.5987C68.2458 40.1584 68.271 39.6998 68.4164 39.2729C68.5812 38.7984 68.5391 38.3775 68.2995 38.0848C68.06 37.792 67.6671 37.6792 67.1861 37.7442C66.7147 37.8209 66.2533 37.9492 65.8101 38.1269C63.7942 38.8636 61.8403 39.7592 59.9668 40.8053C56.4547 42.8028 53.231 45.2679 50.3845 48.1329C50.3366 48.1826 50.2887 48.2381 50.2427 48.2936C50.1906 48.3769 50.1224 48.4491 50.0422 48.5059C49.9619 48.5627 49.8711 48.603 49.7751 48.6246C49.7387 48.4734 49.8192 48.3797 49.9495 48.2419C49.9917 48.2003 50.0314 48.1562 50.0683 48.1099C51.1626 46.6827 52.4601 45.3989 53.7096 44.1553L54.3344 43.5374C55.3788 42.4947 56.6169 41.3181 58.0964 40.5107L58.6023 40.2333C61.0937 38.8711 63.6694 37.4611 66.5862 37.023C66.6935 37.005 66.7992 36.9788 66.9024 36.9445C67.3164 36.8125 67.5425 36.6365 67.5962 36.405C67.6498 36.1735 67.5138 35.898 67.1784 35.5804C66.9867 35.3891 66.7702 35.2188 66.5671 35.0466C66.3639 34.8744 66.1838 34.7214 65.9921 34.5511C63.7345 32.4466 61.7932 30.1622 60.1929 28.2031C59.4417 27.2829 58.7997 26.4258 58.2324 25.582C58.1477 25.4326 58.033 25.3023 57.8955 25.1993C57.758 25.0962 57.6006 25.0226 57.4333 24.9832C57.3442 24.9697 57.2532 24.9759 57.1667 25.0013C57.0803 25.0268 57.0005 25.0709 56.9331 25.1305C56.5229 25.4806 56.6839 25.8652 56.8276 26.2057L56.8909 26.3588C57.117 26.9461 57.5367 27.3766 57.943 27.7937C58.1499 27.998 58.3457 28.2132 58.5295 28.4384C60.7353 31.2451 62.6537 33.4127 64.5644 35.2437C64.756 35.4216 64.8959 35.5881 64.7886 35.8176C64.6326 36.0046 64.4141 36.129 64.1734 36.1677L64.0048 36.2194C61.5594 37.0344 59.3056 38.3239 57.1266 39.5713L56.82 39.7473C56.0373 40.1878 55.3162 40.7295 54.6755 41.3582C54.1964 41.8365 53.7173 42.3148 53.2247 42.7778C52.1496 43.8186 51.0381 44.8977 50.0204 46.0303C47.5827 48.7336 46.0093 51.4733 45.0779 54.6397C44.5941 53.9587 44.013 53.3522 43.3531 52.8393C42.443 52.141 41.5936 51.3672 40.8138 50.5263C39.984 49.6749 39.1139 48.8867 38.2975 48.1597C36.7797 46.8204 35.0204 45.2325 33.3876 43.5489C31.9847 42.1082 30.373 40.6255 28.3109 38.8845C27.9755 38.6033 27.7034 38.3928 27.4849 38.2244C26.6531 37.5816 26.6531 37.5816 27.0537 36.3763C27.1342 36.1391 27.2281 35.8578 27.3335 35.5192L27.3622 35.4273C27.504 34.9682 27.6535 34.4918 27.826 34.0364C28.5639 32.1419 29.5841 30.3694 30.8521 28.779C31.6953 27.698 32.6191 26.6496 33.5121 25.6356L33.997 25.0846C35.4707 23.4067 37.278 21.7786 39.685 19.9611C40.7678 19.1422 41.8563 18.8629 43.0062 19.0944C45.2082 19.5459 47.0308 20.8163 48.7939 22.0407C48.9664 22.1612 49.1389 22.2818 49.3133 22.4004C49.5356 22.5534 49.5662 22.783 49.4129 23.1485C49.1293 23.7599 48.7777 24.3375 48.3646 24.8703C47.9047 25.4979 47.4965 26.1273 47.5463 26.9213C47.6268 28.1553 47.7264 29.2783 47.8548 30.365C47.9257 30.9734 48.1615 31.3962 48.5371 31.5914C48.9127 31.7865 49.342 31.731 49.8403 31.4651C50.8483 30.9218 51.8909 30.4033 52.9066 29.9039L53.7613 29.4792C54.1016 29.305 54.382 29.0332 54.5662 28.6986C55.0147 27.9468 55.467 27.2006 55.9212 26.4525C56.4329 25.6088 56.9618 24.7307 57.4735 23.8735C58.5755 22.0139 59.7502 20.1562 60.8848 18.3597C62.7169 15.467 64.6085 12.4728 66.2509 9.39257C66.9446 8.08586 67.7112 6.68922 68.6617 4.99222C69.1619 4.10258 69.1083 3.28564 68.495 2.4247C67.4103 0.894143 65.904 0.105922 63.8955 0.00260977H63.7863C63.5246 -0.0141829 63.2641 0.0503706 63.0407 0.187414C62.8173 0.324456 62.6419 0.527255 62.5387 0.767888C62.108 1.65656 61.6295 2.5213 61.1052 3.35834C60.7851 3.89021 60.4536 4.43739 60.1469 4.99222C59.8652 5.50878 59.5854 6.02917 59.3056 6.54765C57.7571 9.41744 56.155 12.4039 54.1676 15.0862C54.0656 15.2311 53.9734 15.3826 53.8917 15.5397C53.8495 15.6162 53.8092 15.6946 53.7652 15.7692L53.3206 16.5211C52.5118 17.8884 51.7018 19.2557 50.8905 20.623L50.8407 20.7091C50.7103 20.9387 50.5858 21.1549 50.2446 21.1989C49.878 20.977 49.5075 20.7538 49.1331 20.5293C48.2535 19.9974 47.3412 19.4483 46.4501 18.8858C45.3117 18.1703 44.0449 17.7609 42.9583 17.4548C42.3861 17.2993 41.7803 17.32 41.2201 17.5141C40.0453 17.8776 39.0737 18.5855 38.102 19.3431C35.6632 21.2445 33.4276 23.3923 31.4309 25.7523C31.2756 25.9436 31.1185 26.1177 30.9613 26.3014C30.1085 27.2943 29.2365 28.3236 28.5408 29.4716C27.4063 31.3848 26.2315 33.342 25.7026 35.5785C25.511 36.3763 24.9897 36.8068 24.0985 36.8948C22.7881 37.0002 21.4932 37.2484 20.2369 37.6352L19.8076 37.7787C19.3142 37.9595 18.8073 38.1015 18.2917 38.2034C17.1455 38.3987 16.0387 38.7786 15.0146 39.3283L14.8919 39.3934C11.1165 41.3984 7.21269 43.4723 3.87615 46.3402C2.01442 47.9173 0.716894 50.056 0.179311 52.4337C0.0240788 53.0785 -0.119656 53.8246 0.154396 54.4962C0.520438 55.3973 0.633524 56.3615 0.744678 57.2952C0.788756 57.6778 0.836655 58.0777 0.899898 58.4661C1.05321 59.3825 1.38284 59.9048 2.04977 60.2683L2.38707 60.4596C2.72405 60.6726 3.08326 60.8484 3.45835 60.9838C4.65614 61.3665 5.81559 62.0131 7.09961 63.029L7.2261 63.1285C7.54956 63.3982 7.89437 63.6414 8.25715 63.8555C11.289 65.5353 14.2844 67.3873 17.1802 69.18L17.2779 69.2393C18.5197 70.0045 19.8728 70.7698 21.5324 71.604C21.9566 71.8431 22.4313 71.9788 22.918 72C23.5619 72 24.1215 71.6403 24.7942 70.8865ZM40.7448 59.0381C40.373 59.2103 40.0185 59.3786 39.6754 59.5413C38.7325 59.987 37.8433 60.4099 36.9445 60.7447C33.4182 62.0629 30.4496 63.7541 27.8682 65.9103C27.2166 66.4556 26.5822 67.0391 25.9652 67.6035C25.5934 67.9459 25.2216 68.2865 24.844 68.6213C24.8019 68.6596 24.7616 68.7036 24.7195 68.7476C24.6447 68.8547 24.5349 68.9324 24.409 68.9676C27.1169 64.2037 34.7502 59.5795 40.741 59.0381H40.7448ZM22.0537 69.0652C22.0296 69.0561 22.0098 69.0383 21.9981 69.0154C21.9847 68.9676 22.0345 68.8758 22.0748 68.8011C22.5136 67.99 22.5405 67.7757 21.8199 67.3414C21.3772 67.0774 20.9153 66.8248 20.4784 66.5761C19.8862 66.2509 19.2748 65.916 18.6999 65.5468C15.1966 63.3026 11.4672 60.9073 7.77612 58.468L7.20119 58.0853C5.50513 56.9642 3.75158 55.8029 2.21842 54.4024C2.02858 54.2329 1.85177 54.0493 1.68947 53.8533C1.67342 53.7807 1.68149 53.7048 1.71247 53.6371C1.72547 53.5972 1.75127 53.5626 1.78591 53.5388C1.82054 53.5149 1.86208 53.5031 1.90412 53.5051C1.93463 53.5053 1.96495 53.5098 1.99418 53.5185C2.13283 53.5578 2.26285 53.6227 2.37747 53.7099C3.22419 54.3614 4.12135 54.9448 5.0605 55.4547C6.0081 55.9697 6.91131 56.5623 7.7608 57.2263C9.34953 58.5407 11.0724 59.7135 12.7436 60.8614C14.2978 61.9289 15.9038 63.0329 17.3948 64.2382C18.341 64.965 19.3375 65.6241 20.3768 66.2107C20.7486 66.4326 21.1204 66.6526 21.4864 66.8803L21.6033 66.9511C22.1782 67.3069 22.7244 67.6456 23.0981 68.1545C23.0683 68.3548 22.99 68.5447 22.8702 68.7081C22.7503 68.8714 22.5924 69.0032 22.4101 69.092C22.352 69.1118 22.2904 69.1196 22.2292 69.115C22.1679 69.1104 22.1082 69.0935 22.0537 69.0652ZM16.5765 61.8467C14.9839 60.8116 13.4335 59.6599 11.9348 58.5483C9.88612 57.0177 7.76655 55.4566 5.51089 54.148C4.57163 53.586 3.66791 52.9669 2.80486 52.2941C2.14369 51.7947 2.08809 51.5805 2.40622 50.7635C2.82175 49.7008 3.47305 48.7458 4.31119 47.9703C6.45953 45.9327 8.9509 44.3581 10.8827 43.2121C12.1705 42.4469 13.5466 41.6414 14.9762 40.9163C16.1261 40.3213 17.5251 39.6727 19.0449 39.359C19.6045 39.2442 20.1621 39.0777 20.7007 38.9151C21.4458 38.6706 22.2099 38.4876 22.9851 38.3679L23.4239 38.3125C23.7363 38.2704 24.0621 38.2264 24.3822 38.1957C24.4665 38.1957 24.5508 38.1843 24.6332 38.1843C25.2407 38.1843 25.7831 38.4043 26.4596 38.9055C28.7038 40.5815 30.7084 42.5846 32.644 44.5208C33.8648 45.7414 35.1354 47.0079 36.4366 48.1692C37.2569 48.902 38.0599 49.6826 38.8341 50.4383C40.0089 51.5862 41.2239 52.7628 42.5348 53.8055C43.447 54.5325 44.9227 56.4725 45.421 57.5917C45.3596 57.6032 45.306 57.6166 45.258 57.6281C45.1639 57.658 45.0655 57.6722 44.9668 57.6702C41.7433 57.255 38.4757 57.7716 34.6831 59.2964C32.0365 60.362 29.8613 61.6152 28.0387 63.1228C27.3354 63.7063 26.6608 64.3472 26.0073 64.9652L25.9479 65.0207C25.5301 65.4167 25.12 65.8299 24.7233 66.2279L24.2269 66.7272C23.7264 66.5856 23.257 66.3513 22.8432 66.0366C22.7033 65.9428 22.5635 65.8453 22.4236 65.763C21.2354 65.0417 20.0759 64.2324 18.9529 63.4672C18.1767 62.9238 17.3775 62.369 16.5765 61.8467ZM2.23758 56.1396C2.25416 56.1203 2.27355 56.1035 2.29508 56.0899C2.32017 56.083 2.34665 56.083 2.37174 56.0899C4.87654 57.9877 7.54614 59.7479 10.1142 61.4468C12.5136 63.0328 14.9897 64.6667 17.3469 66.4211C17.1119 66.3208 16.8851 66.2025 16.6685 66.0672C16.1855 65.7534 15.693 65.4435 15.2139 65.1431C14.2556 64.5443 13.2725 63.9263 12.3392 63.2548C9.83057 61.4468 7.07854 59.6522 3.68451 57.6089C3.31846 57.3889 2.93325 57.1402 2.50397 56.8437C2.39337 56.7742 2.30499 56.6746 2.2493 56.5566C2.1936 56.4387 2.17291 56.3072 2.18967 56.1779C2.22033 56.1664 2.22033 56.1511 2.23758 56.1396ZM5.53772 60.2205C4.42426 59.9832 3.67683 59.5623 3.16897 58.8812C4.00497 59.2403 4.79926 59.6894 5.53772 60.2205ZM9.1943 62.7076C8.49022 62.3686 7.83525 61.9361 7.24718 61.4219C8.21307 61.8103 8.61936 62.0782 9.1943 62.698V62.7076ZM60.2888 42.1197C62.1323 40.7972 64.2148 39.8435 66.4214 39.3111C66.5268 39.843 66.5766 40.1529 66.4808 40.2888C66.4137 40.3844 66.2547 40.4246 65.9864 40.4629C63.9377 40.769 62.0615 41.4616 60.3386 42.1675L60.3098 42.1388L60.2888 42.1197ZM64.091 7.20386H64.1734C64.3711 7.21506 64.564 7.26934 64.7385 7.36288C64.9129 7.45642 65.0648 7.58695 65.1834 7.74531C65.2099 7.79765 65.225 7.85506 65.2275 7.91367C65.2275 7.95385 65.2409 7.99976 65.2505 8.0495L65.1604 8.25231C65.0837 8.42833 64.9956 8.63494 64.894 8.81287C63.081 12.1093 61.3294 15.0537 59.5394 17.8164C58.3896 19.5861 57.2991 21.4266 56.2412 23.2078C55.7429 24.04 55.2485 24.8741 54.7445 25.6949C54.5222 26.0622 54.2807 26.4296 54.0699 26.7453C53.8783 27.0246 53.7326 27.0992 53.5371 27.0112C53.4041 26.9637 53.2933 26.869 53.2258 26.7451C53.1583 26.6213 53.1388 26.4769 53.1711 26.3397C53.2471 26.045 53.3652 25.7628 53.5218 25.5017C54.0833 24.5011 54.6716 23.489 55.2293 22.5113C56.4309 20.4202 57.6747 18.2602 58.7939 16.0792C59.4302 14.8394 60.1546 13.6226 60.856 12.4441C61.7966 10.923 62.6582 9.35469 63.4375 7.74531C63.6253 7.37224 63.8189 7.20386 64.0967 7.20386H64.091ZM62.3662 7.01254C61.9254 7.92896 61.4406 8.8607 60.9212 9.77904C58.5927 13.9096 56.2125 18.1033 53.9108 22.1574L53.7575 22.4291C53.3378 23.1657 52.8491 24.0209 52.3336 24.855C51.8008 25.7179 51.8008 25.7198 50.8004 25.5419C50.6088 25.5093 50.4171 25.4711 50.1488 25.4194L49.7655 25.3429C50.2006 24.6063 50.6222 23.8831 51.04 23.1752C52.0346 21.4744 52.9756 19.8673 53.9492 18.2621C54.5068 17.3419 55.099 16.4159 55.6644 15.5225C56.3045 14.5142 56.9676 13.4715 57.5923 12.4288C58.2669 11.2981 58.9089 10.1234 59.5299 8.98506C59.825 8.44745 60.1182 7.90983 60.4172 7.37414L60.5379 7.15603C60.6951 6.87096 60.8599 6.58207 61.0381 6.29701C61.2738 5.9335 61.5881 5.87228 62.0212 6.10569C62.485 6.35058 62.5885 6.58781 62.3758 7.01254H62.3662ZM49.7368 26.9098H49.8786H50.0262C50.791 26.901 51.5334 27.168 52.117 27.6617C52.2148 27.73 52.2944 27.8211 52.3489 27.9272C52.4033 28.0332 52.431 28.1509 52.4294 28.2701C52.4059 28.3808 52.3555 28.4841 52.2827 28.5708C52.2098 28.6576 52.1168 28.7251 52.0116 28.7675C51.5708 28.9914 51.1933 29.0851 50.7793 28.8115C50.5106 28.647 50.23 28.5024 49.9399 28.3791L49.6755 28.2567C49.5468 28.1945 49.4345 28.1032 49.3477 27.9899C49.2608 27.8766 49.2018 27.7445 49.1753 27.6043C49.1467 27.5248 49.1355 27.4401 49.1424 27.356C49.1494 27.2718 49.1743 27.1902 49.2155 27.1164C49.2599 27.0601 49.3159 27.0138 49.3797 26.9808C49.4435 26.9478 49.5136 26.9288 49.5854 26.9251C49.6393 26.9152 49.6936 26.9081 49.7483 26.9041L49.7368 26.9098ZM62.9718 2.93362C63.1216 2.60586 63.2892 2.28652 63.4739 1.97702C63.5436 1.84827 63.6464 1.74036 63.7717 1.66437C63.8969 1.58839 64.0402 1.54706 64.1868 1.54463C64.227 1.5419 64.2674 1.5419 64.3076 1.54463C65.3806 1.66833 66.364 2.20173 67.0519 3.03311C67.1432 3.14628 67.2111 3.27644 67.2516 3.41603C67.292 3.55562 67.3043 3.70185 67.2876 3.84621C67.2584 4.19503 67.1425 4.53105 66.9503 4.82386C66.8882 4.94803 66.7817 5.04453 66.652 5.09444C66.5222 5.14434 66.3785 5.14405 66.2489 5.09362C65.205 4.80653 64.1988 4.39679 63.2516 3.873C62.8587 3.66829 62.7667 3.35643 62.9718 2.93362Z" fill="#168430"/>
</svg>
