<svg width="80" height="67" viewBox="0 0 80 67" fill="none" xmlns="http://www.w3.org/2000/svg">
<path d="M2.01152 27.3396C1.15451 28.261 0.837497 28.8837 0.953389 29.4259C1.06928 29.9682 1.63429 30.425 2.83417 30.9285C4.03405 31.4321 5.1777 31.906 6.35223 32.3894C7.36459 32.8081 8.3755 33.2279 9.38496 33.6487C11.1145 34.3707 11.3031 34.6931 11.0896 36.5221C11.0554 36.8112 11.0157 37.0964 10.9906 37.3816C10.8209 38.6316 10.6482 39.9359 10.7429 41.2488C10.982 44.5747 12.3973 46.8324 15.077 48.1392C16.801 48.9637 18.5909 49.6423 20.4279 50.1677C21.6358 50.5004 22.8695 50.731 24.1159 50.8573C25.7782 51.0654 27.461 51.0038 29.0871 50.9395C29.7828 50.9125 30.5025 50.8839 31.2089 50.8771C35.3529 50.8677 39.4854 50.4422 43.5442 49.6069C45.8058 49.1556 48.0147 48.4719 50.1359 47.5665C51.982 46.7665 53.7286 45.7243 55.4113 44.7222C55.8418 44.4688 56.2691 44.211 56.7001 43.96C59.234 42.4796 60.4736 40.1819 60.3885 37.133C60.3416 36.2773 60.2323 35.4263 60.0614 34.5866C60.0173 34.3253 59.9732 34.064 59.9291 33.8027L59.8935 33.5913C59.8193 33.1519 59.7492 32.7363 59.9801 32.3553C60.6713 31.2855 61.4611 30.2829 62.339 29.3606L62.9312 28.6915C62.9695 28.6415 63.0182 28.6003 63.0738 28.5707C63.1294 28.5411 63.1907 28.5237 63.2536 28.5199C63.3614 28.5291 63.4663 28.5596 63.5623 28.6096C63.6582 28.6597 63.7434 28.7283 63.8127 28.8115C63.9439 28.9361 64.0514 29.0835 64.13 29.2465C64.3141 29.6723 64.5183 30.102 64.7055 30.5174C65.2002 31.5072 65.6098 32.5372 65.9301 33.5964C66.3859 35.3003 66.9884 36.977 67.5484 38.6047C67.7279 39.1192 67.9079 39.636 68.085 40.1509C68.555 41.4908 68.9318 42.8856 69.3058 44.2345L69.4804 44.8646C69.6335 45.4104 69.7323 45.9238 69.2734 46.1966C68.3538 46.7475 67.9413 47.6281 67.5433 48.4794C67.393 48.8028 67.2375 49.1393 67.055 49.4461C66.3722 50.6044 66.5029 51.7695 67.4145 52.6466C67.9357 53.1474 68.1723 53.7402 68.431 54.4636C68.7674 55.3843 69.0221 56.3328 69.1922 57.2983C69.3735 58.4794 69.7042 59.6328 70.1763 60.7305C70.6216 61.7466 70.953 62.809 71.1645 63.8982C71.2666 64.5634 71.497 65.2024 71.843 65.7795C72.116 66.1829 72.3911 66.266 72.5718 66.2672L72.6714 66.2504C72.8202 66.2101 72.9592 66.14 73.0802 66.0445C73.2012 65.9489 73.3016 65.8298 73.3754 65.6944C73.4209 65.6235 73.4606 65.549 73.4939 65.4716C73.5951 65.2469 73.6412 65.1439 74.0386 65.2869C74.5571 65.4681 74.9525 65.4405 75.1885 65.2053C75.4245 64.97 75.4494 64.597 75.2854 64.1312C74.5631 62.0912 74.0023 59.9677 73.4603 57.9119C73.1803 56.8452 72.8895 55.7437 72.5787 54.6676C72.5317 54.5189 72.4722 54.3745 72.4009 54.2359C72.2595 53.9324 72.1136 53.6175 72.2089 53.4011C72.2492 53.3318 72.3039 53.2719 72.3693 53.2255C72.4347 53.1791 72.5092 53.1472 72.5879 53.1319C72.9033 53.0348 73.0544 53.3806 73.2506 53.9216C73.3022 54.0718 73.3621 54.2191 73.4299 54.3627C73.4537 54.4163 73.4721 54.4721 73.4849 54.5294C73.693 55.3004 73.9194 56.0781 74.1366 56.8305C74.7345 58.9281 75.3748 61.0894 75.6526 63.2997C75.698 63.6346 75.7917 63.9611 75.9308 64.269C75.9953 64.4429 76.1183 64.5889 76.2787 64.6817C76.4391 64.7746 76.6268 64.8086 76.8095 64.7779L76.8404 64.7727C77.0273 64.7413 77.1966 64.6433 77.3171 64.4969C77.4377 64.3504 77.5013 64.1653 77.4963 63.9756C77.5021 63.7679 77.4754 63.5606 77.417 63.3611C77.1785 62.5088 76.9855 61.6444 76.8387 60.7716C76.65 59.561 76.3447 58.3715 75.9271 57.2197C75.812 56.8838 75.7424 56.5341 75.7199 56.1798L75.7135 56.1418C76.1766 56.9841 76.5105 57.8912 76.7042 58.8327C76.9989 60.0875 77.3608 61.3504 77.7107 62.5714L77.8399 63.0187C77.9316 63.2771 78.0704 63.5162 78.2492 63.724C78.3424 63.8469 78.4724 63.9368 78.6203 63.9804C78.7681 64.024 78.926 64.0191 79.0708 63.9664C79.2202 63.9245 79.3521 63.8354 79.4469 63.7125C79.5418 63.5896 79.5945 63.4393 79.5973 63.284L79.5911 63.1604C79.5854 62.6693 79.5169 62.1809 79.3874 61.7072C79.0298 60.6145 78.7105 59.4885 78.3996 58.3977C77.8867 56.4592 77.2643 54.5513 76.5353 52.6834L76.1917 51.8619C75.6343 50.5245 75.0566 49.1392 74.6022 47.733C74.249 46.6372 73.7565 45.9019 72.5051 45.8883C71.9229 45.8791 71.5738 45.574 71.3623 44.8988C70.726 42.7612 70.1309 40.8537 69.5436 39.0644C69.3485 38.472 69.1221 37.8824 68.9018 37.3138C68.5093 36.374 68.1833 35.4079 67.926 34.4224C67.2711 31.5614 66.104 28.8425 64.4813 26.3976C64.5885 26.2525 64.6891 26.1109 64.7829 25.9729C64.9788 25.6749 65.1979 25.3928 65.4384 25.1295C66.9635 23.5555 68.1329 21.6947 69.2612 19.8945C69.5805 19.3863 69.8997 18.878 70.2249 18.3761C70.6687 17.6954 70.7422 16.916 70.7581 16.244C70.7809 15.8613 70.6941 15.4799 70.5079 15.1448C70.3217 14.8097 70.0439 14.5348 69.707 14.3523C69.4156 14.1865 69.128 14.0151 68.8386 13.8465C68.0568 13.3702 67.2506 12.9354 66.4231 12.5441C63.3319 11.1114 59.8305 9.50363 56.3051 8.14417C55.4778 7.82451 54.6537 7.49455 53.8299 7.16696C50.8024 5.96777 47.6681 4.71335 44.4338 3.89349C42.5988 3.42872 41.0725 3.02912 39.5225 2.48939C37.5557 1.85051 35.5531 1.32785 33.5252 0.924084C32.8462 0.774823 32.1644 0.623592 31.4956 0.462828C30.9657 0.343546 30.4163 0.341039 29.8854 0.455491C29.3546 0.569944 28.855 0.798614 28.4212 1.12565C27.7194 1.61815 27.0535 2.15989 26.4283 2.74681C25.7968 3.34192 25.177 4.00592 24.5764 4.63978C23.8894 5.36883 23.1804 6.12602 22.4229 6.81322L22.3128 6.91242C19.1898 9.74534 15.9658 12.6735 12.9481 15.7256C10.2386 18.4643 7.59071 21.3368 5.0217 24.1129C4.01434 25.1842 3.0161 26.2663 2.01152 27.3396ZM56.2125 42.0391C53.6466 43.8498 50.8786 45.3547 47.9643 46.5234C47.8947 46.5327 47.8241 46.5297 47.7555 46.5147L47.6653 46.5006C48.0315 45.4177 48.8189 44.6619 49.5908 43.9307C50.0441 43.5195 50.4648 43.0736 50.8492 42.5972C51.5294 41.6983 52.296 40.8483 53.0385 40.0293C53.4477 39.5621 53.8975 39.0758 54.3208 38.5915C55.4103 37.3133 56.5346 35.995 57.8981 34.6633C59.0403 37.5143 58.3521 40.5349 56.2062 42.0451L56.2125 42.0391ZM38.9931 21.3884C38.1259 21.3099 37.4085 21.1354 36.7289 20.549C35.9324 19.8479 35.1914 19.7506 34.462 20.2572C33.7327 20.7638 33.1769 22.184 33.4232 23.0072C33.4845 23.2103 33.5876 23.3982 33.7256 23.5592C33.8637 23.7201 34.0337 23.8505 34.2249 23.9419C34.6474 24.1613 35.7056 24.6057 36.4043 23.9895C37.5088 23.0165 38.6723 23.2037 39.9079 23.3983C40.0733 23.4242 40.2415 23.452 40.4088 23.4751C41.0766 23.5725 41.7622 23.6302 42.4232 23.6873L42.9556 23.7342C45.7603 24.0167 48.5398 24.5105 51.2704 25.2115C52.8327 25.5928 54.4454 25.8679 56.0034 26.1229C56.5562 26.2177 57.1113 26.3122 57.662 26.4098C58.8686 26.6443 60.0382 27.0402 61.1395 27.5868C60.5649 28.8807 59.684 29.877 58.8295 30.8419L58.6492 31.0458C55.9171 34.1425 53.0024 37.4435 50.009 40.7407C49.2499 41.5772 48.5356 42.477 47.843 43.3462C46.7316 44.7551 45.5795 46.1978 44.1889 47.4559C42.2255 46.8841 40.3091 46.1612 38.4569 45.2938C35.9213 44.0605 33.3021 42.9097 30.7649 41.7963L29.6608 41.3109C28.7756 40.9228 27.8888 40.5399 27.004 40.1542C24.025 38.8662 20.9506 37.5333 18.009 36.0045C15.636 34.7657 13.0766 33.4485 10.4299 32.207C9.02874 31.5518 7.57354 30.9521 6.16348 30.3741C5.46874 30.0883 4.774 29.8024 4.082 29.5039L3.84688 29.4117C3.52668 29.3247 3.24054 29.142 3.02663 28.8881L4.05722 27.7664C4.85502 26.8989 5.64332 26.0331 6.43638 25.1664L8.08683 23.3807C10.0908 21.2179 12.1607 18.9828 14.226 16.8071C15.1703 15.8087 16.1754 14.8698 17.2355 13.9958C18.0796 13.3013 18.8653 12.5214 19.6234 11.7657C20.5438 10.7959 21.5331 9.89422 22.5837 9.06769C23.5624 8.28768 24.4668 7.41872 25.2856 6.47192C25.6384 6.08996 26.0033 5.69371 26.3683 5.31212L26.4248 5.25619C27.2937 4.37673 28.1153 3.53458 29.1512 2.86391C29.5428 2.5917 29.9887 2.40776 30.4582 2.32475C30.9277 2.24174 31.4097 2.26164 31.8708 2.38309C32.2982 2.48686 32.7268 2.58311 33.1581 2.68133C34.122 2.89978 35.1164 3.1253 36.0745 3.41068C36.7295 3.60552 37.4003 3.77816 38.0505 3.9445C39.3648 4.2498 40.6554 4.65008 41.912 5.14219C42.4086 5.33248 42.9226 5.47323 43.4467 5.56237C46.5869 6.23787 49.6456 7.24918 52.5702 8.57891L52.915 8.72838C54.1746 9.31785 55.4699 9.82788 56.7931 10.2555C59.2029 10.9751 61.4689 12.1146 63.66 13.2155C64.638 13.7052 65.6485 14.2138 66.6588 14.6785C66.7697 14.7281 66.8778 14.7905 67.0001 14.8651C68.8927 15.9602 69.0205 16.3857 68.014 18.3583C66.7589 20.8101 64.9522 22.9275 63.2042 24.9739L63.0452 25.1595C62.5727 25.7132 62.0418 25.8345 61.2099 25.5742C57.8058 24.5143 54.2582 23.8328 50.8265 23.1733C49.1849 22.8567 47.4882 22.5322 45.8287 22.1673C44.0501 21.8228 42.2508 21.5967 40.4424 21.4907C39.9638 21.4737 39.4741 21.4342 38.9859 21.3896L38.9931 21.3884ZM12.3655 40.6721L12.3755 40.326C12.3795 39.594 12.4372 38.8634 12.5482 38.1399C12.5756 37.9838 12.5977 37.8262 12.6219 37.6658C12.6713 37.0194 12.8677 36.393 13.1961 35.8345C14.9791 36.396 16.6576 37.278 18.283 38.1348C19.5306 38.8142 20.8119 39.4297 22.1219 39.9788C24.5599 40.9525 26.992 42.064 29.3468 43.1373C29.9987 43.4344 30.6522 43.7313 31.3073 44.0279C33.421 44.988 35.5842 45.9812 37.6548 46.9461L40.2662 48.152C40.1747 48.25 40.0631 48.3271 39.9391 48.378C39.815 48.4288 39.6814 48.4523 39.5475 48.4467L39.4479 48.4635C38.812 48.5268 38.175 48.5976 37.5309 48.6696C35.6338 48.9198 33.7232 49.0545 31.8097 49.0731C30.8806 49.0613 29.9409 49.1026 29.0326 49.141C27.8821 49.191 26.6926 49.2402 25.5178 49.1893C22.5687 49.0615 19.533 48.2765 16.2755 46.7839C13.5976 45.5453 12.2725 43.4898 12.3655 40.6721ZM70.1978 48.2343C70.2872 48.0946 70.4087 47.9783 70.5521 47.895C70.6954 47.8118 70.8566 47.764 71.0221 47.7557C71.1906 47.7273 71.3733 47.7111 71.5702 47.6925C71.8905 47.669 72.209 47.6242 72.5234 47.5586C72.0745 48.4404 71.8231 49.1913 72.4844 49.9298C72.5311 49.977 72.5675 50.0334 72.5914 50.0953C72.6153 50.1573 72.6261 50.2235 72.6232 50.2899C72.5655 50.559 72.4087 50.7965 72.1841 50.9551C71.3472 51.6777 69.8137 51.8143 68.819 51.2542C68.7406 51.2138 68.6719 51.1567 68.618 51.0869C68.5641 51.017 68.5261 50.9362 68.5068 50.8501C68.4957 50.7722 68.5022 50.6927 68.5259 50.6177C68.5496 50.5427 68.5897 50.474 68.6435 50.4166C69.234 49.7437 69.7548 49.0125 70.1978 48.2343ZM70.4479 54.0549C70.718 55.0915 71.0426 56.1335 71.3399 57.1435C71.8885 58.8367 72.342 60.5593 72.6983 62.3032C71.5179 59.4855 70.7746 56.5696 70.1195 53.8C70.1946 53.7977 70.2682 53.8222 70.327 53.8691C70.3858 53.916 70.4262 53.9822 70.4408 54.0561L70.4479 54.0549Z" fill="#168430"/>
</svg>
