<svg width="431" height="263" viewBox="0 0 431 263" fill="none" xmlns="http://www.w3.org/2000/svg">
<path d="M472 108.075L423.069 75.5606C415.447 70.4964 405.642 70.0937 397.631 74.516V74.516C386.952 80.411 382.225 93.2555 386.535 104.666L402.878 147.935V147.935C414.775 177.518 420.889 209.108 420.889 240.993V246.913V246.913C420.889 260.794 406.177 269.736 393.855 263.345L355.525 243.464C350.786 241.006 346.526 237.72 342.944 233.761L273.397 156.892L200.46 57.3765C192.455 46.4538 179.723 40 166.181 40V40C133.847 40 113.356 74.6739 128.951 102.999L131.746 108.075L190.601 198.202C198.389 210.128 200.855 224.76 197.405 238.58V238.58C191.717 261.374 171.24 277.368 147.747 277.368H109.025C99.2371 277.368 89.501 278.794 80.124 281.602L12 302" stroke="#D6F470" stroke-width="80"/>
</svg>
