<svg width="62" height="59" viewBox="0 0 62 59" fill="none" xmlns="http://www.w3.org/2000/svg">
<path d="M7.47341 49.476C7.80316 49.9851 8.26733 50.26 8.76448 50.5552C11.4064 52.1346 14.3633 53.1089 17.4241 53.4084C17.765 53.4486 18.1036 53.5063 18.4386 53.5815C19.1159 53.7189 19.816 53.8589 20.5338 53.7164C21.5873 53.5419 22.6547 53.4669 23.7222 53.4924H24.0316C26.7228 53.4695 29.2086 52.7008 31.948 51.7718C32.2887 51.6546 32.6082 51.4827 32.8941 51.2628C36.6988 48.3689 40.0216 45.6633 42.0533 41.6953C42.2214 41.3333 42.4796 41.0209 42.8031 40.7882C43.1265 40.5554 43.5043 40.4103 43.8999 40.3667C45.1986 40.1733 46.2005 39.3665 46.8422 38.7734C48.3489 37.3812 48.8232 35.6912 48.2475 33.7543C47.692 31.8835 46.8422 30.1528 44.4123 30.1528C44.4123 30.1528 44.4123 30.1528 44.392 30.1528C44.2742 30.1411 44.1601 30.1047 44.0572 30.0459L43.9456 29.995L43.905 29.9237C43.8864 29.8932 43.8711 29.8608 43.8593 29.827C43.8142 29.4552 43.8814 29.0784 44.0521 28.7453C44.1165 28.5935 44.1715 28.438 44.217 28.2795C44.7928 26.2077 44.5315 25.4569 42.8219 24.2632L42.5683 24.0825C41.7024 23.4376 40.7843 22.8663 39.8238 22.3746C35.4889 20.3155 31.707 17.302 28.0418 14.3852L27.8363 14.2223L27.3011 13.7998C25.7792 12.6061 24.1939 11.3691 23.5167 9.36349C23.4786 9.22061 23.4051 9.08969 23.3031 8.98291C23.2012 8.87612 23.0739 8.79691 22.9333 8.75263C22.7311 8.71323 22.5225 8.72294 22.3248 8.78094C22.1271 8.83894 21.9461 8.94356 21.797 9.08606C20.9066 9.81399 20.445 10.5419 20.2497 11.5142C19.5725 14.9171 17.9669 17.4115 15.4887 18.9259C13.383 20.2604 11.0995 21.2887 8.70614 21.9801L8.3003 22.0896C6.90776 22.4688 5.46958 22.8531 4.05422 22.9473L3.97559 22.8353L3.92485 22.7666C3.92485 22.7233 3.92485 22.68 3.92485 22.6368C3.91101 22.488 3.9239 22.338 3.96291 22.1939C5.10433 18.9946 6.40809 15.6323 8.64527 12.7588C8.92428 12.4025 9.22359 12.0487 9.51528 11.7076C9.76893 11.4226 10.0048 11.135 10.2407 10.8397C11.8209 8.86717 13.4063 7.53093 15.2351 6.60447C18.1774 5.12571 20.4501 5.06207 22.6036 6.39576C22.8805 6.58764 23.2137 6.68044 23.5496 6.6592C23.8855 6.63797 24.2044 6.50394 24.4552 6.2787L24.7088 6.09035C24.8972 5.93034 25.0973 5.78484 25.3075 5.65511C27.0018 4.6523 28.7545 3.61895 30.7837 3.44842C32.0241 3.34407 33.2923 3.30333 34.52 3.26261L35.5498 3.22952C37.6449 3.15316 39.6995 3.67493 41.4294 4.19924C42.937 4.68187 44.3392 5.44806 45.5613 6.45686C46.3663 7.12753 47.1046 7.87508 47.7655 8.689C48.1561 9.13951 48.5594 9.60528 48.9881 10.038C50.5886 11.6641 51.81 13.626 52.5645 15.7825C52.8723 16.6309 53.1818 17.4793 53.4929 18.3277C54.2539 20.4402 55.0579 22.6291 55.8189 24.7849C56.495 26.6015 56.9581 28.4909 57.1987 30.4149C57.3179 31.5323 57.4524 32.6624 57.6071 33.7543C57.6578 34.159 57.7111 34.5611 57.7618 34.9632C57.8709 35.8159 57.9952 36.6762 58.1169 37.5085C58.4388 39.4682 58.6589 41.4434 58.7764 43.4261C58.8144 44.2864 58.6141 44.803 58.0408 45.335C56.8509 46.4901 55.4969 47.4618 54.023 48.2187C53.0084 48.7099 52.0192 49.2088 51.0173 49.7102C46.1625 52.1383 41.1402 54.6479 35.7273 56.0096C33.0503 56.6837 30.2968 57.0038 27.537 56.9615C26.6416 56.9615 26.0963 56.6383 25.7615 55.9434C25.5926 55.5332 25.2905 55.1924 24.9042 54.9762C24.7366 54.8781 24.5442 54.8311 24.3505 54.841C24.1568 54.851 23.9701 54.9174 23.8135 55.0322C23.6851 55.1243 23.5828 55.2482 23.5165 55.3919C23.4503 55.5356 23.4224 55.694 23.4355 55.8518C23.5573 57.4833 25.2111 58.9951 26.8522 58.9951H26.9105C27.3088 58.9951 27.7044 58.9671 28.1027 58.9468C28.5009 58.9264 28.8306 58.906 29.1959 58.8984C33.3684 58.7813 37.5384 57.865 41.9417 56.0987C44.5898 55.0322 47.1669 53.7062 49.6552 52.4208C51.4079 51.5198 53.2063 50.5858 55.0402 49.7509C57.1708 48.7761 58.7181 47.2261 60.3668 45.4546C60.8944 44.8921 61.0897 44.3042 60.9654 43.6551C60.7371 42.4716 60.6179 41.2524 60.4987 40.0715C60.3896 38.7121 60.2033 37.3601 59.9407 36.022C59.6623 34.8081 59.4874 33.5726 59.4181 32.3289C59.2862 29.2085 58.5456 26.0194 57.0161 21.9903C56.847 21.5542 56.6779 21.1198 56.5088 20.6871C55.9356 19.2033 55.3445 17.6685 54.8677 16.1287C54.1687 13.9272 53.0904 11.8657 51.6819 10.038C51.3366 9.59538 50.9691 9.17063 50.581 8.76536C50.2614 8.41921 49.9291 8.06034 49.6349 7.68874C47.626 5.1588 45.4167 3.48914 42.8853 2.58304C36.1865 0.185451 30.3297 0.501062 24.9828 3.54259C23.6968 4.27561 22.6999 4.39015 21.5585 3.93964C19.8982 3.29336 18.0605 3.27345 16.3866 3.88364C13.944 4.74138 12.1837 5.78746 10.8495 7.1746C8.43474 9.68418 5.73083 12.7588 3.98827 16.5563C1.26915 22.5324 -0.0396686 28.0734 0.000915222 33.4972C0.0392231 36.3042 0.781583 39.0562 2.15947 41.4993C3.14081 43.224 4.22413 44.8881 5.40363 46.4829C6.1037 47.4526 6.819 48.458 7.47341 49.476ZM13.6979 25.3245C13.7893 24.3879 13.6726 23.7083 13.1907 22.451C13.6624 21.9674 14.3016 21.6874 14.9205 21.4329L15.3898 21.2293C17.5052 20.2697 19.1057 18.7197 20.2801 16.4952C20.4881 16.1007 20.7139 15.7087 20.9346 15.3269C21.5042 14.4021 21.9857 13.4255 22.3727 12.4101C23.3146 12.966 24.1859 13.6343 24.9676 14.4005L25.2212 14.6397C29.863 18.8342 34.3652 21.9877 38.9817 24.2861C40.08 24.8333 40.9627 25.35 41.7033 26.1008C42.2512 26.6531 42.3983 27.1825 42.2106 27.8697C41.9265 28.8598 41.6653 29.8754 41.4116 30.8553C41.3051 31.271 41.1977 31.685 41.0895 32.0973C41.0489 32.2577 41.0032 32.418 40.9576 32.5784C40.8419 32.9515 40.7496 33.3314 40.6811 33.7161C40.6469 33.9147 40.6833 34.119 40.7839 34.2934C40.8845 34.4679 41.0429 34.6013 41.2315 34.6705C41.4128 34.7486 41.6143 34.7659 41.8061 34.7201C41.998 34.6742 42.1701 34.5676 42.2968 34.416C42.4668 34.2251 42.6241 34.019 42.7762 33.8204C42.8752 33.6906 42.9716 33.5659 43.0756 33.4361L43.2354 33.235C43.3842 33.0308 43.5542 32.8431 43.7426 32.6751C44.1612 32.334 44.5721 32.1966 44.9348 32.2755C45.1288 32.3327 45.3073 32.4334 45.4567 32.5701C45.6062 32.7069 45.7226 32.8759 45.7972 33.0645C46.0688 33.6136 46.2569 34.2004 46.3552 34.8054C46.4287 35.2409 46.4011 35.6874 46.2744 36.1104C46.1476 36.5333 45.9253 36.9212 45.6247 37.2437C45.3518 37.5312 45.0163 37.7514 44.6445 37.8869C44.2726 38.0225 43.8745 38.0698 43.4814 38.0251C42.2639 37.8826 41.6526 38.2313 41.1478 39.3537C39.0933 43.9351 35.4001 46.9665 31.7121 49.5677C31.3239 49.8361 30.8958 50.0414 30.4438 50.176C24.1305 52.0951 18.2687 52.1129 12.5439 50.2243C11.3416 49.8298 10.0074 49.2241 9.20076 47.7427C8.83694 47.1409 8.38552 46.597 7.86149 46.1291C7.51203 45.8001 7.18574 45.4471 6.88495 45.0728C5.41378 43.1563 4.13285 40.858 2.85192 37.8419C2.04571 35.9248 1.78239 33.8216 2.09098 31.7639C2.28122 30.4022 2.39282 29.2798 2.43594 28.2312C2.46753 27.8081 2.53801 27.3889 2.64647 26.9789C2.68959 26.7906 2.73271 26.6022 2.76822 26.4139C2.79939 26.1554 2.90761 25.9124 3.07868 25.7167C3.24975 25.521 3.47572 25.3816 3.72702 25.3169L4.55645 25.0827C6.21278 24.617 7.92237 24.1359 9.59138 23.9399C9.83275 24.1737 9.99357 24.4786 10.0505 24.8104C10.1379 25.1733 10.3005 25.5136 10.5278 25.8091C10.7551 26.1047 11.0418 26.3489 11.3695 26.5259C11.9884 26.8695 12.5337 26.9331 12.9522 26.7142C13.3707 26.4953 13.6345 26.0244 13.6979 25.3245Z" fill="#168430"/>
<path d="M7.99859 34.113C6.91805 35.103 6.8521 35.4441 7.50651 36.7345C7.66885 37.0578 7.84133 37.3785 8.01381 37.6992C8.33087 38.282 8.65807 38.8878 8.91932 39.5063C9.60671 41.1403 10.7126 42.6191 12.4019 44.1615C13.972 45.5944 15.8642 46.2663 18.3449 46.2663H18.5732L19.1312 46.1976C20.922 45.9736 22.9512 45.7217 24.9296 45.0701C26.4091 44.5932 27.7267 43.7118 28.7344 42.5249C30.1294 40.8552 31.1694 38.9616 32.3032 36.6709C32.5569 36.1491 32.6152 35.7826 32.4858 35.4848C32.3565 35.187 31.9785 34.93 31.2937 34.7213C30.5606 34.5049 29.8098 34.3089 29.0819 34.1181C28.4934 33.9653 27.8847 33.805 27.2886 33.637C21.9378 32.1017 16.3083 31.8127 10.8293 32.792C9.77837 32.9487 8.79518 33.4075 7.99859 34.113ZM21.8326 34.2911L22.6088 34.4235C24.3158 34.706 26.033 35.1412 27.6817 35.5612C28.2702 35.7114 28.8561 35.8615 29.4573 36.0041C29.8073 36.088 30.0102 36.2102 30.0838 36.3757C30.1573 36.5411 30.1091 36.7651 29.9443 37.0654C29.8225 37.2868 29.7033 37.5108 29.5816 37.7348C28.9395 38.9815 28.2194 40.1861 27.4255 41.3414C26.2816 42.9372 24.4122 43.6142 22.7533 44.1258C21.1076 44.6149 19.3963 44.845 17.6804 44.8079C16.5249 44.7925 15.4126 44.3648 14.5427 43.6015C12.3334 41.7919 10.6594 39.379 9.42662 36.2204C9.17297 35.5688 9.35053 35.1183 9.96689 34.8434C10.1502 34.7666 10.3417 34.7111 10.5376 34.678C12.7621 34.286 15.1337 33.8941 17.5028 33.8253C18.9562 33.7897 20.4172 34.0468 21.8326 34.2911Z" fill="#168430"/>
<path d="M24.3005 25.3835C24.4345 25.4197 24.5726 25.4385 24.7114 25.4394C25.4723 25.4394 26.2333 24.8973 26.7406 23.9683C26.8411 23.7806 26.926 23.5848 26.9942 23.3829C27.1138 23.0306 27.1461 22.6543 27.0882 22.2867C27.0303 21.919 26.884 21.5711 26.6619 21.2729C26.4388 20.9659 26.1454 20.7172 25.8063 20.548C25.4672 20.3788 25.0925 20.2939 24.7139 20.3007C24.474 20.3158 24.2395 20.379 24.0243 20.4866C23.8091 20.5941 23.6175 20.7438 23.4609 20.9268C22.9608 21.4956 22.7031 22.2386 22.7431 22.9961C22.7887 24.1389 23.4634 25.1569 24.3005 25.3835Z" fill="#168430"/>
</svg>
