<svg width="545" height="329" viewBox="0 0 545 329" fill="none" xmlns="http://www.w3.org/2000/svg">
<path d="M233.823 -29L177.1 16.0831L171.4 21.4525C144.826 46.4868 121.074 74.3563 100.569 104.563L78.2098 137.5L30.2735 232.576C26.8062 239.453 25 247.047 25 254.749V280.649C25 293.545 35.4546 304 48.3511 304V304C56.0439 304 63.2431 300.211 67.5987 293.87L94.7751 254.306L131.42 187.194L159.53 137.5L183.712 103.693C191.999 92.1074 201.45 81.4009 211.917 71.7403L250.464 36.1626C252.715 34.0852 255.483 32.6508 258.478 32.0093V32.0093C272.716 28.9596 284.004 43.9702 277.122 56.8025L255.361 97.3827C254.393 99.1872 253.67 101.113 253.211 103.108L245.607 136.161C243.703 144.436 252.859 150.81 259.959 146.151V146.151C260.933 145.512 261.78 144.698 262.457 143.751L273.851 127.803C277.279 123.004 281.075 118.478 285.203 114.265L320.164 78.5846L347.683 47.3398C356.054 37.8353 365.907 29.7465 376.859 23.3865L381.703 20.5738C386.84 17.5914 392.324 15.2536 398.032 13.6133L429.242 4.64513C436.53 2.55113 444.374 4.77053 449.484 10.3721V10.3721C452.836 14.0463 454.694 18.8401 454.694 23.8134V55.8893C454.694 57.9582 453.883 59.9446 452.435 61.4223V61.4223C450.988 62.9 450.177 64.8864 450.177 66.9553V74.0668C450.177 76.5619 452.199 78.5846 454.694 78.5846V78.5846H469.497C492.815 78.5846 515.854 73.5152 537.019 63.7277V63.7277L562.843 53.2453C575.028 48.2996 587.789 44.9155 600.823 43.1735V43.1735C615.768 41.1761 630.924 41.3577 645.818 43.7126L659 45.7969" stroke="white" stroke-opacity="0.2" stroke-width="50"/>
</svg>
