<svg width="66" height="73" viewBox="0 0 66 73" fill="none" xmlns="http://www.w3.org/2000/svg">
<path d="M16.5061 35.7667C15.8821 37.7609 15.6898 39.4372 15.9023 41.0419C16.3496 44.3655 17.1615 48.1905 19.9282 51.3507C20.0061 51.4346 20.0723 51.5287 20.125 51.6304C20.843 53.0472 22.0597 54.0924 23.8512 54.8175C24.7398 55.2088 25.586 55.6903 26.3764 56.2544C27.0474 56.702 27.2554 57.1989 27.0272 57.839C26.5151 59.2781 26.9892 60.3815 28.4363 61.12C28.5303 61.1766 28.6149 61.2476 28.6868 61.3304L28.7785 61.4244C28.8407 61.7048 28.8237 61.997 28.7293 62.2682C28.6761 62.4556 28.6453 62.6487 28.6376 62.8434V62.9956C28.6376 64.175 28.622 65.3948 29.7559 66.2498C30.002 66.4333 30.0668 66.7287 30.1339 67.0421L30.163 67.1719C30.3218 67.8679 30.4694 68.4968 30.6573 69.1302C31.2411 71.0707 32.5674 72.2837 34.7145 72.841C35.1371 72.9482 35.5714 73.0016 36.0073 72.9999C36.8711 72.9716 37.7278 72.834 38.5571 72.5903C40.4448 72.1047 41.2008 71.2161 41.3439 69.316C41.3928 68.3956 41.3576 67.4726 41.2388 66.5586C41.1739 65.9767 41.2969 65.6634 41.6861 65.3859C43.1086 64.3944 43.6991 62.9463 43.5045 60.9566C43.4302 60.5545 43.4957 60.1391 43.6901 59.7794C44.4148 58.5731 44.5088 57.2145 43.9764 55.6299C43.7371 54.916 43.8937 54.4728 44.5356 54.0454C46.3786 52.8166 47.9196 51.2634 49.3399 49.7795C52.0059 46.9908 53.3412 44.3252 53.5425 41.3888C53.563 41.1872 53.599 40.9874 53.6499 40.7913C53.7085 40.5715 53.7467 40.3467 53.7639 40.1198C53.7934 39.7055 53.8502 39.2935 53.9339 38.8866C54.0748 38.2743 54.1283 37.6451 54.0927 37.0178C53.67 32.7341 51.8024 28.9942 48.5414 25.9034C47.8608 25.2982 47.1264 24.7565 46.3473 24.2852C45.8328 23.954 45.3028 23.6138 44.8152 23.2311C43.9831 22.582 42.9722 22.1277 41.6324 21.7987C40.7982 21.595 39.9639 21.4495 39.1073 21.3063C34.7101 20.5744 30.5723 21.2593 26.8058 23.3452C21.6593 26.2301 18.1858 30.3952 16.5061 35.7667ZM32.6993 66.7645H32.7351C34.336 66.7957 35.9369 66.7127 37.526 66.5161L38.197 66.449C38.8344 66.3863 39.1498 66.4221 39.3332 66.5765C39.5166 66.731 39.615 67.145 39.6575 67.7471C39.6879 68.1073 39.6946 68.4692 39.6776 68.8303C39.606 70.1217 39.3399 70.4507 38.0963 70.7931L37.7362 70.8938C36.8416 71.1512 35.9156 71.4153 34.9449 71.0572C33.1892 70.4082 32.3102 69.1101 32.1804 66.9749C32.2484 66.9074 32.3291 66.8541 32.4177 66.818C32.5064 66.7819 32.6014 66.7637 32.6971 66.7645H32.6993ZM35.7076 64.9002L34.3656 65.0479L33.471 64.9315C32.7687 64.8442 32.0395 64.7502 31.3283 64.616C30.7222 64.5018 30.4202 64.0542 30.4828 63.3559C30.5522 62.5457 30.8921 62.1361 31.5564 62.0667C31.6523 62.0566 31.7486 62.0521 31.8449 62.0533H32.0932C34.7593 62.0533 37.6177 61.9571 40.4828 61.3819C40.6574 61.3543 40.834 61.3416 41.0107 61.3438C41.1166 61.3352 41.2232 61.349 41.3234 61.3845C41.4237 61.42 41.5152 61.4763 41.5922 61.5497C41.6571 61.6377 41.7029 61.7384 41.7264 61.8452C41.7499 61.952 41.7506 62.0626 41.7286 62.1697C41.6593 62.7695 41.3461 63.2597 40.7132 63.7543C40.191 64.155 39.575 64.4154 38.9239 64.5108C37.8704 64.6674 36.8192 64.7793 35.7076 64.9002ZM37.8704 59.7279C37.5879 59.8486 37.283 59.9082 36.9758 59.9025H36.8438C36.3495 59.9338 35.844 59.9517 35.3565 59.9696C34.3266 59.9892 33.2985 60.0639 32.2766 60.1934C31.1426 60.3546 30.0981 59.86 29.2012 59.381C29.0219 59.3044 28.8797 59.1604 28.8053 58.9801C28.7309 58.7997 28.7301 58.5973 28.8031 58.4164C28.9351 57.9688 29.1319 57.5592 29.6642 57.492C29.7052 57.4898 29.7463 57.4898 29.7872 57.492C29.898 57.4946 30.0085 57.5036 30.1183 57.5189C30.2033 57.5189 30.2882 57.5413 30.3732 57.5458L31.6548 57.6241C33.0535 57.7091 34.4514 57.792 35.8485 57.8725C37.3739 57.9531 38.8791 57.5681 40.4358 56.6774C40.6013 56.5811 40.7601 56.4715 40.9145 56.364C41.2796 56.0657 41.7118 55.8606 42.1737 55.7665C42.7015 56.4871 42.7463 57.3152 42.3168 58.3649C42.2085 58.6342 42.0135 58.8596 41.7628 59.0055C41.512 59.1515 41.2198 59.2096 40.9324 59.1706C39.7067 59.0677 38.736 59.2422 37.8704 59.7279ZM37.7854 37.4699C37.6276 36.4596 37.6404 35.4299 37.8235 34.4238C37.8871 34.2067 37.9969 34.0059 38.1455 33.8352C38.1929 33.761 38.2596 33.701 38.3383 33.6616C38.4171 33.6222 38.505 33.6048 38.5929 33.6114C38.6824 33.6241 38.7669 33.6604 38.8376 33.7167C38.9084 33.7729 38.9629 33.8471 38.9955 33.9315C39.4137 34.8804 39.2885 35.8652 38.6085 36.944C38.4385 37.226 38.2551 37.5102 37.7854 37.4699ZM29.8678 37.5908C28.783 37.0089 28.206 36.0845 28.3155 35.0953C28.3229 35.0369 28.345 34.9813 28.3798 34.9339C28.4147 34.8865 28.4611 34.8488 28.5146 34.8245C28.5653 34.7992 28.6212 34.7862 28.6779 34.7864C28.7426 34.7862 28.8061 34.804 28.8613 34.8379C29.6821 35.3527 30.078 36.4471 29.8678 37.5908ZM37.8838 43.2666C37.8078 42.725 37.7295 42.1655 37.7027 41.6059C37.6401 40.3996 37.9621 39.6073 38.7785 38.9583C39.993 37.9959 40.6081 36.6105 40.6103 34.8424C40.6064 34.0229 40.3545 33.2239 39.8879 32.5505C39.5636 32.0582 39.2169 31.7918 38.8344 31.7381C38.4519 31.6844 38.0538 31.8455 37.6132 32.226C36.6291 33.0765 36.1326 34.2403 36.0476 35.8988C36.0319 36.2054 36.0274 36.5187 36.0252 36.8231C36.0252 37.1812 36.0252 37.5505 35.9939 37.9108C35.9952 38.0982 35.9239 38.2787 35.7948 38.4144C35.7424 38.453 35.6825 38.4804 35.619 38.4946C35.5555 38.5089 35.4897 38.5098 35.4258 38.4972C35.3451 38.4916 35.2665 38.4694 35.1949 38.4319C35.1233 38.3944 35.0601 38.3425 35.0095 38.2795C34.9589 38.2164 34.9218 38.1436 34.9007 38.0655C34.8796 37.9874 34.8749 37.9058 34.8868 37.8258C34.9059 37.57 34.9418 37.3158 34.9941 37.0648C35.0254 36.8992 35.0567 36.7358 35.0791 36.5702C35.1641 35.9122 35.1999 35.2117 34.8756 34.538C34.6519 34.0747 34.3365 33.7972 33.9809 33.7547C33.6253 33.7121 33.3099 33.8889 32.9968 34.2605C32.1916 35.243 31.552 36.3374 32.3124 37.7094C32.3644 37.8026 32.3928 37.9071 32.3952 38.0138C32.4021 38.0802 32.3824 38.1467 32.3405 38.1987C32.2986 38.2507 32.2378 38.284 32.1715 38.2913C32.0912 38.2977 32.0114 38.2738 31.9478 38.2242C31.7438 37.9166 31.6171 37.5641 31.5788 37.1969C31.5564 37.0917 31.5363 36.9865 31.5094 36.8813C31.3216 36.0912 31.0845 35.1087 30.503 34.3052C29.7022 33.1974 28.8054 32.846 27.9062 33.2891C27.0071 33.7323 26.6045 34.7484 26.8863 35.9234C27.2755 37.555 28.0046 38.6315 29.1431 39.2179C30.3643 39.8513 30.8809 40.8114 30.872 42.4273C30.8208 44.2526 30.6542 46.0729 30.3732 47.8771L30.324 48.2464C30.101 49.7505 29.5679 51.1918 28.7584 52.4787L28.66 52.6398C28.4721 52.9487 28.2775 53.2665 28.1098 53.591C28.0335 53.7146 28.0046 53.8616 28.0285 54.0048C28.0523 54.1481 28.1273 54.2778 28.2395 54.3699C28.5325 54.6116 28.8635 54.5735 29.1722 54.258C29.3872 54.0319 29.5777 53.7835 29.7403 53.5172C30.9414 51.6058 31.6079 49.8064 31.7778 48.0181C31.8271 47.4944 31.8897 46.9617 31.9501 46.4514C32.1491 44.755 32.3549 43.0025 32.1581 41.2456C32.122 41.0328 32.1387 40.8145 32.2066 40.6096C32.2744 40.4048 32.3914 40.2197 32.5472 40.0706C32.7294 39.9281 32.9434 39.8318 33.1709 39.7901C33.3984 39.7484 33.6326 39.7625 33.8534 39.8311C34.0829 39.8945 34.3072 39.9753 34.5244 40.0728C34.7512 40.1744 34.9852 40.2589 35.2245 40.3257C35.7658 40.46 36.0207 40.7734 36.1057 41.4224C36.1862 42.0289 36.2802 42.6467 36.3697 43.242C36.486 44.0119 36.6045 44.8087 36.6984 45.5898C37.0317 48.3717 38.1008 50.8919 39.9684 53.2956C40.1879 53.5827 40.3918 53.8816 40.579 54.1908C40.6016 54.2555 40.6114 54.3239 40.6081 54.3923C40.6081 54.4415 40.6081 54.4952 40.6081 54.5579C39.454 55.6456 37.8414 56.1805 36.0543 56.0709C35.4482 56.0306 34.8286 56.0171 34.2292 56.0037C32.7329 55.9701 31.1851 55.9366 29.7045 55.5136C29.5837 55.48 29.4585 55.4576 29.3377 55.4352C29.164 55.4104 28.9937 55.3661 28.83 55.3032C26.6135 54.3453 24.0727 53.1009 22.0306 51.1493C20.2592 49.4572 19.076 47.2303 18.414 44.3409C18.1031 42.9801 17.9219 41.5657 17.743 40.1982L17.6714 39.6476C17.6414 39.2424 17.667 38.835 17.7475 38.4368L17.781 38.213C18.2709 34.8043 19.794 31.7627 22.4422 28.9181C24.6788 26.5121 27.1212 24.8515 29.9058 23.8376L29.9729 23.813C30.2892 23.6914 30.6117 23.5868 30.9391 23.4996C32.6315 23.0834 34.3674 22.87 36.1102 22.864C37.8911 22.8608 39.6641 23.1018 41.3797 23.5802L41.5005 23.6115C41.8688 23.6961 42.2244 23.8286 42.5584 24.0054C45.0455 25.4893 47.6311 27.1567 49.4919 29.7932C51.8628 33.1504 52.6523 36.6373 51.9098 40.46C51.874 40.6458 51.8359 40.8293 51.7957 41.0151C51.7085 41.4224 51.619 41.8454 51.572 42.2662C51.2164 45.1153 49.5993 47.2214 48.0627 48.9067C46.4269 50.7158 44.5374 52.2779 42.4533 53.544C39.8655 51.1403 38.4273 48.1211 38.0247 44.3185C37.98 43.9739 37.9308 43.6135 37.8838 43.2666Z" fill="#168430"/>
<path d="M64.1531 26.2637H64.133L64.0212 26.2749C63.933 26.28 63.8455 26.2927 63.7595 26.3129L63.178 26.4696C61.581 26.9038 59.9281 27.3492 58.3066 27.8124C58.0661 27.895 57.8431 28.0218 57.649 28.1862C57.5585 28.2571 57.4885 28.3509 57.4464 28.458C57.4044 28.565 57.3917 28.6814 57.4097 28.795C57.4297 28.9245 57.4831 29.0465 57.5647 29.1489C57.6463 29.2514 57.7532 29.3307 57.8749 29.3791C58.0401 29.4478 58.2172 29.4836 58.3961 29.4843C58.5416 29.4831 58.6861 29.4612 58.8255 29.4194L59.4674 29.2359C60.9458 28.8084 62.4265 28.3832 63.9049 27.949C64.1467 27.8808 64.3784 27.7807 64.5938 27.6513C65.0545 27.3648 65.0411 27.0202 64.9606 26.7807C64.8129 26.3666 64.4573 26.2883 64.1531 26.2637Z" fill="#168430"/>
<path d="M1.32616 46.2185C1.42234 46.2185 1.52074 46.2185 1.62363 46.2297H1.63706L2.63459 46.0059C3.96314 45.7194 5.43708 45.4016 6.90654 45.0793C7.04744 45.0497 7.17565 44.977 7.27335 44.8712C7.40247 44.7291 7.49534 44.5579 7.544 44.3721C7.59321 44.1102 7.46125 43.8775 7.15259 43.6805C7.01043 43.587 6.8464 43.5321 6.67663 43.5211C6.50685 43.5101 6.33714 43.5435 6.18412 43.6179C5.33867 44.023 4.41272 44.0789 3.52031 44.1349C3.28323 44.1483 3.04613 44.164 2.81129 44.1841C2.19948 44.2499 1.59424 44.3667 1.00186 44.5333C0.574667 44.6474 -0.136583 44.8354 0.0222179 45.574C0.151942 46.1827 0.695434 46.1984 1.32616 46.2185Z" fill="#168430"/>
<path d="M43.1382 1.52592C43.102 1.39009 43.026 1.26822 42.9199 1.17606C42.8138 1.08389 42.6826 1.02567 42.5431 1.00891C42.4019 0.980902 42.2554 0.999067 42.1253 1.06073C41.9952 1.12239 41.8884 1.22428 41.8206 1.35135C41.6673 1.68312 41.5409 2.02665 41.4425 2.37864C41.2277 3.17807 41.1061 3.99971 41.0801 4.82713C41.0525 5.39205 40.9913 5.95481 40.8967 6.51243C40.8326 6.96544 40.9165 7.42706 41.136 7.82844C41.2063 7.94975 41.3076 8.05018 41.4294 8.1194C41.5513 8.18863 41.6894 8.22416 41.8295 8.22235H41.8407C41.9781 8.22278 42.113 8.18597 42.2312 8.11582C42.3494 8.04568 42.4463 7.94482 42.5118 7.82396C42.6415 7.59607 42.6934 7.33202 42.6594 7.07195C42.3686 5.84995 42.6057 4.70627 43.0531 3.36564C43.2765 2.7771 43.3063 2.13257 43.1382 1.52592Z" fill="#168430"/>
<path d="M61.9187 48.0181H61.9858C62.1149 48.0178 62.2415 47.982 62.3515 47.9145C62.4616 47.847 62.551 47.7504 62.6098 47.6354C62.6751 47.51 62.6993 47.3673 62.6788 47.2274C62.6583 47.0876 62.5942 46.9578 62.4957 46.8565C62.377 46.7006 62.2239 46.5742 62.0484 46.4872C60.4855 45.8291 58.8815 45.2736 57.2464 44.8243H57.2262C56.6626 44.784 56.2153 44.7527 55.976 45.2182C55.8964 45.385 55.886 45.5764 55.9469 45.7509C56.045 46.0279 56.2461 46.2564 56.5083 46.3887L56.5463 46.4089C56.6483 46.4696 56.7605 46.5113 56.8773 46.532C58.0337 46.6685 59.1274 47.087 60.1853 47.4944C60.5208 47.6242 60.8563 47.7517 61.1985 47.8726C61.4312 47.9524 61.6733 48.0013 61.9187 48.0181Z" fill="#168430"/>
<path d="M65.6338 38.0025C65.4708 37.8957 65.2896 37.8199 65.0992 37.7786C64.1487 37.6018 63.1959 37.4317 62.3281 37.2773L61.5117 37.1318L61.004 37.152C60.7386 37.1566 60.4736 37.1745 60.21 37.2057C59.4272 37.3176 59.3153 37.763 59.3399 38.1166C59.3565 38.3198 59.4514 38.5087 59.6046 38.6431C59.7578 38.7776 59.9572 38.8472 60.1608 38.8373H60.2033C61.0016 38.8322 61.7982 38.9148 62.5786 39.0835C63.0975 39.1752 63.6343 39.2715 64.171 39.3073C64.3544 39.3207 64.5379 39.3274 64.7213 39.3274C64.9671 39.3281 65.2127 39.3154 65.4571 39.2894C65.5993 39.2664 65.7296 39.196 65.8266 39.0895C65.9237 38.983 65.9819 38.8468 65.9917 38.703C66.0132 38.5634 65.9902 38.4206 65.926 38.2948C65.8617 38.169 65.7595 38.0667 65.6338 38.0025Z" fill="#168430"/>
<path d="M19.8866 13.634C18.9068 12.8932 18.1843 11.9509 17.4685 10.9684C17.1508 10.5623 16.795 10.1876 16.4059 9.84935L16.1822 9.65017C16.0609 9.51996 15.8952 9.4401 15.7179 9.42642C15.5405 9.41274 15.3645 9.46624 15.2247 9.57631C15.1394 9.63627 15.0675 9.71351 15.0139 9.80301C14.9602 9.89252 14.926 9.9923 14.9133 10.0959C14.9007 10.1995 14.9099 10.3046 14.9404 10.4044C14.971 10.5042 15.0221 10.5964 15.0905 10.6752C16.1049 12.1273 17.2985 13.4456 18.6429 14.5986C18.8687 14.8123 19.1645 14.9364 19.475 14.9478H19.5354C19.7059 14.9485 19.8712 14.8893 20.0024 14.7805C20.1337 14.6717 20.2225 14.5201 20.2535 14.3524V14.3345C20.256 14.1963 20.2237 14.0597 20.1596 13.9373C20.0955 13.8149 20.0016 13.7106 19.8866 13.634Z" fill="#168430"/>
<path d="M8.81218 29.1262C8.87048 29.1368 8.92963 29.142 8.98888 29.1419C9.1341 29.1501 9.27806 29.1109 9.39908 29.0302C9.5201 28.9495 9.61162 28.8316 9.65987 28.6943C9.6964 28.5956 9.71151 28.4903 9.70418 28.3853C9.69685 28.2803 9.66727 28.1781 9.61739 28.0855C9.56215 27.9941 9.48847 27.9153 9.40104 27.854C9.31362 27.7927 9.21438 27.7504 9.10967 27.7297C7.69164 27.423 6.26243 27.1433 4.88019 26.8725L3.4823 26.5972H3.45098L3.26311 26.6173C3.17148 26.6234 3.08035 26.6353 2.99025 26.6531C2.85159 26.6736 2.72217 26.735 2.61858 26.8295C2.51499 26.924 2.44191 27.0473 2.40871 27.1836C2.36899 27.3234 2.38079 27.4728 2.44196 27.6047C2.50313 27.7366 2.60959 27.8421 2.74196 27.902C3.07826 28.0525 3.43111 28.163 3.79319 28.231C4.30315 28.3205 4.82428 28.3988 5.32752 28.4749C5.83076 28.551 6.34517 28.6294 6.85065 28.7189C7.16825 28.7748 7.48811 28.8487 7.79901 28.9203C8.1099 28.9919 8.47221 29.068 8.81218 29.1262Z" fill="#168430"/>
<path d="M59.2266 16.846C59.1232 16.7894 59.0068 16.7611 58.889 16.7639C58.7712 16.7666 58.6562 16.8003 58.5555 16.8617C58.1954 17.0855 57.8173 17.2824 57.4482 17.4772C56.6727 17.8468 55.946 18.3114 55.285 18.8603C55.0531 19.0681 54.85 19.306 54.6811 19.5676C54.5783 19.7096 54.5302 19.8839 54.5454 20.0586C54.5606 20.2332 54.6381 20.3966 54.7638 20.5187C54.8421 20.6063 54.9369 20.6773 55.043 20.7276C55.149 20.778 55.264 20.8067 55.3812 20.8119H55.4036C55.4939 20.8082 55.5823 20.7849 55.6626 20.7435C55.743 20.7022 55.8134 20.6438 55.8689 20.5725C56.5735 19.7242 57.569 19.3549 58.4459 19.0304C58.8637 18.8599 59.2137 18.5563 59.4414 18.1665C59.5246 18.0226 59.5886 17.8683 59.6315 17.7077C59.6315 17.6719 59.6516 17.6405 59.6606 17.6182V17.6002V17.5801C59.6586 17.4305 59.6175 17.284 59.5413 17.1552C59.4652 17.0264 59.3567 16.9198 59.2266 16.846Z" fill="#168430"/>
<path d="M28.9868 10.1492C29.1088 10.4344 29.2667 10.7029 29.4566 10.9482C29.5202 11.0331 29.6031 11.1017 29.6984 11.1484C29.7936 11.1951 29.8986 11.2185 30.0047 11.2168C30.0732 11.2161 30.1415 11.2078 30.2082 11.1922C30.3435 11.1553 30.465 11.0798 30.558 10.9748C30.651 10.8699 30.7113 10.7401 30.7317 10.6013C30.7914 10.4066 30.7914 10.1984 30.7317 10.0037C30.3245 8.92943 29.8369 7.66489 29.3246 6.43617C29.2664 6.26497 29.1669 6.11073 29.0351 5.98701C28.9032 5.86329 28.743 5.7739 28.5685 5.72669C28.4101 5.68498 28.2419 5.7027 28.0956 5.77649C27.9493 5.85029 27.8351 5.97506 27.7744 6.12731C27.5708 6.59284 27.7207 7.04941 27.8773 7.44108L28.0607 7.8887C28.3605 8.63399 28.6714 9.40167 28.9868 10.1492Z" fill="#168430"/>
<path d="M48.0181 15.3196H48.0337H48.0517C48.2898 15.328 48.5228 15.2499 48.7079 15.0998C48.8929 14.9496 49.0174 14.7375 49.0583 14.5027C49.2999 13.4687 49.7697 12.5086 50.2238 11.5797C50.32 11.3828 50.4184 11.1836 50.5123 10.9844C50.6229 10.7569 50.6983 10.5139 50.736 10.2637C50.7566 10.1222 50.7292 9.97791 50.6583 9.85379C50.5873 9.72966 50.4769 9.63288 50.3446 9.57887C50.2176 9.51734 50.0745 9.49741 49.9355 9.52192C49.7966 9.54643 49.6688 9.61412 49.5706 9.7154C49.464 9.79624 49.3737 9.89647 49.3044 10.0108C48.6153 11.1691 48.017 12.3791 47.5148 13.6299C47.3642 13.9907 47.3444 14.3929 47.4589 14.7668C47.5014 14.8968 47.5743 15.0148 47.6715 15.111C47.7688 15.2071 47.8876 15.2787 48.0181 15.3196Z" fill="#168430"/>
<path d="M8.31799 53.851H8.42761C8.52111 53.8564 8.61474 53.8427 8.70275 53.8107L9.13674 53.6316C10.3738 53.1191 11.6511 52.5887 12.8971 52.0403C13.1808 51.8986 13.4286 51.6943 13.6219 51.4428C13.6793 51.356 13.7164 51.2574 13.7304 51.1543C13.7443 51.0512 13.7348 50.9463 13.7024 50.8474C13.6748 50.7723 13.6313 50.7041 13.5749 50.6473C13.5186 50.5905 13.4507 50.5466 13.3758 50.5184C13.3104 50.4938 13.2403 50.4841 13.1707 50.4899C13.1011 50.4957 13.0336 50.5169 12.9732 50.552C12.1735 50.9625 11.3269 51.2744 10.4521 51.4808C9.9264 51.6263 9.38502 51.7785 8.86381 51.9754C8.41641 52.1433 7.9377 52.3671 7.71847 52.9266C7.68087 53.0305 7.66899 53.142 7.68379 53.2515C7.69859 53.361 7.73964 53.4653 7.80348 53.5555C7.8586 53.6431 7.93432 53.7158 8.02401 53.7673C8.1137 53.8188 8.21464 53.8475 8.31799 53.851Z" fill="#168430"/>
<path d="M54.3791 49.7124H54.3545C53.8624 49.7616 53.5895 49.9362 53.4732 50.2921C53.419 50.4247 53.4087 50.5712 53.4437 50.7101C53.4787 50.8491 53.5573 50.9731 53.6678 51.0642C54.6194 51.7297 55.7039 52.1809 56.8465 52.3869C56.8815 52.3902 56.9167 52.3902 56.9517 52.3869C57.0767 52.3808 57.1972 52.3381 57.2982 52.2641C57.3992 52.1901 57.4763 52.0881 57.5199 51.9707C57.588 51.8427 57.6114 51.6956 57.5863 51.5528C57.5611 51.41 57.4889 51.2798 57.3812 51.1828C56.5803 50.5472 55.6632 50.1958 54.7796 49.8556L54.3926 49.7303L54.3791 49.7124Z" fill="#168430"/>
</svg>
