<svg width="253" height="61" viewBox="0 0 253 61" fill="none" xmlns="http://www.w3.org/2000/svg">
<path d="M79.2592 59.8992C79.2228 59.9444 78.6594 60.4409 77.7506 60.4409H75.3332L46.6157 22.2864C44.2893 19.1871 39.3455 18.2393 35.6013 20.1801C31.8571 22.1059 30.7121 26.1982 33.0567 29.2975L36.2738 33.5552L26.5135 46.5241L30.5303 46.479L31.5845 50.7067L40.3815 39.0166L56.5215 60.4559H2.10362C0.449636 60.4559 -0.550022 58.9514 0.322409 57.7929L28.2765 20.6766C33.4384 13.801 45.2526 13.5452 50.9234 19.8792C51.1596 20.135 79.5318 57.7779 79.5318 57.7779C80.0771 58.5 79.8953 59.3576 79.2592 59.8992Z" fill="#303031"/>
<path d="M126.207 60.4408H122.99L84.7119 9.60331C81.6038 5.48094 75.0424 4.2021 70.0441 6.78986C65.064 9.36258 63.5373 14.8089 66.6453 18.9463L97.9074 60.4408H86.075L53.2135 16.84L60.2838 7.4669C67.445 -2.05667 84.1848 -2.05667 91.346 7.4669L128.57 56.8902C129.733 58.4398 128.406 60.4408 126.207 60.4408Z" fill="url(#paint0_linear_64_323)"/>
<path d="M135.44 1.17773V5.94703H144.801V21.1577H151.289V5.96208H160.686V1.19278H135.44V1.17773Z" fill="#303031"/>
<path d="M170.973 5.66113H169.974C161.904 5.66113 159.668 9.00115 159.668 13.1085V14.3121C159.668 18.4194 161.904 21.7594 169.974 21.7594H170.646C173.391 21.7594 176.953 21.4886 179.443 21.0072V16.5388C176.953 17.1406 173.318 17.4264 171.046 17.4264C166.248 17.4264 165.539 16.3582 165.43 14.6581C167.047 15.0493 168.847 15.1997 171.01 15.1997C180.025 15.1997 180.879 13.1085 180.879 10.7163V10.4154C180.879 7.81258 179.189 5.66113 170.973 5.66113ZM170.646 11.9199C168.556 11.9199 167.011 11.7695 165.612 11.4686C165.975 10.1295 167.193 9.37728 171.01 9.37728C174.899 9.37728 175.117 10.2198 175.117 10.7765C175.117 11.3331 174.863 11.9199 170.646 11.9199Z" fill="#303031"/>
<path d="M194.056 5.66113C190.93 5.66113 188.367 6.17267 186.059 7.21078L184.114 6.24789H182.678V23.0834H188.44V21.0673C190.094 21.5187 191.93 21.7594 194.056 21.7594C202.126 21.7594 204.362 18.4194 204.362 14.3121V13.1085C204.38 9.00115 202.145 5.66113 194.056 5.66113ZM193.747 17.4415C191.766 17.4415 190.04 17.2308 188.458 16.8096V10.6411C190.04 10.2348 191.766 9.99413 193.747 9.99413C198.618 9.99413 198.618 11.7845 198.618 13.7253C198.618 15.6661 198.6 17.4415 193.747 17.4415Z" fill="#303031"/>
<path d="M217.558 5.66113C214.431 5.66113 211.869 6.17267 209.56 7.21078L207.615 6.24789H206.18V23.0834H211.941V21.0673C213.595 21.5187 215.431 21.7594 217.558 21.7594C225.627 21.7594 227.863 18.4194 227.863 14.3121V13.1085C227.863 9.00115 225.627 5.66113 217.558 5.66113ZM217.23 17.4415C215.249 17.4415 213.523 17.2308 211.941 16.8096V10.6411C213.523 10.2348 215.249 9.99413 217.23 9.99413C222.083 9.99413 222.083 11.7845 222.083 13.7253C222.083 15.6661 222.101 17.4415 217.23 17.4415Z" fill="#303031"/>
<path d="M240.44 5.66113C237.696 5.66113 234.134 5.93194 231.643 6.39834V10.8818C234.134 10.28 237.696 9.99413 240.259 9.99413C245.021 9.99413 245.53 10.8818 245.584 12.4766C243.894 12.0854 241.985 11.9049 239.568 11.9049C232.08 11.9049 229.662 13.966 229.662 16.4635V16.7644C229.662 19.4124 231.898 21.7745 239.677 21.7745C242.985 21.7745 245.548 21.293 247.965 20.2549L249.91 21.1727H251.346V12.2208C251.346 7.96304 248.474 5.66113 240.44 5.66113ZM245.584 17.4114C243.967 17.8176 242.24 18.0433 240.295 18.0433C235.715 18.0433 235.424 17.5017 235.424 16.7945C235.424 16.1927 235.642 15.4856 239.932 15.4856C242.167 15.4856 243.967 15.6661 245.584 16.0272V17.4114Z" fill="#303031"/>
<path d="M156.451 35.7366C159.832 35.0445 160.904 33.555 160.904 31.8399V31.2531C160.904 28.0485 158.578 25.4307 150.199 25.4307H149.144C144.601 25.4307 139.711 25.6413 135.44 26.0174V45.5009C139.711 45.877 144.619 46.0876 149.144 46.0876H150.199C159.196 46.0876 161.649 43.4698 161.649 40.2652V39.6784C161.649 37.9783 160.395 36.4287 156.451 35.7366ZM142.183 30.3504C144.655 30.1699 147.472 30.0947 149.308 30.0947C154.724 30.0947 154.924 30.877 154.924 31.8399C154.924 32.8178 154.924 33.5851 148.854 33.5851H142.183V30.3504ZM149.417 41.4387C147.436 41.4387 144.673 41.3484 142.183 41.1829V38.2491H148.854C155.67 38.2491 155.67 38.8961 155.67 39.6935C155.67 40.6563 155.415 41.4387 149.417 41.4387Z" fill="url(#paint1_linear_64_323)"/>
<path d="M176.008 25.4453H174.663C171.282 25.4453 168.084 25.7913 164.994 26.4082V31.1474C168.447 30.3651 172.3 30.0792 174.845 30.0792C180.788 30.0792 182.224 31.4784 182.551 33.5998H168.92V38.2487H182.479C182.079 40.2196 180.534 41.4985 174.845 41.4985C172.3 41.4985 168.447 41.1825 164.994 40.4002V45.1695C168.065 45.7563 171.282 46.1023 174.663 46.1023H176.008C186.604 46.1023 189.567 41.7994 189.567 36.5336V35.014C189.567 29.7482 186.604 25.4453 176.008 25.4453Z" fill="url(#paint2_linear_64_323)"/>
<path d="M197.601 26.0176L196.855 39.0166C196.783 40.4459 196.256 41.1981 194.275 41.1981C193.711 41.1981 192.82 41.168 192.221 41.1229V45.5612C193.111 45.8019 194.347 45.8621 195.474 45.8621C201.272 45.8621 203.108 43.6806 203.417 39.6184L203.908 30.6816H213.722V45.5161H220.466V26.0326H197.601V26.0176Z" fill="url(#paint3_linear_64_323)"/>
<path d="M241.84 26.0176H235.097L223.937 44.3426V45.501H230.008L232.134 41.7247H244.766L246.929 45.501H253V44.3426L241.84 26.0176ZM234.661 37.3616L238.478 30.7117L242.295 37.3616H234.661Z" fill="url(#paint4_linear_64_323)"/>
<path d="M145.128 54.1064L143.292 56.7995L141.202 54.1064H139.802V54.1817L142.692 57.6571L142.638 57.7474C142.474 58.0633 142.256 58.2288 141.62 58.2288C141.438 58.2288 141.22 58.2288 140.984 58.1987V59.1315C141.22 59.1616 141.492 59.1767 141.674 59.1767C142.928 59.1767 143.328 58.62 143.892 57.7323L146.4 54.1967V54.1064H145.128Z" fill="#3C3C3B"/>
<path d="M153.452 54.1064V56.4535L153.27 56.4685C152.652 56.5438 152.107 56.5438 151.544 56.5438C150.108 56.5438 149.999 56.1375 149.999 55.5809V54.1064H148.69V55.7464C148.69 56.9199 149.435 57.4615 151.016 57.4615H151.289C151.962 57.4615 152.616 57.4615 153.216 57.3863L153.452 57.3562V59.0413H154.742V54.1215H153.452V54.1064Z" fill="#3C3C3B"/>
<path d="M163.121 55.0095V54.0918H157.451V59.0116H163.121V58.0938H158.759V57.0557H162.176V56.1379H158.759V55.0095H163.121Z" fill="#3C3C3B"/>
<path d="M169.338 56.0627H169.065C168.392 56.0627 167.756 56.0627 167.138 56.1379L166.902 56.168V55.0095H171.264V54.0918H165.593V59.0266C166.611 59.1169 167.774 59.1771 168.865 59.1771H169.119C171.373 59.1771 171.628 58.3797 171.628 57.7779V57.4619C171.664 56.8601 171.41 56.0627 169.338 56.0627ZM168.883 58.2593C168.465 58.2593 167.72 58.2292 167.102 58.1841L166.92 58.169V57.0557L167.102 57.0406C167.72 56.9654 168.265 56.9654 168.81 56.9654C170.319 56.9654 170.555 57.161 170.555 57.6124C170.555 58.0788 170.319 58.2593 168.883 58.2593Z" fill="#3C3C3B"/>
<path d="M179.189 54.1064V56.1526H175.463V54.1064H174.172V59.0262H175.463V57.0553H179.189V59.0262H180.479V54.1064H179.189Z" fill="#3C3C3B"/>
<path d="M186.895 55.8972H186.623C185.95 55.8972 185.314 55.8972 184.696 55.9724L184.46 56.0025V54.0918H183.151V59.0266C184.169 59.1169 185.332 59.1771 186.423 59.1771H186.695C188.767 59.1771 189.022 58.3345 189.022 57.6876V57.3716C189.022 56.3787 188.349 55.8972 186.895 55.8972ZM186.441 58.2593C186.023 58.2593 185.278 58.2292 184.66 58.1841L184.478 58.169V56.9052L184.66 56.8902C185.278 56.83 185.823 56.815 186.386 56.815C187.713 56.815 187.931 57.0406 187.931 57.5371C187.913 58.0336 187.713 58.2593 186.441 58.2593ZM190.094 54.1068V59.0266H191.403V54.1068H190.094Z" fill="#3C3C3B"/>
<path d="M199.018 54.1063L195.383 57.7924V54.1063H194.075V59.0261H195.492L199.127 55.34V59.0261H200.418V54.1063H199.018ZM198.019 52.4814C198.019 52.6469 197.928 52.9328 197.292 52.9328H197.201C196.565 52.9328 196.474 52.662 196.474 52.4814H196.019C196.019 52.8275 196.165 53.2187 197.201 53.2187H197.292C198.346 53.2187 198.473 52.8275 198.473 52.4814H198.019Z" fill="#3C3C3B"/>
<path d="M216.285 58.1085V54.1064H214.995V58.1085H211.251V54.1064H209.942V59.0262H216.103V60.4405H216.231L217.212 59.959V58.1085H216.285Z" fill="#3C3C3B"/>
<path d="M225.028 55.0095V54.0918H219.339V59.0116H225.028V58.0938H220.647V57.0557H224.064V56.1379H220.647V55.0095H225.028Z" fill="#3C3C3B"/>
<path d="M232.552 54.1064V56.1526H228.826V54.1064H227.518V59.0262H228.826V57.0553H232.552V59.0262H233.861V54.1064H232.552Z" fill="#3C3C3B"/>
<path d="M236.06 54.1064V55.0242H238.532V59.0262H239.823V55.0242H242.313V54.1064H236.06Z" fill="#3C3C3B"/>
<path d="M248.056 53.9409H247.784C246.693 53.9409 245.548 54.0011 244.512 54.0914V59.0412H245.802V57.5969L246.039 57.627C246.639 57.7022 247.293 57.7022 247.965 57.7022H248.238C249.819 57.7022 250.564 57.1606 250.564 55.9871V55.6711C250.564 54.4825 249.765 53.9409 248.056 53.9409ZM247.711 56.7694C247.166 56.7694 246.62 56.7694 245.984 56.6942L245.802 56.6791V54.949L246.002 54.9339C246.62 54.8888 247.366 54.8587 247.765 54.8587C249.147 54.8587 249.256 55.2348 249.256 55.8216C249.256 56.3632 249.147 56.7694 247.711 56.7694Z" fill="#3C3C3B"/>
<path d="M253 49.1714H138.003V50.2095H253V49.1714Z" fill="#3C3C3B"/>
<defs>
<linearGradient id="paint0_linear_64_323" x1="53.2102" y1="30.3837" x2="129.001" y2="30.3837" gradientUnits="userSpaceOnUse">
<stop offset="2.02456e-07" stop-color="#5AB037"/>
<stop offset="1" stop-color="#168430"/>
</linearGradient>
<linearGradient id="paint1_linear_64_323" x1="138.958" y1="24.3454" x2="150.549" y2="48.6" gradientUnits="userSpaceOnUse">
<stop offset="2.02456e-07" stop-color="#5AB037"/>
<stop offset="1" stop-color="#168430"/>
</linearGradient>
<linearGradient id="paint2_linear_64_323" x1="167.898" y1="25.0182" x2="178.631" y2="47.4752" gradientUnits="userSpaceOnUse">
<stop offset="2.02456e-07" stop-color="#5AB037"/>
<stop offset="1" stop-color="#168430"/>
</linearGradient>
<linearGradient id="paint3_linear_64_323" x1="199.03" y1="25.337" x2="210.857" y2="50.0841" gradientUnits="userSpaceOnUse">
<stop offset="2.02456e-07" stop-color="#5AB037"/>
<stop offset="1" stop-color="#168430"/>
</linearGradient>
<linearGradient id="paint4_linear_64_323" x1="228.347" y1="29.2517" x2="239.255" y2="52.0757" gradientUnits="userSpaceOnUse">
<stop offset="2.02456e-07" stop-color="#5AB037"/>
<stop offset="1" stop-color="#168430"/>
</linearGradient>
</defs>
</svg>
