<svg width="52" height="68" viewBox="0 0 52 68" fill="none" xmlns="http://www.w3.org/2000/svg">
<path d="M16.6946 32.2803C13.3564 38.9588 9.78192 45.3804 6.73132 50.7952C6.14071 51.838 5.57065 52.9169 5.016 53.9572C3.8579 56.1405 2.65871 58.3984 1.23356 60.4764C1.12314 60.6357 0.789322 61.1212 1.19247 61.5681C1.44926 61.8506 1.81389 61.9174 2.28381 61.7607C2.63135 61.6574 2.95811 61.4939 3.24932 61.2778C4.14293 60.574 5.09046 59.9139 6.00719 59.2743C7.45598 58.3069 8.84039 57.2464 10.1517 56.0994L10.3032 55.9479C10.5292 55.7141 10.7269 55.5112 11.1044 55.6191C11.5703 58.6969 11.7269 61.8137 11.5717 64.9228C11.5381 65.5559 11.5381 66.1904 11.5717 66.8235C11.5974 67.2191 11.695 67.7662 12.2419 67.9461C12.3472 67.9808 12.4572 67.999 12.568 68C12.9481 68 13.2922 67.7688 13.5952 67.309C14.0112 66.6797 14.3655 66.0042 14.7199 65.3491L14.7481 65.2952C15.3462 64.0935 15.846 62.8454 16.2426 61.563C16.5824 60.4961 16.9837 59.4497 17.4444 58.4292C18.71 55.7575 19.6804 52.9557 20.3383 50.0734C20.8509 48.0246 21.4846 46.0081 22.236 44.0345C22.652 42.8786 23.0808 41.6841 23.4531 40.4897C24.2836 37.9626 25.2936 35.4981 26.4755 33.1151C27.0687 31.8821 27.4179 31.7306 28.6736 32.1673C29.6062 32.4618 30.5664 32.6607 31.5393 32.7606C31.8269 32.8017 32.1119 32.8402 32.3969 32.8839C33.9608 33.1408 34.1046 33.3668 34.3922 34.9209C35.5349 41.1088 36.0869 47.8104 36.0767 55.4085C36.0767 55.7937 36.0767 56.1791 36.0767 56.5618C36.0767 57.6329 36.0767 58.7374 36.0484 59.824C36.0463 60.7887 36.1253 61.7519 36.2847 62.7034C36.372 63.3405 36.4644 63.9878 36.5004 64.6479C36.504 64.8514 36.5803 65.0469 36.7155 65.1991C36.8506 65.3512 37.0357 65.45 37.2373 65.4776C37.4359 65.5056 37.6382 65.4693 37.8147 65.3741C37.9911 65.2789 38.1326 65.1298 38.2183 64.9484C38.4972 64.458 38.7285 63.9419 38.909 63.4072C39.402 61.8147 39.8745 60.1862 40.329 58.6116L40.46 58.1621C40.4908 58.0516 40.5165 57.936 40.5422 57.8204C40.6346 57.4069 40.7193 57.0164 41.1405 56.7133C42.183 57.2784 42.938 58.2263 43.6801 59.1433L43.9779 59.508C44.7637 60.4764 45.6496 61.3729 46.5073 62.2385C46.8205 62.5545 47.1338 62.8704 47.4522 63.2018C47.7706 63.5331 48.2226 63.9903 48.826 63.7746C49.4295 63.5588 49.4937 63.004 49.5373 62.5211C49.5373 62.4337 49.5527 62.3464 49.5656 62.2642C49.584 62.0319 49.5676 61.7981 49.5168 61.5707C49.5168 61.5142 49.4962 61.4576 49.4885 61.3986C49.4064 60.8643 49.3191 60.3274 49.2318 59.7931C49.0623 58.7657 48.8902 57.6791 48.7567 56.6183C48.4989 54.7578 48.1449 52.9119 47.6962 51.088C47.2905 49.3284 46.8719 47.5098 46.6357 45.6938C46.3789 43.7776 45.9937 41.8408 45.6085 39.9965C45.0927 37.708 44.7044 35.3927 44.4453 33.0611L44.4222 32.83C44.1808 30.2254 44.1654 30.1765 46.3224 28.5814L46.5201 28.4427C46.6316 28.3711 46.7387 28.2931 46.8411 28.209C49.4937 25.9408 51.0344 23.5469 51.6481 20.6931C52.0589 18.764 52.0153 16.817 51.9742 14.9341C51.9742 14.6156 51.9588 14.2997 51.9537 13.9812C51.9158 11.4772 51.066 9.05326 49.5322 7.07407C45.9218 2.376 41.4486 0 36.2205 0C36.0048 0 35.7891 0 35.5682 0C32.3115 0.0804743 29.1214 0.94013 26.2649 2.50701C25.8219 2.739 25.4095 3.02548 25.0375 3.35979C22.2617 6.04403 20.1355 8.45857 18.7797 11.5153C16.2965 17.1201 16.3684 21.4174 19.0108 25.4425C19.1609 25.6548 19.2505 25.9039 19.2699 26.1631C19.2894 26.4224 19.238 26.6821 19.1212 26.9144C18.3765 28.8511 17.4778 30.7108 16.6946 32.2803ZM37.6816 53.5462C37.6636 52.5932 37.661 51.6223 37.661 50.6847C37.661 49.349 37.661 47.9696 37.6071 46.6108C37.5121 44.0884 37.3503 41.8948 37.1346 39.9066C36.9549 38.3192 36.7007 36.7703 36.4336 35.1315C36.3232 34.4482 36.2102 33.7598 36.1023 33.0637C36.9064 32.7808 37.7315 32.5618 38.57 32.4087C39.8 32.1519 40.9633 31.9104 42.0418 31.2092C42.414 32.059 42.6398 32.9657 42.7094 33.8908C42.7248 34.0193 42.7402 34.1477 42.7582 34.271C42.8378 34.8695 42.9123 35.468 42.9867 36.0691C43.1973 37.7361 43.413 39.4597 43.7263 41.137C44.3991 44.7331 45.1309 48.3755 45.8371 51.8997C46.1503 53.4597 46.4619 55.0189 46.7717 56.5772C46.9489 57.4711 47.1056 58.4189 46.9335 59.3436C46.5689 59.4181 46.42 59.2229 46.2479 58.9763C46.1938 58.8989 46.1346 58.8251 46.0707 58.7554L45.326 57.9643C44.4401 57.019 43.5286 56.0455 42.6041 55.1028C42.2549 54.7437 41.8573 54.4351 41.4229 54.1858C41.28 54.0934 41.1199 54.031 40.9521 54.0023C40.7844 53.9736 40.6126 53.9792 40.4471 54.0188C40.2795 54.0737 40.1248 54.1622 39.9924 54.2788C39.8599 54.3953 39.7526 54.5376 39.6768 54.6969C39.1144 55.7658 38.7655 56.934 38.6497 58.1364C38.5987 58.9785 38.3102 59.789 37.8177 60.4738C37.6327 58.8953 37.5803 57.304 37.661 55.7167C37.6662 54.9692 37.6816 54.2654 37.6816 53.5462ZM20.0122 23.1051C19.3428 22.0585 18.9946 20.8386 19.0108 19.5963C18.926 14.9573 20.5515 10.796 23.9795 6.87885C25.9542 4.621 28.5041 3.18514 32.0015 2.36317C33.2732 2.05647 34.576 1.89786 35.8841 1.89053C37.5586 1.88639 39.2202 2.18486 40.7887 2.77157C46.895 5.04483 50.5593 10.1154 50.3513 16.0027C50.4438 21.3301 48.2637 25.3038 43.6749 28.155C41.1834 29.7023 38.3861 30.6908 35.4758 31.0525C32.7796 31.4146 29.9883 30.9189 27.1739 29.5832C24.3288 28.2347 21.9792 26.1155 20.0122 23.1051ZM21.0137 27.9855L21.1883 27.9084C21.6454 28.2321 22.0947 28.5968 22.5313 28.9513C23.2804 29.6029 24.0904 30.1809 24.9502 30.6774C25.0815 30.7572 25.1796 30.8815 25.2268 31.0278C25.274 31.174 25.2669 31.3323 25.207 31.4737C25.044 32.0016 24.8423 32.5167 24.6035 33.0149C22.2077 37.8517 20.2562 43.2125 18.2687 50.397C17.7388 52.4274 17.0643 54.4172 16.2503 56.3512C15.7496 57.4916 15.3156 58.6835 14.8971 59.8343C14.6762 60.4456 14.4528 61.0569 14.2217 61.6606C14.1913 61.7447 14.1656 61.8304 14.1447 61.9174C14.1296 62.0609 14.0774 62.198 13.9932 62.3151C13.909 62.4322 13.7957 62.5253 13.6645 62.5853L13.549 60.89C13.4385 59.3025 13.3255 57.6612 13.1997 56.0532C13.162 55.3479 13.0667 54.6469 12.9147 53.9572C12.7067 53.1018 12.4422 52.6728 12.057 52.529C11.9746 52.4997 11.8877 52.4849 11.8002 52.4853C11.4767 52.4853 11.0838 52.6754 10.5754 53.0736C9.99982 53.5388 9.4479 54.0326 8.92169 54.5531L8.39015 55.0668L8.16931 55.2723C7.41693 55.9813 6.64144 56.7133 5.64769 57.0858L5.62714 57.0678C5.60265 57.0439 5.58109 57.0172 5.56295 56.9882C5.55002 56.949 5.55002 56.9066 5.56295 56.8674C5.66053 56.6645 5.75554 56.4565 5.84798 56.2535C6.06524 55.7564 6.30867 55.2711 6.57725 54.7997C10.0772 48.9714 13.2228 42.8272 16.2657 36.8859C17.7474 33.9936 19.2778 31.0037 20.8314 28.0857C20.884 28.0374 20.9461 28.0007 21.0137 27.9778V27.9855Z" fill="#168430"/>
<path d="M35.8842 28.5302H36.2129C37.9097 28.3867 39.5506 27.8537 41.0078 26.9725C42.4651 26.0912 43.6994 24.8856 44.6149 23.4494C46.1813 21.0271 46.6897 18.1014 46.1685 14.5027C45.4906 9.80208 42.933 6.5553 38.5651 4.85485C33.5809 2.91295 27.8263 4.76495 25.1789 9.15735C25.0325 9.3988 24.8913 9.64026 24.7475 9.88428C24.4907 10.2978 24.2519 10.7268 23.9926 11.1378C22.57 13.3674 22.1822 15.7614 22.7728 18.6562C23.7691 23.6009 28.5864 28.5302 35.8842 28.5302ZM33.8608 5.95167C34.3878 5.95333 34.9137 6.00146 35.4323 6.09552C38.1927 6.58613 40.039 7.41581 41.4205 8.77977C44.0757 11.4075 45.0155 14.5438 44.2297 18.104L44.0372 18.9722C43.8651 19.7633 43.6854 20.5802 43.4851 21.3764C43.1744 22.6145 42.4579 23.6471 41.2896 24.5359C39.7489 25.7123 37.0013 26.6139 34.9906 26.6139H34.8571C34.7518 26.6139 34.6491 26.6139 34.5438 26.6139C29.2078 26.6139 24.6756 22.2241 24.1569 16.4832C24.0818 15.3754 24.3016 14.2675 24.7937 13.2723C25.6796 11.2919 26.6066 9.84319 27.7134 8.71812C29.5288 6.87896 31.5857 5.95167 33.8557 5.95167H33.8608Z" fill="#168430"/>
<path d="M31.3622 17.092L32.0221 17.6597C31.3365 18.6871 31.3904 19.8225 31.4444 20.9116C31.4444 21.0477 31.4444 21.1839 31.4623 21.3174C31.5111 22.5889 31.9322 22.9973 33.2598 23.0641C33.6655 23.0821 34.0713 23.0924 34.4795 23.0924C35.9668 23.0886 37.4511 22.9597 38.9168 22.7071C41.5951 22.2498 41.9109 21.8568 41.726 19.1829V19.093C41.7132 18.84 41.6866 18.5879 41.6464 18.3378C41.5642 17.8806 41.3896 17.2538 40.781 17.0971C39.7 16.8146 39.6897 16.0337 39.6794 15.1295V15.0525C39.6794 14.7956 39.6794 14.5105 39.6794 14.2408C39.6794 13.1979 39.664 12.1191 39.5742 11.0634C39.4663 9.8227 39.0606 9.53757 37.9513 9.30896C37.6483 9.24732 37.3427 9.19851 37.0371 9.14714C36.7316 9.09576 36.408 9.04439 36.0973 8.98017C35.6026 8.86769 35.0883 8.87498 34.597 9.00141C34.1057 9.12785 33.6517 9.36979 33.2727 9.7071C31.7525 10.9657 30.6868 12.5891 29.7624 14.1534C29.3926 14.7802 29.5236 15.4378 30.1219 15.9926C30.4917 16.3548 30.8974 16.6887 31.3622 17.092ZM37.7613 15.1321C37.7613 15.3119 37.7613 15.4917 37.7613 15.669C37.7613 16.1442 37.7613 16.6373 37.7613 17.1202C37.7407 17.9242 37.8717 18.7642 39.0041 18.9183C39.5382 18.9876 39.795 19.2702 39.7924 19.7788C39.7924 20.4004 39.3995 20.6162 38.8166 20.7523C37.3239 21.0941 35.7881 21.2084 34.2613 21.0914C33.7939 21.0554 33.5397 20.8474 33.4909 20.4518C33.4216 19.9663 33.6322 19.6504 34.1534 19.4603C34.1904 19.4482 34.2281 19.4387 34.2664 19.432L34.3486 19.414C34.5173 19.3735 34.6891 19.3469 34.8622 19.3344C35.3269 19.283 35.8097 19.2342 36.1255 18.7436C36.5646 18.0706 36.5056 17.3257 36.4465 16.6014V16.4344C36.4311 16.2341 36.426 16.0363 36.4183 15.8359C36.4155 15.4722 36.3872 15.1091 36.3335 14.7494C36.3169 14.5363 36.2474 14.3307 36.1312 14.1513C36.0151 13.9719 35.856 13.8243 35.6685 13.7219C35.5495 13.6698 35.4208 13.6436 35.291 13.6449C34.9993 13.6567 34.7171 13.7511 34.477 13.9171C34.2117 14.0924 33.9586 14.2855 33.7195 14.4951C33.5346 14.6518 33.3446 14.811 33.1494 14.9497C33.0083 15.0766 32.8296 15.1539 32.6406 15.1702C32.4516 15.1864 32.2624 15.1406 32.1017 15.0396C31.8013 14.8264 31.773 14.5259 32.0118 14.0507C32.6089 12.8822 33.5012 11.8904 34.6002 11.1738C35.3244 10.6935 36.2283 10.7346 37.2836 11.2971C37.5815 11.4564 37.7202 11.7646 37.7279 12.2963C37.7279 12.941 37.7279 13.596 37.7279 14.2305V15.1321H37.7613Z" fill="#168430"/>
</svg>
