<svg width="57" height="68" viewBox="0 0 57 68" fill="none" xmlns="http://www.w3.org/2000/svg">
<path fill-rule="evenodd" clip-rule="evenodd" d="M39.6711 16.8211C38.4734 16.1755 37.5287 15.1443 36.9901 13.8944C36.4515 12.6445 36.3505 11.2493 36.7037 9.93486C37.2925 7.91459 37.9711 5.91764 38.6199 3.91402C38.8315 3.33506 38.8648 2.7059 38.7153 2.10784C38.5659 1.50978 38.2406 0.9703 37.7815 0.559109C36.7835 -0.412747 35.7555 0.0731865 34.7209 0.585741C33.6863 1.0983 32.7049 1.51766 31.667 1.91705C30.0469 2.53278 28.3902 2.72581 26.9065 1.6175C24.641 -0.0765942 22.3123 0.0432206 20.0734 1.44775C18.4865 2.44624 17.2024 2.22991 15.8019 1.21146C14.6009 0.33945 13.3035 -0.386109 11.893 0.842025C10.6056 1.97031 10.6954 3.43475 11.1777 4.83596C11.8231 6.72642 12.6016 8.56695 14.082 10.0148C14.4579 10.3809 14.9769 10.8834 14.5876 11.4259C14.4213 11.6656 13.7693 11.6289 13.3468 11.599C11.4173 11.4659 9.58092 11.7055 7.91424 12.7672C6.73325 13.5227 5.69199 14.5612 6.19099 15.9923C6.66006 17.3236 8.03067 16.8477 9.11851 16.7012C9.63748 16.6347 10.3328 16.3684 10.5823 16.9808C10.8052 17.5367 10.1564 17.936 9.83375 18.3654C9.07526 19.3639 8.11716 20.6253 9.4545 21.5173C11.0214 22.5657 10.3827 23.1548 9.48445 23.9902C5.82505 27.4017 3.53627 31.6452 1.75315 36.2715C-0.0998312 41.0809 -0.123118 46.1765 0.0897919 51.0757C0.422464 58.5676 3.53627 64.056 11.883 65.8665C17.6416 67.1213 23.4533 67.9667 29.3749 67.9966C36.9033 67.8502 44.1256 66.9382 50.2002 61.6729C54.4151 58.0118 56.8935 53.5619 56.9867 48.1335C57.2328 34.4443 52.3625 23.4277 39.6711 16.8211ZM13.0873 4.65955C12.8977 4.0305 12.6615 3.25835 13.1771 2.75578C13.8059 2.13672 14.3614 2.88558 14.9103 3.14185C17.239 4.22354 18.1239 6.37029 18.9024 8.60023C19.0255 8.95303 18.9789 9.62866 19.6476 9.37904C20.1 9.21263 20.1732 8.71338 20.0934 8.25408C20.0135 7.79478 19.9004 7.38874 19.8206 6.95273C19.3049 4.07378 19.7108 3.36484 22.2457 2.69586C24.295 2.15002 26.464 3.43142 27.0761 5.61809C27.2817 6.48167 27.4383 7.35618 27.5452 8.23744C27.5984 8.57027 27.6949 8.87647 28.0808 8.9031C28.1644 8.90744 28.2479 8.89411 28.326 8.86399C28.4041 8.83387 28.4749 8.78765 28.5339 8.7283C28.5929 8.66894 28.6388 8.59781 28.6685 8.51955C28.6981 8.44128 28.711 8.35763 28.7062 8.27405C27.9145 4.70281 30.6823 4.18027 32.9678 3.32491C34.0556 2.91886 35.1667 1.6408 36.3244 2.49284C37.7383 3.53459 36.381 4.93246 36.2579 6.15394C36.1285 6.80647 35.9369 7.44508 35.6857 8.06104C34.0722 13.2265 33.5965 13.5727 28.174 13.546C25.0369 13.7324 22.0594 12.7073 18.9922 12.3212C18.5797 12.268 18.0441 12.1249 17.8179 11.8286C16.0614 9.55876 13.9589 7.50522 13.0873 4.65955ZM29.9305 16.5714C29.7841 17.1572 29.2385 17.0574 28.8626 17.1006C27.7714 17.2271 26.6636 17.2571 25.5658 17.3236C25.5658 17.2837 25.5658 17.2438 25.5658 17.2038C25.3434 17.2058 25.1211 17.1925 24.9005 17.1639C23.5199 16.9143 21.9863 17.3969 20.7853 16.3018C22.0894 15.7727 23.3802 16.4516 24.6876 16.3584C25.995 16.2653 27.3489 16.3584 28.6796 16.3817C29.1002 16.4177 29.5181 16.4811 29.9305 16.5714ZM14.9137 16.1088C15.3328 16.0689 15.5025 16.2786 15.426 16.6779C15.2297 17.6764 12.8045 19.7733 11.7998 19.8298C11.4306 19.8498 11.1345 19.7699 11.2276 19.3006C11.3541 18.5784 14.1119 16.182 14.9137 16.1088ZM8.92556 14.6544C8.90913 14.5495 8.93035 14.4422 8.98544 14.3515C9.8271 13.3197 11.0513 13.383 11.9795 13.2299C12.3737 13.2317 12.7669 13.2707 13.1538 13.3463C13.4366 13.4395 13.8192 13.6159 13.9023 13.8456C14.062 14.2982 13.5697 14.265 13.3135 14.3182C12.891 14.4081 12.4486 14.4147 12.0294 14.5112C11.0247 14.7409 10.0034 15.1536 8.93886 14.6444L8.92556 14.6544ZM55.473 44.1961C56.4544 54.567 50.7225 60.761 41.5573 64.2656C37.898 65.6668 33.9691 65.8166 29.4082 65.7101C24.3416 66.2526 18.7826 64.9546 13.207 64.046C7.40525 63.1041 3.22689 59.1501 2.41517 53.3056C0.891531 42.3989 2.61144 32.3541 11.1744 24.3962C13.1172 22.5956 14.7639 20.4622 16.4539 18.4053C17.1193 17.5832 17.7613 17.3602 18.7327 17.7397C24.0754 19.8764 29.3782 19.5602 34.5812 17.297C34.8842 17.1639 35.2133 17.1011 35.544 17.1132C35.8746 17.1253 36.1983 17.2121 36.4908 17.3669C44.7776 21.0879 50.9254 26.8092 53.5468 35.7656C54.3519 38.5381 55.1969 41.2706 55.473 44.1961Z" fill="#168430"/>
<path fill-rule="evenodd" clip-rule="evenodd" d="M33.3836 35.0367C32.685 34.7804 32.3856 34.6739 32.6218 33.7054C33.3969 30.6833 33.0177 29.8013 30.1733 28.5299C29.0156 28.0107 28.6297 27.4981 28.8094 26.3366C28.8914 25.7849 28.8914 25.2241 28.8094 24.6724C28.6497 23.6074 28.3037 22.6755 26.8965 23.0782C25.6723 23.411 24.4081 23.7438 25.1367 25.5078C25.3096 25.9159 25.4552 26.3351 25.5725 26.7626C25.8619 27.8509 25.333 28.5232 24.3183 28.6796C23.4134 28.8161 23.3835 27.9308 23.2205 27.3483C23.0675 26.8225 23.1307 26.2334 22.971 25.7108C22.6383 24.5892 21.8831 24.7589 21.2045 25.358C20.6024 25.8906 20.1765 26.5995 20.609 27.4282C21.6503 29.4252 21.0914 30.9263 19.8638 32.7934C17.4619 36.4545 18.4932 39.0972 22.3988 40.3153C23.2937 40.5949 23.7095 41.0176 23.8958 41.823C24.1719 43.0112 24.4148 44.2061 24.7009 45.3909C25.0169 46.7222 24.4314 46.9885 23.277 46.6856C22.959 46.5884 22.6327 46.5204 22.3023 46.4826C19.4779 46.2629 17.7647 47.5177 17.5884 49.924C17.3555 53.0992 18.8159 54.7567 21.9563 54.8399C22.6237 54.8937 23.2953 54.8556 23.9524 54.7267C25.669 54.2907 26.2811 54.8599 26.4507 56.6571C26.6004 58.3612 28.1141 58.957 29.1953 58.0151C29.8939 57.4027 29.7209 56.6205 29.651 55.8217C28.8426 54.4272 29.8573 54.131 30.8886 53.878C32.033 53.5985 32.1427 54.3939 32.2392 55.2093C32.3357 56.0248 32.2725 57.2063 33.5699 57.0399C33.7967 57.0212 34.0172 56.9553 34.2171 56.8464C34.4169 56.7375 34.5919 56.588 34.7306 56.4075C34.8694 56.227 34.9689 56.0195 35.0228 55.7982C35.0767 55.577 35.0838 55.3469 35.0436 55.1228C34.4947 52.5301 35.9485 50.7961 37.2193 48.849C40.1701 44.266 40.7922 37.7559 33.3836 35.0367ZM33.0143 51.0357C30.353 52.4069 27.512 52.6632 24.6244 52.9195C23.6263 52.9195 22.6283 52.996 21.6303 52.9195C20.1599 52.7797 19.1785 51.6448 19.3316 50.2203C19.4946 48.6693 20.5824 48.2033 21.953 48.443C23.5864 48.7259 25.1766 49.265 26.8167 49.4847C30.9851 50.0505 33.6797 47.5077 33.4701 43.3274C33.347 40.8678 31.3044 38.7643 28.48 38.4415C26.8366 38.2518 25.1533 38.4248 23.49 38.3483C20.7421 38.2185 20.3529 37.6826 21.0115 35.0899C21.8632 31.7284 25.4427 29.322 28.8393 29.8445C29.2757 29.9057 29.6992 30.0372 30.0935 30.234C30.3507 30.347 30.5636 30.5415 30.6994 30.7874C30.8353 31.0334 30.8866 31.3172 30.8453 31.5952C30.7289 32.394 30.0635 32.211 29.5579 32.2043C28.2272 32.1843 26.8965 32.1344 25.792 33.1229C24.6876 34.1114 24.7308 35.0167 26.0116 35.7423C27.0096 36.3114 28.1074 36.4079 29.2352 36.3613C30.4528 36.3247 31.667 36.2948 32.8513 36.7241C35.5659 37.7226 37.7416 40.1023 37.6817 42.4854C37.6052 46.0766 36.5107 49.2185 33.0143 51.0357ZM29.355 47.4112C27.8845 47.6342 27.8579 46.1831 27.6916 45.0814C27.5286 44.1095 27.1926 43.1677 27.0263 42.1958C26.9231 41.5301 26.3609 40.5882 27.6018 40.3686C28.5266 40.2088 29.355 40.4251 29.7974 41.3937C30.2731 42.4321 30.1767 43.5471 30.2299 44.7419C29.9937 45.5973 30.9451 47.1716 29.3716 47.4112H29.355Z" fill="#168430"/>
</svg>
