<svg width="166" height="140" viewBox="0 0 166 140" fill="none" xmlns="http://www.w3.org/2000/svg">
<path d="M63.9081 85.0527C65.5375 86.27 67.0917 87.5847 68.5623 88.9897C68.7304 89.1514 68.9085 89.3026 69.0954 89.4422L69.3176 89.62L69.3812 89.6567C69.6421 89.831 69.9412 89.9399 70.2531 89.9744C70.565 90.0088 70.8807 89.9678 71.1734 89.8547C71.4502 89.7132 71.6881 89.5061 71.8665 89.2515C72.0449 88.9969 72.1582 88.7026 72.1967 88.3941C72.4913 86.7404 72.6128 85.0605 72.5592 83.3816C72.5232 81.2424 72.487 79.3361 72.5579 77.3787C72.6104 75.8874 72.6516 75.1556 73.021 74.8216C73.3903 74.4876 74.1698 74.5563 75.6316 74.6906C80.5864 75.1469 85.6177 75.6544 90.4844 76.141C92.5931 76.3534 94.7059 76.567 96.8227 76.7817L97.1116 76.8073C98.6776 76.9629 100.244 77.1186 101.797 77.2529C102.132 77.284 102.917 77.3557 103.214 76.6338C103.537 75.8108 102.894 75.39 102.421 75.0848C102.156 74.9319 101.891 74.7791 101.626 74.6262L101.539 74.5757C99.4617 73.4401 97.0486 72.0364 94.8909 70.1904L94.6159 69.9574C93.8348 69.2477 92.9948 68.6057 92.105 68.0382C89.7432 66.6252 87.4412 64.9925 85.2429 63.4126C83.8516 62.4222 82.4104 61.396 80.9629 60.4296L80.581 60.1738C78.5467 58.8051 76.4648 57.4089 73.7148 58.4233C73.5938 58.4533 73.4687 58.4634 73.3445 58.4532L73.2444 58.4554C71.7856 58.4993 71.6949 58.4117 71.5557 56.8978C71.4319 55.5589 71.322 54.1961 71.2216 52.8777C71.1213 51.5594 71.0104 50.2349 70.8896 48.9153C70.8614 48.6095 70.8221 48.3044 70.7844 47.9966C70.6533 46.9641 70.531 45.9896 70.7888 44.9804C70.8503 44.7819 70.8706 44.5729 70.8485 44.3662C70.8265 44.1595 70.7626 43.9595 70.6606 43.7784C70.5587 43.5972 70.4209 43.4388 70.2556 43.3127C70.0903 43.1867 69.9011 43.0956 69.6995 43.0452C68.4366 42.5945 67.2126 42.0413 66.0398 41.3913C65.2467 40.9793 64.4256 40.5546 63.5856 40.1933C61.4953 39.3007 58.7905 38.0355 56.4211 36.2015C55.6565 35.6118 54.9195 35.3593 54.2315 35.4564C53.8751 35.5256 53.5366 35.6666 53.2365 35.8709C52.9364 36.0753 52.6811 36.3386 52.4862 36.6448C52.025 37.2069 51.4385 37.6531 50.7737 37.9475L46.976 39.9634C42.1324 42.5371 37.1128 45.2139 32.1666 47.7636C30.646 48.5628 29.0754 49.3507 27.5637 50.1162C21.6776 53.1013 15.5886 56.181 10.0306 59.9981C9.4 60.4082 8.73854 60.7688 8.05219 61.0766L7.84353 61.1751C5.87857 62.1337 4.07048 63.3849 2.481 64.8861C2.18537 65.1369 1.95961 65.4598 1.82568 65.8236C1.69175 66.1874 1.65419 66.5796 1.71665 66.9622C1.77732 67.2281 1.89414 67.478 2.05924 67.6951C2.22435 67.9122 2.43393 68.0915 2.67398 68.221C2.81605 68.3014 2.96516 68.3685 3.11947 68.4217C4.30804 68.8298 5.52187 69.1603 6.75329 69.4111C15.4501 71.1769 22.7114 72.6224 29.5843 73.9883C32.1215 74.4859 34.6669 75.1222 37.1301 75.7358C38.1886 75.9939 39.2498 76.2534 40.3056 76.51C44.9548 77.6301 49.9155 78.743 56.4291 80.1381C57.8833 80.4191 59.2335 81.0912 60.3343 82.0821C61.4723 83.1381 62.7082 84.1163 63.9081 85.0527ZM68.1779 59.0609C67.5288 59.184 66.8718 59.2612 66.2119 59.2922C61.8398 59.5571 57.4392 60.1588 53.181 60.7402C50.851 61.0578 48.4393 61.3884 46.0629 61.6581C42.5871 62.0523 39.0308 62.3046 35.5929 62.5475L34.3383 62.6353C32.7013 62.7493 31.021 62.8772 29.4264 63.0158C24.579 63.3947 19.5554 63.8096 14.6016 63.7917C14.2743 63.7899 13.9477 63.799 13.6212 63.8082C15.5678 62.7113 17.7021 62.0723 19.768 61.4538C20.5059 61.2337 21.2703 61.0043 22.0151 60.7599C23.8573 60.1499 25.7541 59.6104 27.5908 59.0891C30.969 58.1302 34.4588 57.1369 37.7424 55.6751C38.5352 55.3492 39.3516 55.084 40.1846 54.882C40.6342 54.7637 41.1004 54.641 41.5516 54.4955L53.3256 50.7542C57.99 49.2716 62.6544 47.789 67.3188 46.3064C67.4716 46.2634 67.6284 46.2357 67.7867 46.2235L67.9742 46.2047C68.4302 46.6868 68.5068 47.2818 68.5897 47.9087C68.6121 48.0841 68.6344 48.2594 68.6651 48.4325C68.9366 50.1445 69.0718 51.8754 69.0695 53.6088C69.1008 54.9367 69.1337 56.3045 69.2901 57.6482C69.402 58.659 69.1417 58.8653 68.1779 59.0609ZM9.8087 66.2287C9.94255 66.2353 10.0722 66.2431 10.1959 66.2369C12.6453 66.0999 15.0925 65.9746 17.5377 65.8611C19.6782 65.7576 21.8158 65.6489 23.9505 65.535C25.1268 65.4728 26.322 65.3719 27.4788 65.2701L28.9409 65.1469L41.4101 64.1337L42.7494 64.0278C43.7828 63.9501 44.8508 63.8676 45.901 63.7608C47.4718 63.6085 49.0774 63.4021 50.6229 63.2141L51.6251 63.0865C53.5285 62.8474 55.4851 62.5895 57.3583 62.3293C61.651 61.7431 66.0888 61.1382 70.4949 60.8999C71.2891 60.84 72.0784 60.7272 72.8577 60.5623C73.2262 60.4926 73.5948 60.423 73.9641 60.3643C75.1064 60.1836 76.2242 60.4123 77.4754 61.0888C80.1216 62.5106 82.6016 64.2814 84.9993 65.987C85.7494 66.5224 86.5009 67.0553 87.2571 67.5801C87.4938 67.745 87.7247 67.9136 87.9599 68.0812C88.5267 68.5181 89.1253 68.9121 89.7508 69.2599C91.2135 70.0802 92.6033 71.0243 93.9048 72.0819C94.886 72.8285 95.8703 73.5697 96.9296 74.2484C97.1626 74.3829 97.223 74.5413 97.148 74.7629C96.9171 75.0038 96.6124 74.9444 96.2578 74.8738C96.1536 74.8525 96.0494 74.8312 95.9379 74.8163C85.1886 73.4683 74.2952 72.4432 64.0579 71.5109C60.607 71.1956 57.0862 70.9706 53.6856 70.7514C51.6795 70.6241 49.6014 70.4871 47.5678 70.3403C46.2476 70.2419 44.9018 70.1145 43.6023 69.9927C42.371 69.875 41.0946 69.7559 39.84 69.66C38.9127 69.5907 37.9723 69.5562 37.0607 69.5206C36.253 69.4886 35.4139 69.456 34.5911 69.4012L30.5347 69.1317C26.2132 68.8504 21.7445 68.5547 17.3606 68.1491C15.418 67.9322 13.4879 67.6156 11.5778 67.2006C10.7969 67.0428 10.017 66.8892 9.23526 66.745C9.09846 66.706 8.971 66.6397 8.86066 66.5499L8.76268 66.4933C9.05799 66.1837 9.42916 66.2073 9.8087 66.2287ZM28.5174 71.0846C28.6234 71.109 28.7307 71.1273 28.8388 71.1395L33.356 71.4243C38.2648 71.734 43.3375 72.0536 48.3186 72.4156C53.1112 72.7676 57.9828 73.1723 62.6937 73.562L68.5295 74.0396C68.6645 74.0505 68.8001 74.0723 68.9358 74.0942L69.2648 74.1358C69.4613 74.1515 69.6525 74.2077 69.8261 74.301C70.1518 74.4891 70.2971 74.8307 70.2796 75.3502C70.2501 76.869 70.2331 78.3844 70.2172 79.904L70.2107 80.6064L70.2028 82.0388C70.2021 82.9634 70.1993 83.9221 70.1713 84.8451L70.168 84.9915C70.1527 85.544 70.1376 86.1144 69.5183 86.5512C68.2485 85.3764 66.8945 84.2961 65.467 83.3189C63.9899 82.31 62.593 81.1884 61.2889 79.964C60.2879 78.9765 59.0805 78.4136 57.2453 78.0884C54.4342 77.5881 51.6026 76.9031 48.867 76.2416L46.5037 75.6751C42.3862 74.7102 38.2753 73.7278 34.1709 72.728L27.6861 71.173C27.9597 70.9744 28.2196 71.0256 28.5174 71.0846ZM65.1376 45.033L64.884 45.1055C60.0744 46.6113 55.191 48.1593 50.4667 49.658C38.0619 53.5929 25.2409 57.6618 12.4899 61.3156C16.8126 58.1093 21.653 55.6327 26.3369 53.2316C27.1418 52.816 27.9458 52.3999 28.7489 51.9832C32.8734 49.8417 37.2651 47.5615 41.6456 45.3066C43.777 44.2139 45.9038 43.0375 47.9656 41.8941C49.7099 40.9275 51.5177 39.9306 53.3185 38.9825C54.2407 38.4981 55.013 38.2979 56.0143 38.8018C58.0554 39.8284 60.1391 40.8302 62.1774 41.8129C63.3473 42.3753 64.5166 42.9409 65.6852 43.5097L65.7832 43.5663C65.9304 43.6358 66.0547 43.7459 66.1415 43.8836C66.2284 44.0213 66.2742 44.1809 66.2735 44.3437C66.0197 44.7832 65.5887 44.9121 65.1376 45.033Z" fill="#5AB037"/>
<path d="M106.102 67.6316C105.204 69.8777 105.455 71.6147 106.89 73.1036C107.139 73.3621 107.423 73.5852 107.733 73.7665C108.755 74.3567 109.898 74.3636 110.927 74.3117C112.11 74.2498 113.012 73.8807 113.615 73.2087C114.219 72.5366 114.493 71.5969 114.43 70.4096C114.332 68.8896 113.96 67.4 113.332 66.0121C113.26 65.8616 113.176 65.7173 113.08 65.5806C112.864 65.2512 112.676 64.9659 112.818 64.5785C112.858 64.5522 112.898 64.5258 112.935 64.4979C113.001 64.4417 113.078 64.4005 113.161 64.3772C118.307 63.8354 123.187 64.3543 127.666 65.9163C128.285 66.1687 128.871 66.4985 129.408 66.8976L129.588 67.0016C129.779 67.1183 129.917 67.3049 129.973 67.5217C130.029 67.7386 129.999 67.9687 129.888 68.1634C129.603 68.7614 129.285 69.3546 128.977 69.932L128.739 70.3808C127.488 72.7372 127.632 75.1787 129.163 77.6378C130.266 79.3972 132.997 80.6844 134.904 80.3481C136.161 80.1277 136.755 79.588 136.891 78.5442C137.277 75.5892 137.413 72.137 135.589 68.9659C135.393 68.6268 135.203 68.2838 134.99 67.9135L134.736 67.4667C135.734 66.6979 136.748 66.5984 137.731 66.4985C137.86 66.4885 137.988 66.4743 138.109 66.4555C141.425 66.1201 144.772 66.2518 148.051 66.8468C152.469 67.6037 156.135 69.4662 158.956 72.3835C160.179 73.6473 161.108 74.7703 161.717 76.1629C161.841 76.4498 162.169 77.2147 163.002 76.9936C163.836 76.7724 163.815 75.9588 163.775 75.4345C163.707 74.8232 163.464 74.2448 163.074 73.7691L162.654 73.1945C162.124 72.425 161.539 71.6945 160.904 71.0087C157.115 67.1332 152.31 64.8818 146.624 64.3104C145.809 64.2286 144.978 64.2007 144.174 64.1743C143.585 64.1554 142.971 64.1363 142.374 64.095C139.659 63.9047 136.496 63.8792 133.46 65.1874C133.066 65.3759 132.629 65.4555 132.193 65.4178C131.758 65.3801 131.341 65.2265 130.985 64.9731C130.083 64.3445 129.096 63.8471 128.053 63.4957C121.88 61.7252 116.676 61.3087 111.684 62.1899C110.742 62.3526 110.139 62.241 109.677 61.8009C108.49 60.6886 107.038 60.0302 105.636 59.394C105.02 59.1159 104.383 58.8256 103.777 58.5043C100.929 56.9799 97.8087 56.9543 94.7975 56.9352L93.9499 56.9295C93.7765 56.921 93.6031 56.947 93.4399 57.0061C93.2766 57.0652 93.1268 57.1562 92.9991 57.2738C92.8861 57.3867 92.7978 57.5219 92.7398 57.6707C92.6818 57.8196 92.6554 57.9789 92.6622 58.1385C92.6626 58.8166 93.1105 59.2517 93.9231 59.3608C94.4284 59.4368 94.9408 59.4542 95.4501 59.4127C99.5884 59.0269 103.232 60.7278 106.339 62.3238C106.779 62.5815 107.184 62.895 107.544 63.2565L107.869 63.55C108.339 63.959 108.35 64.4104 107.929 64.9083C107.176 65.711 106.559 66.6308 106.102 67.6316ZM110.618 72.2973C110.319 72.3397 110.015 72.3225 109.723 72.2467C109.431 72.1708 109.157 72.0379 108.917 71.8554C108.69 71.6844 108.501 71.4688 108.361 71.222C108.22 70.9752 108.132 70.7023 108.101 70.4201C108 69.538 108.236 68.6505 108.762 67.9351L108.809 67.853C109.236 67.1704 109.803 66.5866 110.473 66.1405C111.478 67.3461 111.718 68.692 111.953 70.0212C112.025 70.3009 112.04 70.5923 111.997 70.8779C111.953 71.1634 111.852 71.4372 111.7 71.6827C111.571 71.8538 111.409 71.9967 111.223 72.1024C111.037 72.2081 110.831 72.2744 110.618 72.2973ZM131.79 69.8721C131.86 69.7512 131.957 69.6476 132.072 69.569C132.188 69.4904 132.32 69.4387 132.458 69.4177C132.583 69.4189 132.706 69.4542 132.812 69.5198C132.967 69.6161 133.105 69.7373 133.22 69.8785C134.153 70.9893 134.426 72.4002 134.558 73.504C134.667 74.7064 134.677 75.9156 134.589 77.1197L134.585 77.2125C134.596 77.3817 134.57 77.5512 134.507 77.7087C134.444 77.8662 134.347 78.0075 134.222 78.1223C134.079 78.2037 133.92 78.2523 133.756 78.2645C133.592 78.2767 133.427 78.2522 133.274 78.1928C133.069 78.1335 132.868 78.061 132.672 77.9758L132.517 77.9144C131.068 77.0535 130.069 74.9017 130.332 73.2107C130.544 71.9973 131.048 70.8536 131.8 69.8782L131.79 69.8721Z" fill="#5AB037"/>
</svg>
