<svg width="55" height="56" viewBox="0 0 55 56" fill="none" xmlns="http://www.w3.org/2000/svg">
<path d="M7.46943 32.8679C7.24523 32.8405 7.01763 32.8063 6.79004 32.7721C6.27987 32.6798 5.76274 32.6318 5.2444 32.6285C2.57439 32.7106 1.01519 33.9653 0.329007 36.5774C-0.615349 40.1877 0.475096 43.5519 3.57652 46.5742C6.29409 49.2238 8.33228 48.7725 10.7577 47.1861C10.9679 47.0404 11.1697 46.8828 11.3623 46.7143C11.8447 46.3006 12.3407 45.8767 13.1559 45.8323L13.4617 46.94C13.7538 48.0032 14.0527 49.087 14.3381 50.1708C14.3788 50.3247 14.4162 50.4853 14.4502 50.646C14.5793 51.2375 14.7152 51.8529 15.167 52.3042C16.1453 53.282 16.8077 54.4649 17.5075 55.7231L17.6637 56L17.7724 55.9726C19.3277 55.5912 20.9377 55.4893 22.5282 55.6718C24.0338 55.7823 25.546 55.581 26.9714 55.0803C28.7064 54.548 30.1699 53.3615 31.0561 51.7687C31.9423 50.1759 32.1828 48.3001 31.7272 46.5331C31.5675 45.9041 31.3535 45.2784 31.1462 44.6733C30.939 44.0681 30.7182 43.4322 30.562 42.8031C30.5076 42.5877 30.4397 42.3723 30.3718 42.1535C30.1034 41.2886 29.8249 40.3962 30.3718 39.3159C30.9104 39.6812 31.3577 40.1669 31.6789 40.7351C32 41.3033 32.1863 41.9385 32.2231 42.5911C32.3794 43.9929 33.2082 44.8374 34.6825 45.104C37.3797 45.5861 40.9125 45.9348 44.3163 44.3279C46.613 43.2913 48.7871 41.9989 50.7977 40.4749C53.3217 38.5056 54.7144 36.297 54.9284 33.9175C55.2443 30.4063 54.514 26.8233 52.7544 23.2677C52.3128 22.3753 51.4703 21.4933 50.424 21.7086C49.979 21.7975 49.5102 21.8591 49.0652 21.9172C47.4449 22.1292 45.7736 22.348 44.5711 23.9207C43.552 25.2882 41.9928 25.8831 39.7134 25.8557C38.572 25.8387 37.7907 25.2643 37.3355 24.1019C36.8804 22.9394 37.5156 22.1736 38.2017 21.5651C39.1137 20.7972 40.1661 20.2164 41.2998 19.8556C43.338 19.124 44.7273 18.2864 45.8619 17.1205C46.8402 16.1256 47.1562 15.1581 46.881 13.9752C46.0454 10.2315 44.7104 6.53567 43.535 3.27748C42.7265 1.03812 40.9329 -0.0901064 38.341 0.00562216H38.2323C37.7032 0.00851087 37.1755 0.0611597 36.6562 0.162888C33.1199 0.966324 30.3548 1.92361 27.9633 3.17834C26.6691 3.86212 25.7145 4.86043 24.7735 5.91344C23.9787 6.81261 23.8394 7.76305 24.3422 8.90837C24.4475 9.15111 24.5494 9.39728 24.6547 9.64002C25.0677 10.705 25.5819 11.7274 26.1901 12.6931C26.9626 13.8354 27.3333 15.2049 27.2431 16.5838C27.2352 17.0764 27.1097 17.5599 26.8774 17.9937C26.6451 18.4274 26.3127 18.7986 25.9082 19.0761C25.4326 19.418 25.0997 19.565 24.8313 19.5103C24.5629 19.4556 24.3421 19.2402 24.067 18.7992C23.7189 18.2634 23.4318 17.69 23.2109 17.0898C22.6651 15.6567 22.0039 14.2708 21.2339 12.9461C21.0233 12.5666 20.8161 12.1871 20.6123 11.8042C18.9715 8.72717 16.0162 7.64339 12.9046 9.01094C10.954 9.89375 9.05233 10.8821 7.20786 11.9717C3.81089 13.9512 3.22662 15.5307 4.57521 19.3359C5.11533 20.8642 5.7098 22.4129 6.27369 23.8865C6.75606 25.1378 7.25882 26.4335 7.7242 27.719C8.17148 28.9368 8.53025 30.1857 8.79765 31.4559C8.91315 32.0371 8.87575 32.4268 8.68213 32.6422C8.4885 32.8576 8.08428 32.9397 7.46943 32.8679ZM27.0597 51.4939C27.1735 51.4225 27.2764 51.335 27.3654 51.2341C28.6291 49.5999 28.9246 47.9417 28.2656 46.1605C27.9599 45.3228 27.6882 44.451 27.4266 43.6168L27.3994 43.5348C27.1726 42.8854 27.1348 42.1844 27.2907 41.5142C28.1535 43.7296 28.8941 45.6613 29.2813 47.6682C29.621 49.4768 28.8941 50.7452 26.7404 51.9589C26.7098 51.7572 26.8321 51.6512 27.0665 51.4939H27.0597ZM10.7271 35.9278C11.0906 35.6508 11.308 35.1756 11.4065 34.4713C11.5568 33.2498 11.5075 32.0118 11.2605 30.8063C10.758 28.6622 10.1053 26.5566 9.3072 24.5053L9.26304 24.3822C8.78407 23.0591 8.33227 21.7018 7.90425 20.389C7.56456 19.4248 7.26223 18.4607 6.92932 17.5034C6.76025 17.0952 6.73547 16.641 6.85912 16.2166C6.98277 15.7922 7.24738 15.4234 7.60872 15.1718C8.87182 14.0939 10.3 13.2292 11.8379 12.611C12.857 12.2144 13.3971 12.3751 14.0901 13.2948C14.7831 14.2145 15.1092 15.247 15.4489 16.2795L15.5406 16.5598C15.6255 16.8197 15.7037 17.0761 15.7852 17.3359C16.1142 18.519 16.5638 19.6648 17.127 20.7548C18.5334 23.2745 20.1843 24.0198 22.8339 23.3155C24.4555 22.8689 25.9932 22.1574 27.3858 21.2095C29.5973 19.7462 30.3378 17.6744 29.7127 14.6965C29.474 13.483 29.0033 12.3277 28.3268 11.2948C28.0116 10.8436 27.7343 10.3667 27.4979 9.86908C26.7404 8.15964 27.1141 6.88782 28.6393 5.96472C30.7216 4.70316 32.4405 3.99203 34.2171 3.65015C35.2668 3.45185 36.0209 3.66724 36.595 4.33392C38.2289 6.25191 39.3431 8.69982 39.992 11.8144C40.0484 12.0611 40.0096 12.3201 39.8835 12.5391C39.7573 12.7581 39.5533 12.9206 39.3126 12.9939L39.2344 13.0281C39.1854 13.0523 39.1343 13.0718 39.0816 13.0862C34.9713 13.9786 34.4685 17.4111 34.0269 20.4437C33.9635 20.986 33.951 21.5332 33.9895 22.0779V22.4198C34.1186 26.4575 36.2621 28.5054 40.3656 28.5054H40.5117C42.0471 28.6524 43.6199 27.9652 45.0976 27.2472C45.6649 26.9703 46.0555 26.9053 46.3239 27.0353C46.5923 27.1652 46.7825 27.5071 46.9218 28.1122C47.3532 30.0028 47.6453 31.9482 47.8763 33.5995C48.0597 34.9055 47.5366 36.0645 46.3103 37.1483C43.4682 39.6849 39.9153 41.2734 36.1398 41.6954C35.2124 41.798 34.6995 41.5176 34.319 40.6697C33.8735 39.6353 33.3464 38.6383 32.7428 37.6885C31.5064 35.8355 30.3004 35.5551 28.303 36.6628C25.1132 38.4167 24.0704 40.9193 25.12 44.3143C25.3941 45.2032 25.6624 46.0944 25.9251 46.9878C26.1731 47.8323 26.2139 49.0016 25.0114 49.7879C23.6526 50.6768 22.2089 51.4973 20.8127 52.27L20.473 52.4649C19.9906 52.7384 19.4539 52.6803 18.7745 52.2803C18.2656 51.9892 17.8242 51.5922 17.4798 51.1159C17.1353 50.6395 16.8958 50.0947 16.7771 49.5178C16.3967 47.887 16.0264 46.222 15.6697 44.6117L15.5474 44.0613C15.5033 43.863 15.4693 43.6613 15.4353 43.4596C15.3855 43.1028 15.3071 42.7506 15.2009 42.4065C14.9801 41.7228 14.5895 41.3159 14.1037 41.2133C14.0268 41.1958 13.9482 41.1867 13.8693 41.186C13.6325 41.2025 13.4016 41.2681 13.1911 41.3787C12.9807 41.4894 12.7952 41.6426 12.6464 41.8287C12.4249 42.0744 12.2174 42.3323 12.0248 42.6014C11.7925 42.9384 11.5298 43.2531 11.2401 43.5416C9.65367 45.0322 8.31188 45.6545 7.12973 45.4596C5.94759 45.2647 4.84696 44.2014 3.80749 42.2287C3.23001 41.1347 3.00583 39.8595 3.10434 38.215C3.16549 37.1586 3.46782 36.403 4.00454 35.9654C4.54126 35.5278 5.3633 35.3842 6.43334 35.5517C6.89951 35.6298 7.36109 35.7337 7.81593 35.8628C8.24734 35.9756 8.69235 36.0919 9.14075 36.1671C9.84732 36.2867 10.3636 36.2081 10.7339 35.9278H10.7271ZM21.2203 20.5428C21.1259 20.6343 21.0102 20.7004 20.8837 20.735C20.7573 20.7697 20.6242 20.7718 20.4968 20.7411C20.2892 20.7042 20.0914 20.6244 19.916 20.5067C19.7406 20.389 19.5914 20.236 19.4777 20.0573L19.3044 19.777C19.0149 19.3351 18.7627 18.8697 18.5503 18.3855C18.2922 17.7462 18.0578 17.0863 17.8268 16.4504C17.2561 14.8572 16.665 13.2127 15.7173 11.7358C15.6646 11.6506 15.6367 11.5523 15.6367 11.452C15.6367 11.3517 15.6646 11.2534 15.7173 11.1683C15.75 11.1039 15.7982 11.0489 15.8576 11.0083C15.917 10.9677 15.9855 10.9427 16.057 10.9358H16.0875C16.3429 10.9392 16.594 11.0028 16.8205 11.1216C17.047 11.2403 17.2428 11.4109 17.3919 11.6195C19.3189 14.086 20.6765 16.9531 21.3664 20.0129C21.3945 20.1077 21.3964 20.2084 21.3719 20.3042C21.3474 20.4 21.2973 20.4872 21.2271 20.5565L21.2203 20.5428ZM40.2433 15.582C41.9656 15.4008 42.9167 15.3017 43.2496 14.7718C43.5825 14.2418 43.2768 13.4213 42.6892 11.7734C42.5125 11.2811 42.3495 10.7853 42.1796 10.293C41.8399 9.29813 41.5002 8.27246 41.0892 7.2844C40.6781 6.29635 40.2161 5.31855 39.7304 4.28605C39.5334 3.87579 39.3296 3.45527 39.1224 3.01423C39.5478 3.04959 39.9521 3.21637 40.2798 3.49175C40.6076 3.76714 40.8427 4.13768 40.9533 4.55272C41.2047 5.27411 41.4696 5.99549 41.738 6.71346C42.5533 8.92205 43.3991 11.2093 43.8169 13.5854C44.0208 14.7341 43.5928 15.5957 42.5159 16.2248C40.8745 17.1568 39.1209 17.8727 37.2982 18.3547C37.6786 16.5872 38.5483 15.7769 40.2603 15.5957L40.2433 15.582ZM50.1998 31.2371C50.0979 30.8097 50.0028 30.3789 49.9077 29.9481C49.6431 28.5469 49.2496 27.1734 48.7323 25.8455C48.6611 25.7186 48.6185 25.5775 48.6075 25.4322C48.5964 25.2869 48.6172 25.1409 48.6684 25.0045C48.7196 24.8682 48.8 24.7449 48.9038 24.6433C49.0075 24.5416 49.1323 24.4642 49.2691 24.4164C49.4237 24.3317 49.5959 24.2849 49.7718 24.2797C49.8517 24.2793 49.9311 24.2932 50.0062 24.3207C50.1494 24.3867 50.2778 24.4814 50.3835 24.599C50.4892 24.7165 50.57 24.8545 50.6211 25.0045C52.1327 28.4028 52.6388 31.2097 52.2108 33.8423C51.81 36.3073 50.2542 38.1808 47.8152 39.162C47.8714 39.0698 47.9412 38.9868 48.0224 38.9159C50.3357 37.0833 51.0287 34.6286 50.2168 31.2507L50.1998 31.2371Z" fill="#168430"/>
</svg>
