<svg width="1202" height="506" viewBox="0 0 1202 506" fill="none" xmlns="http://www.w3.org/2000/svg">
<path d="M40 117.941L87.7442 102.378C94.223 100.267 100.994 99.191 107.809 99.191H150.857C162.84 99.191 172.554 108.905 172.554 120.888V120.888C172.554 125.612 171.012 130.206 168.163 133.974L120.032 197.626L92.762 228.118C58.7843 266.109 40 315.29 40 366.259V391.695C40 394.401 40.3835 397.094 41.1392 399.693V399.693C46.9421 419.65 71.4 426.978 87.221 413.5L146.749 362.788C152.583 357.817 157.665 352.027 161.837 345.597L208.068 274.329L250.306 200.549C261.711 180.627 277.048 163.233 295.385 149.424L425.735 51.2602C453.985 29.9857 494.776 42.6584 505.997 76.1958V76.1958C510.873 90.7668 509.026 106.75 500.956 119.826L462.671 181.859L377.758 288.958C357.53 314.47 342.476 343.686 333.441 374.966L325.554 402.271C324.268 406.725 323.615 411.337 323.615 415.973V415.973C323.615 448.646 354.78 472.309 386.252 463.533L405.064 458.287C435.743 449.732 452.104 416.341 440.065 386.855V386.855C434.103 372.253 434.92 355.759 442.296 341.818L453.683 320.294C459.621 309.07 467.636 299.076 477.302 290.841L482.718 286.227C491.884 278.419 502.855 273.024 514.635 270.531L533.383 266.565C555.501 261.886 577.907 273.163 587.327 293.715V293.715C590.224 300.034 591.723 306.904 591.723 313.855V381.733C591.723 390.994 593.637 400.156 597.344 408.643V408.643C608.432 434.03 633.958 450.017 661.639 448.911L760.094 444.976C803.22 443.253 842.723 420.375 865.68 383.826V383.826C887.879 348.483 925.606 325.85 967.237 322.899L1012.28 319.706C1042.11 317.591 1071.2 309.411 1097.76 295.667L1160.6 263.151C1194.41 245.661 1226.1 224.368 1255.07 199.687L1276 181.859" stroke="#D6F470" stroke-width="80"/>
</svg>
