<svg width="62" height="63" viewBox="0 0 62 63" fill="none" xmlns="http://www.w3.org/2000/svg">
<path fill-rule="evenodd" clip-rule="evenodd" d="M60.5111 22.6609H60.4474C59.5391 22.7591 59.1073 22.6843 58.501 21.8304C56.8495 19.5075 54.3298 18.5811 51.685 18.1343C50.6233 17.9542 49.1912 18.008 48.231 18.546C46.5653 19.4817 47.9951 20.5532 48.5448 21.6901C48.9812 22.586 49.2526 23.5428 49.6584 24.4528C49.925 25.0586 48.986 25.4844 48.7146 24.8785C47.8464 22.9229 47.1953 21.2315 45.7773 19.5706C44.5977 18.1671 43.1561 17.1962 41.5306 16.3237C37.3641 14.0826 33.0631 12.2463 28.453 11.1117C26.1711 10.5966 23.8219 10.4387 21.4907 10.6438C20.8051 10.7649 20.1282 10.9298 19.4641 11.1374C18.8742 11.2942 16.1398 12.3211 16.128 11.4369C16.1162 10.5526 19.1951 10.1035 19.8486 9.92569C21.0991 9.59351 23.9349 8.98998 22.3471 7.301C20.1082 4.90789 17.697 2.74635 14.3255 2.0469C13.1765 1.81297 12.1196 1.57904 11.1735 0.615248C10.0316 -0.533351 8.74341 0.00702481 8.75049 1.5767C8.75049 2.80249 8.27863 3.65167 7.60152 4.53827C5.42152 7.42965 5.20446 10.6719 6.01606 14.0405C6.44073 15.809 7.19572 16.1459 8.82599 15.3482C9.97497 14.7797 11.0532 14.0686 12.1809 13.451C12.4499 13.3036 12.8486 13.0557 13.0822 13.3691C13.3912 13.7785 12.9029 13.9493 12.6504 14.106C9.56916 15.9962 7.43164 18.7846 5.53241 21.7228C4.24895 23.7182 3.11177 25.7932 2.67766 28.212C1.75989 33.3585 1.7882 38.3927 3.9564 43.2491C4.32917 44.0819 4.3386 44.5755 3.55767 45.1931C2.27658 46.213 1.4343 47.6329 0.547208 48.9897C0.176798 49.5559 -0.285628 50.2226 0.233417 50.8612C0.835038 51.6051 1.62304 51.2355 2.35679 50.9664C3.50812 50.5477 4.44712 49.7968 5.42387 49.109C6.2048 48.564 6.90788 48.3722 7.67465 49.2073C9.98677 51.715 13.0232 53.1841 16.0101 54.6719C20.1082 56.7071 24.3667 58.3189 29.0806 57.9469C30.062 57.8697 30.4961 58.2557 30.8618 59.0183C31.3121 60.0299 31.821 61.0148 32.3859 61.9682C32.6231 62.3847 33.0009 62.7048 33.4528 62.8722C33.9047 63.0395 34.4017 63.0433 34.8561 62.8829C35.9461 62.525 36.1231 61.608 35.9013 60.5787C35.7196 59.7459 35.6465 58.878 35.3634 58.0826C34.9599 56.9597 35.2619 56.3024 36.3873 55.9445C36.8764 55.7821 37.3541 55.5875 37.817 55.362C43.2977 52.7584 47.358 48.7815 49.899 42.9637C50.5824 40.9426 50.8878 38.8148 50.8003 36.685C50.6847 34.479 50.4393 32.2801 50.2576 30.0765C50.2293 29.7536 50.1798 29.3747 50.6186 29.3021C50.6752 29.3021 50.8545 29.7279 50.8899 29.9688C51.048 30.9771 51.0834 32.0111 51.3264 32.9936C51.7015 34.5071 52.5202 34.9516 54.0065 34.3808C56.8118 33.3047 60.2728 30.9046 60.1195 27.5336C60.0581 26.2143 59.7019 25.5312 60.8957 24.6235C62.257 23.6176 62.6015 22.4199 60.5111 22.6609ZM9.46064 13.3691C7.83745 14.1856 7.71476 14.1247 7.36559 12.3165C6.91968 9.99352 7.07303 7.78991 8.61837 5.80618C10.5058 3.385 12.7731 2.73467 16.0808 4.13591C17.4964 4.80729 19.1267 6.03075 20.6107 7.44369C21.5544 8.34199 21.427 8.70691 20.1648 9.19115C20.0053 9.25502 19.8402 9.30435 19.6717 9.33852C15.9959 10.0029 12.7448 11.7199 9.46064 13.3691ZM5.39556 47.1042C4.51319 47.8692 3.82427 48.8938 2.58328 49.1699C2.34735 49.2213 2.28366 49.1044 2.27894 48.8728C2.27894 48.4657 4.14278 46.2013 4.69014 46.0165C4.86763 45.9896 5.04821 45.9896 5.2257 46.0165C5.34868 46.2135 5.44843 46.4238 5.52297 46.6434C5.53843 46.7248 5.535 46.8086 5.51292 46.8884C5.49085 46.9683 5.4507 47.0421 5.39556 47.1042ZM33.9785 61.1237C33.901 61.1248 33.8242 61.1086 33.754 61.0762C33.6837 61.0438 33.6217 60.996 33.5727 60.9366C33.1787 60.0944 32.4685 59.0651 32.334 58.1505C32.209 57.3223 32.7092 57.0978 33.1763 57.3434C33.3616 57.4455 33.5176 57.5928 33.6293 57.7715C34.1955 58.6417 34.0846 59.7763 34.2262 60.7588C34.2427 60.9553 34.1696 61.1237 33.9785 61.1237ZM49.2384 40.6992C48.8043 44.2082 46.8791 47.1159 44.3405 49.4482C40.0938 53.3408 35.1675 55.9304 29.2717 56.5246C26.3461 56.8194 23.5881 56.2346 20.9599 55.2263C17.2015 53.7877 13.4903 52.1431 10.4232 49.4506C5.6197 45.2398 3.51757 39.8407 3.66857 33.555C3.7134 31.6836 3.72283 29.7958 4.223 27.9758C6.79463 18.6864 14.4057 11.8346 24.7654 11.7059C26.4147 11.6836 28.0565 11.9293 29.6256 12.4334C30.4324 12.6954 31.2283 12.9746 32.0132 13.2709C35.4577 14.5832 38.6947 16.2254 41.9553 18.0267C44.5646 19.4677 46.4238 21.8795 47.4548 24.6119C49.3941 29.777 49.9014 35.2183 49.2266 40.6969L49.2384 40.6992ZM54.0231 32.7316C53.3153 32.8509 53.1053 32.4579 52.9968 31.9222C52.8104 31.0052 52.6452 30.0858 52.4919 29.1641C52.0365 26.4552 51.3382 23.8422 49.6277 21.5988C49.2738 21.131 48.684 20.5812 48.9199 20.0268C49.229 19.325 50.0995 19.4139 50.7578 19.4537C51.5217 19.5337 52.2808 19.6532 53.0322 19.8116C56.3352 20.8105 57.8027 23.344 58.6426 26.3383C59.3338 28.8156 56.7362 32.2684 54.0113 32.7292L54.0231 32.7316Z" fill="#168430"/>
<path fill-rule="evenodd" clip-rule="evenodd" d="M38.3858 19.2901C33.1694 14.6933 27.1862 12.3283 20.1225 14.1974C16.9068 15.0466 14.4106 17.1075 11.8838 19.2269C6.22151 23.9687 5.39812 30.3199 6.69337 36.6594C7.80696 42.1287 10.6051 47.2588 16.0787 50.1338C17.5178 50.8894 18.9358 51.7854 20.4788 52.2392C26.9975 54.1644 33.1907 53.8486 38.6996 49.2963C42.0829 46.5032 43.5433 42.5474 44.8739 39.9695C47.1105 34.8464 46.1904 30.9702 44.8291 27.1548C43.6282 23.8026 40.9409 21.5405 38.3858 19.2901ZM44.0151 38.7063C43.09 41.3275 41.8157 43.8144 40.2261 46.1008C37.2557 50.2555 32.7919 51.8766 27.8846 51.8789C20.2853 51.8789 14.3045 48.8168 10.631 41.9252C9.34051 39.5087 8.06177 37.1507 7.78573 34.3341C7.02132 26.57 10.381 20.2679 17.3385 16.7005C19.3911 15.6478 21.4154 14.9109 23.7629 14.7799C26.1258 14.6639 28.4834 15.0973 30.6473 16.0455C35.9133 18.345 40.2355 21.8937 42.9983 26.846C45.0532 30.5234 45.9143 34.6663 44.0151 38.6993V38.7063Z" fill="#168430"/>
<path fill-rule="evenodd" clip-rule="evenodd" d="M39.7872 39.8083C40.3983 41.2585 42.222 40.3696 41.5472 38.9546C40.8725 37.5395 39.2328 38.4961 39.7872 39.8083Z" fill="#168430"/>
<path fill-rule="evenodd" clip-rule="evenodd" d="M35.8802 36.8091C34.8279 36.3132 33.7096 35.6886 32.6054 35.2839C31.4258 34.8464 28.9415 34.6359 28.5593 33.23C28.3351 32.3995 28.9698 32.0252 29.3543 31.3585C29.8427 30.521 30.2981 29.6578 30.751 28.8087C31.6688 27.122 32.5819 25.4331 33.5067 23.7511C33.8795 23.075 34.2971 22.42 34.2617 21.613C34.2357 21.0983 34.1767 20.5439 33.6223 20.3147C33.0112 20.062 32.6786 20.5486 32.3931 20.958C31.1097 22.7756 30.1353 24.7617 29.1656 26.7548C28.5286 28.0624 27.9741 29.4309 27.3135 30.7175C26.9644 31.4006 26.6223 31.7772 25.8649 31.9059C25.2444 32.0112 24.6853 31.9808 24.1521 32.3738C23.8214 32.6109 23.5599 32.9306 23.3941 33.3004C23.2284 33.6702 23.1643 34.0768 23.2084 34.4791C23.2862 35.4757 24.1285 36.1003 25.0628 36.2757C26.1693 36.4863 27.1649 35.6979 28.2006 35.9927C30.291 36.5892 32.1477 38.0255 34.198 38.7858C34.9459 39.0642 36.1184 39.5882 36.7932 39.0197C36.9273 38.9018 37.0329 38.7555 37.1023 38.5917C37.4609 37.8103 36.5313 37.1179 35.8802 36.8091ZM25.419 34.8558C24.8693 34.7599 24.7112 34.4043 24.8976 33.9505C25.1807 33.2229 25.8248 32.982 26.5491 33.0615C27.1342 33.127 27.3702 33.5808 27.3489 34.154C26.9526 35.0686 26.1929 34.9914 25.419 34.8558Z" fill="#168430"/>
<path fill-rule="evenodd" clip-rule="evenodd" d="M22.116 45.4105C21.3658 45.1907 20.7453 45.3685 20.4174 46.0912C20.0517 46.8958 20.7807 48.1284 21.7669 48.5027C22.5478 48.7997 23.0716 48.5027 23.442 47.8501C23.7369 46.9847 23.0149 45.6842 22.116 45.4105Z" fill="#168430"/>
<path fill-rule="evenodd" clip-rule="evenodd" d="M12.509 28.238C11.4921 27.8989 10.6711 28.2006 10.244 29.2017C9.92082 29.9525 10.2912 30.5092 11.0627 30.7454C12.0442 31.0471 13.5447 30.4577 13.6579 29.7022C13.7783 28.8883 13.2002 28.5164 12.509 28.238Z" fill="#168430"/>
<path fill-rule="evenodd" clip-rule="evenodd" d="M29.9985 17.2148C29.3993 17.037 28.3258 17.32 27.9058 17.7808C27.8118 17.8792 27.7402 17.9965 27.6959 18.1246C27.4599 18.8263 28.3588 19.4859 29.01 19.7269C29.9042 20.0543 30.586 19.6871 30.8267 18.8521C31.0178 18.1831 30.8361 17.4651 29.9985 17.2148Z" fill="#168430"/>
<path fill-rule="evenodd" clip-rule="evenodd" d="M38.7467 27.0729C38.0908 26.9747 37.5458 27.1642 37.4231 27.8752C37.3939 27.9992 37.3919 28.1279 37.4175 28.2527C37.443 28.3775 37.4954 28.4953 37.5712 28.5981C37.6469 28.7009 37.7441 28.7863 37.8562 28.8485C37.9683 28.9106 38.0926 28.948 38.2206 28.9581C38.4728 29.0119 38.7361 28.9695 38.9582 28.8395C39.1803 28.7095 39.3448 28.5013 39.4191 28.2565C39.6102 27.7021 39.3106 27.2905 38.7467 27.0729Z" fill="#168430"/>
<path fill-rule="evenodd" clip-rule="evenodd" d="M33.0891 46.7349C32.4616 46.3513 31.8175 46.3887 31.2913 46.9828C31.0814 47.5769 31.3692 47.9488 31.8552 48.2131C32.4144 48.5149 32.9995 48.6388 33.4147 48.0284C33.7427 47.5348 33.5586 47.0226 33.0891 46.7349Z" fill="#168430"/>
<path fill-rule="evenodd" clip-rule="evenodd" d="M14.3611 38.3605C14.2611 38.3338 14.1568 38.3272 14.0543 38.341C13.9517 38.3547 13.853 38.3886 13.7638 38.4407C13.6746 38.4927 13.5968 38.5619 13.5349 38.6441C13.4729 38.7263 13.4282 38.8199 13.4032 38.9195C13.2003 39.5183 13.5943 39.8832 14.0921 40.0142C14.4932 40.1218 14.9061 39.951 15.1255 39.3125C15.1139 39.0947 15.034 38.8859 14.8969 38.7152C14.7599 38.5446 14.5726 38.4206 14.3611 38.3605Z" fill="#168430"/>
<path fill-rule="evenodd" clip-rule="evenodd" d="M18.8508 20.1436C18.4474 19.9705 18.0274 19.9097 17.7042 20.4641C17.6334 20.9318 17.6877 21.3996 18.2728 21.6335C18.7282 21.823 19.1434 21.7271 19.3817 21.3131C19.7214 20.7354 19.3699 20.3682 18.8508 20.1436Z" fill="#168430"/>
</svg>
