<svg width="72" height="74" viewBox="0 0 72 74" fill="none" xmlns="http://www.w3.org/2000/svg">
<path d="M15.9725 29.0007C15.434 29.1026 14.8534 29.2952 14.6586 29.971C14.5485 30.3039 14.5627 30.6648 14.6986 30.9883C14.8345 31.3117 15.0832 31.5763 15.3996 31.7341C16.0718 32.1116 16.7899 32.4363 17.4812 32.7459L18.2222 33.0857C18.6041 33.2669 19.0319 33.4368 19.4291 33.5954C20.6 33.9985 21.6909 34.6003 22.6528 35.3736C22.2383 36.6612 21.6293 37.8793 20.8462 38.9867C20.4268 39.6139 20.0442 40.2643 19.7003 40.9349C19.5361 41.2709 19.3642 41.6069 19.1923 41.9429C18.4781 43.3474 17.7371 44.7971 17.4468 46.3979C17.2635 47.4097 17.4774 48.2252 18.0503 48.6934C18.6232 49.1615 19.4711 49.2182 20.4451 48.8557C22.5287 48.1169 24.4795 47.0539 26.224 45.707C28.4393 43.9401 30.6584 42.109 32.7171 40.395C34.1723 39.1868 34.4702 39.2095 35.8758 40.6064C36.3685 41.0934 36.8574 41.588 37.3463 42.0788C38.8091 43.5475 40.3217 45.0652 41.8724 46.4923C42.9543 47.4781 44.143 48.3429 45.4168 49.0709C45.841 49.3315 46.3271 49.4774 46.8262 49.4938C47.1465 49.4942 47.4617 49.415 47.7429 49.2635C48.4151 48.8859 48.8162 48.0893 48.8391 47.07C48.8159 46.2637 48.6797 45.4645 48.4342 44.6952L48.4075 44.6046L47.9033 42.698C47.3228 40.4742 46.7155 38.1675 45.9936 35.9664C45.3977 34.173 45.7988 32.946 47.338 31.8965C48.2585 31.266 49.1828 30.6052 50.0728 29.9672L51.4363 28.9969C52.6929 28.1097 53.9877 27.1922 54.8739 25.8218L54.9044 25.7765C55.2864 25.1573 55.7447 24.4513 55.1679 23.6622C54.6791 22.9864 53.8617 23.0581 53.3193 23.0997C51.5586 23.2469 49.9697 23.3715 48.354 23.447C47.5252 23.4848 46.6811 23.4659 45.8637 23.447C44.4995 23.382 43.1321 23.4338 41.7769 23.6018C40.0428 23.8623 40.0199 23.8019 39.4088 22.2464C38.7264 20.4997 38.0503 18.7491 37.3807 16.9948C36.907 15.764 36.4322 14.5307 35.956 13.2949C35.8872 13.125 35.8261 12.9513 35.7612 12.7776C35.5531 12.1623 35.2884 11.5671 34.9706 10.9994C34.8227 10.6982 34.5921 10.4442 34.305 10.2666C34.0179 10.089 33.686 9.99489 33.3473 9.99512C32.7056 10.0366 32.148 10.4935 31.8195 11.2561C31.5496 11.9265 31.3387 12.6188 31.1893 13.3251C31.1396 13.5327 31.09 13.7404 31.0365 13.9442L30.3719 16.4964C29.6462 19.2903 28.89 22.1822 28.2063 25.0403C27.8702 26.4409 27.1521 27.0412 25.5594 27.2602C23.2677 27.5698 20.976 28.0153 18.7531 28.4646C17.7944 28.6496 16.8815 28.8308 15.9725 29.0007ZM31.4872 28.71C31.682 28.306 31.5903 27.7812 31.2122 27.113C31.1511 27.0073 31.0862 26.9053 31.0251 26.8072C30.7653 26.3956 30.5553 26.0709 30.7004 25.5801C31.0671 24.3217 31.4312 23.072 31.7928 21.8311C32.2893 20.1209 32.7858 18.4068 33.29 16.7003C33.3541 16.6508 33.4248 16.6101 33.5001 16.5795L33.6261 16.5191C34.1303 16.7607 34.2831 17.2477 34.4435 17.7574C34.4817 17.8858 34.5237 18.0142 34.5695 18.135C35.1272 19.6451 35.6695 21.1893 36.2119 22.7184C36.5633 23.7126 36.9172 24.7042 37.2737 25.6934C37.564 26.5013 37.8428 26.9015 38.2248 27.079C38.6067 27.2564 39.065 27.1998 39.7984 26.928C41.5553 26.2673 43.8929 25.5839 46.4061 26.1502C47.0683 26.2579 47.746 26.2283 48.396 26.0634C48.9987 25.9119 49.6259 25.8811 50.2408 25.9728C50.2408 26.6222 49.813 26.8374 49.3471 27.0639L49.2172 27.1318C48.2312 27.6642 47.2932 28.2794 46.4137 28.9705C45.9019 29.348 45.371 29.7445 44.8286 30.1031C43.0335 31.2773 42.4644 32.863 43.0335 35.0943C43.53 37.0462 43.9502 39.0547 44.3588 40.999C44.5345 41.841 44.7102 42.6867 44.8936 43.5248L44.9394 43.706C44.9984 43.8644 45.0247 44.0328 45.0169 44.2014C45.009 44.37 44.9671 44.5353 44.8936 44.6876C44.6535 44.6956 44.4156 44.6404 44.2042 44.5276C43.9928 44.4148 43.8155 44.2486 43.6904 44.0458C42.8616 43.0601 41.9562 42.1399 40.9824 41.2935C39.8366 40.2288 38.6105 39.1302 37.7244 37.7786C37.3504 37.2614 36.8968 36.8053 36.38 36.427C35.5893 35.7889 34.9477 35.4642 34.3404 35.4642C33.6338 35.4642 32.9768 35.906 32.1976 36.8045C31.1828 37.9603 30.0284 38.9886 28.7601 39.8664C27.3792 40.797 26.0624 41.8174 24.8184 42.9207C24.0201 43.6456 23.0462 44.4309 21.8354 44.6461C21.3885 44.1855 21.5833 43.8117 21.8048 43.3776L21.9232 43.1397C22.7083 41.5349 23.6363 40.0023 24.6962 38.5601C24.9101 38.253 25.1201 37.9472 25.3264 37.6427C25.7537 37.0979 26.3062 36.6617 26.9382 36.3703L27.217 36.2156C27.874 35.838 28.2292 35.3283 28.2216 34.7733C28.1902 34.4633 28.0757 34.1671 27.8896 33.9155C27.7036 33.6639 27.4529 33.4661 27.1636 33.3424C26.7257 33.1287 26.2661 32.9616 25.7924 32.8441C25.5556 32.7761 25.3188 32.7082 25.0896 32.6251C24.7917 32.5232 24.4861 32.4401 24.1844 32.3571C23.3288 32.123 22.5153 31.9002 21.8927 31.2508C22.2326 30.6279 22.7941 30.5788 23.3899 30.5297C23.5695 30.5109 23.7451 30.4958 23.9132 30.4656C25.059 30.2504 26.2507 30.088 27.3927 29.9143C28.2712 29.7898 29.1803 29.6576 30.0664 29.5066C30.8226 29.3745 31.281 29.114 31.4872 28.71Z" fill="#168430"/>
<path d="M38.793 59.1466C38.7837 58.2969 38.5648 57.4623 38.1552 56.7152C38.0182 56.4008 37.784 56.1373 37.4864 55.9623C37.1887 55.7874 36.8427 55.71 36.4978 55.7411C35.627 55.8166 35.3024 56.4358 35.1038 57.0285C34.7792 57.9913 34.4584 58.9578 34.1376 59.9205C33.1409 62.9107 32.1136 65.999 30.9946 69.0005C30.3492 70.7296 30.3606 72.0397 31.0328 72.8967C31.6018 73.6291 32.6177 73.9991 34.0574 73.9991C34.3591 73.9991 34.6837 73.9803 35.0236 73.9501L35.2299 73.9312C35.3732 73.9238 35.516 73.9086 35.6576 73.8859C37.4678 73.5763 38.1018 72.9458 38.3729 71.1864C38.8027 68.743 38.9436 66.2584 38.793 63.7828V62.435C38.8007 61.3325 38.8007 60.2377 38.793 59.1466ZM35.6118 69.1741C35.4972 69.6615 35.332 70.136 35.1191 70.5899C35.0317 70.7388 34.8954 70.8536 34.7328 70.9154C34.5703 70.9772 34.3913 70.9823 34.2255 70.9297C34.1502 70.9238 34.077 70.9019 34.0111 70.8654C33.9452 70.8289 33.888 70.7787 33.8436 70.7183C33.7986 70.6385 33.77 70.5508 33.7595 70.46C33.749 70.3693 33.7568 70.2774 33.7825 70.1897C33.9832 69.1865 34.2382 68.1947 34.5463 67.2184C34.8021 66.4634 35.1077 65.7083 35.4934 64.7569C35.6041 64.4775 35.7225 64.1868 35.8524 63.8696C35.9975 66.1122 35.9631 67.6262 35.6118 69.1741Z" fill="#168430"/>
<path d="M11.8248 8.8667L12.3748 9.46322C14.4564 11.7285 16.6106 14.0693 18.5203 16.5422C18.898 17.057 19.3758 17.4922 19.9259 17.822C20.2367 17.9919 20.5868 18.079 20.9419 18.075C21.4061 18.0721 21.8615 17.9498 22.2634 17.7201C22.5092 17.6042 22.7191 17.4255 22.8716 17.2025C23.024 16.9794 23.1134 16.7202 23.1304 16.4516C23.0807 15.8302 22.8558 15.2351 22.4811 14.7337L22.4391 14.6696C21.1895 12.5446 20.0734 10.3456 19.097 8.08519C18.6274 7.04798 18.0956 6.0394 17.5043 5.06483C16.58 3.55466 15.755 2.79957 14.8307 2.66743C13.9064 2.53529 12.898 2.99589 11.5421 4.1776L11.4505 4.25311C11.397 4.2929 11.346 4.33577 11.2977 4.38148C10.2359 5.42728 10.0984 6.39379 10.847 7.61703C11.1311 8.06399 11.4585 8.48253 11.8248 8.8667ZM14.4029 6.22389C15.3807 6.79021 15.6977 7.73407 16.03 8.70813C16.0385 8.73888 16.0487 8.76913 16.0606 8.79874C14.6015 7.80958 14.506 7.63591 14.4029 6.23522V6.22389Z" fill="#168430"/>
<path d="M49.1983 13.5481C49.1983 14.76 49.9622 15.836 50.9934 16.0512C51.1367 16.0804 51.2826 16.0956 51.4289 16.0965C52.3379 16.0965 52.8955 15.4547 53.2469 14.9374C53.8377 14.0766 54.4335 13.2183 55.0344 12.3626C56.4858 10.2861 57.9869 8.13785 59.339 5.94432C60.4275 4.17741 60.7369 2.92397 60.313 1.99521C59.889 1.06645 58.6247 0.424624 56.1765 0.0131006C54.4806 -0.130366 53.7167 0.926761 53.14 2.09337C51.9063 4.57761 51.0622 7.2393 50.241 9.81415C49.9545 10.724 49.6566 11.6603 49.3472 12.574C49.2453 12.8887 49.195 13.2176 49.1983 13.5481ZM53.3577 8.9911C53.8484 7.0843 54.6274 5.26163 55.6685 3.58467C55.8442 3.29774 56.2261 2.86356 56.7494 3.14672C56.8411 3.18934 56.9226 3.25077 56.9885 3.32693C57.0543 3.4031 57.103 3.49224 57.1313 3.58844C57.1575 3.70161 57.1602 3.81886 57.1392 3.93309C57.1182 4.04731 57.0739 4.15612 57.0091 4.25292C56.2452 5.49504 55.4164 6.74094 54.6219 7.9453L53.7855 9.2214L53.3577 8.9911Z" fill="#168430"/>
<path d="M59.0525 39.3794H59.0334C58.7928 39.4134 58.5483 39.4398 58.3001 39.4662C57.731 39.5304 57.1542 39.5946 56.5698 39.7154C56.2237 39.7679 55.9056 39.9344 55.6671 40.188C55.4286 40.4415 55.2837 40.7672 55.2559 41.1123C55.2314 41.3991 55.2902 41.6869 55.4255 41.9417C55.5609 42.1966 55.7671 42.4079 56.0198 42.5508C56.4935 42.8528 56.9327 43.1133 57.3681 43.3436L59.0792 44.261C60.8438 45.2087 62.6734 46.1903 64.4953 47.1115C65.6963 47.7327 66.9469 48.2555 68.2345 48.6745C68.5683 48.7858 68.9174 48.8456 69.2696 48.852C70.1863 48.852 70.8929 48.3536 71.5307 47.3041C71.8145 46.7773 71.9739 46.1939 71.9971 45.5976C72.0202 45.0013 71.9065 44.4075 71.6644 43.8609C71.4447 43.3185 71.0954 42.8367 70.6465 42.4567C70.1975 42.0767 69.6622 41.8098 69.0862 41.6786C67.1383 41.2256 65.1255 40.6782 63.105 40.059C61.7939 39.6748 60.4412 39.4467 59.0754 39.3794H59.0525ZM63.8192 43.3625C65.5112 43.506 67.0276 43.74 68.3797 44.5291C68.4667 44.5757 68.5434 44.6392 68.605 44.7157C68.6667 44.7923 68.7122 44.8803 68.7387 44.9746C68.7517 45.0354 68.7513 45.0982 68.7375 45.1588C68.7236 45.2195 68.6967 45.2764 68.6585 45.3257C68.5718 45.4048 68.469 45.4646 68.357 45.501C68.245 45.5375 68.1264 45.5498 68.0092 45.5371C66.4038 45.3017 64.9268 44.535 63.8192 43.3625Z" fill="#168430"/>
<path d="M2.25301 48.7612C2.85741 49.2788 3.63879 49.5488 4.43774 49.5163H4.5447C5.55173 49.4108 6.50919 49.0304 7.31 48.4177C9.04786 47.0698 10.927 45.6541 13.2378 43.9664C14.0669 43.3231 14.7842 42.5503 15.3615 41.6785C15.5325 41.4456 15.6299 41.1679 15.6415 40.8803C15.653 40.5927 15.5782 40.3082 15.4264 40.0626C15.2603 39.7633 14.9985 39.5269 14.682 39.3903C14.3655 39.2536 14.0121 39.2246 13.6771 39.3076C13.4639 39.3391 13.2533 39.3858 13.0469 39.4472C9.48201 40.5421 5.92989 41.6408 2.39051 42.7432C1.98616 42.8701 1.59484 43.0344 1.22175 43.234C0.0529927 43.8532 -0.225833 44.4912 0.167573 45.6692C0.560944 46.8702 1.2827 47.9404 2.25301 48.7612ZM3.50581 45.722C3.48926 45.5544 3.53357 45.3863 3.63084 45.248C3.7281 45.1097 3.87195 45.01 4.0367 44.9669C5.56315 44.2905 7.19655 43.8805 8.86452 43.755L8.2916 44.193C7.2718 44.9707 6.21763 45.7749 5.16345 46.5375C4.92955 46.639 4.66648 46.6538 4.42247 46.579C3.84191 46.4318 3.54017 46.1449 3.4867 45.722H3.50581Z" fill="#168430"/>
</svg>
