<svg width="85" height="79" viewBox="0 0 85 79" fill="none" xmlns="http://www.w3.org/2000/svg">
<path d="M64.3756 9.81665C63.231 10.7773 62.1096 11.8686 62.1003 13.6803C62.0864 16.3735 61.6707 19.7428 58.5386 21.9626C58.327 22.1223 58.1339 22.3053 57.9628 22.5082C57.8389 22.6486 57.7072 22.7817 57.5681 22.9069C54.104 25.9079 51.2993 28.5031 48.7453 31.0493C47.5287 32.2711 46.2053 33.416 44.9236 34.5259C43.4214 35.827 41.8681 37.1724 40.4704 38.6484C39.8714 39.285 39.2213 39.8959 38.5921 40.4858C38.3042 40.754 38.0186 41.0221 37.7353 41.2949C37.5761 41.4761 37.353 41.5881 37.1131 41.6074C37.0351 41.6009 36.9591 41.5789 36.8897 41.5424C36.8203 41.506 36.7589 41.4559 36.7091 41.3952C36.1031 40.7306 35.3276 40.3272 34.58 39.9378C34.0968 39.7014 33.6313 39.4302 33.1869 39.1264C31.2134 37.6947 28.9613 37.0488 27.2176 36.6455C23.6351 35.8177 20.4844 35.7897 17.5705 36.5592C10.4124 38.4549 4.92836 42.8851 1.26921 49.7241C0.479854 51.2038 0.0532284 52.8513 0.0247223 54.5298C0.00846974 55.1547 0.0247223 55.7912 0.0247223 56.4068C0.0247223 57.1693 0.0363309 57.9574 0.00614752 58.7385C-0.0635064 60.457 0.470507 61.961 1.01149 63.2038C2.23047 65.9462 3.79078 68.5223 5.65508 70.8705C6.69019 72.2639 8.00777 73.421 9.52087 74.2655C11.304 75.2355 13.3867 76.3314 15.5575 77.1078C16.1594 77.3162 16.7735 77.4867 17.3964 77.6185C18.5954 77.88 19.8193 78.009 21.0463 78.0032C23.6792 78.0032 26.4793 77.3993 29.7344 76.1565L29.8203 76.1239C30.5793 75.8662 31.308 75.526 31.9935 75.1096C35.2092 72.9737 37.6262 70.9568 39.5951 68.7649C41.4649 66.6973 42.5321 64.0234 42.6018 61.2311C42.6622 59.7458 42.6576 58.4331 42.5902 57.2113C42.3975 53.8069 41.7404 51.1045 40.5215 48.7051C40.2243 48.1245 39.9666 47.509 39.7158 46.9144C39.6021 46.6392 39.4837 46.3664 39.3676 46.0936C39.075 45.4267 39.1795 44.9394 39.7089 44.5104C40.0479 44.2375 40.3776 43.9414 40.698 43.6546C40.9835 43.3981 41.2784 43.1323 41.5779 42.8852C42.6723 41.982 43.7697 41.0843 44.8702 40.192C46.932 38.5085 49.068 36.769 51.1391 35.0132C54.5869 32.0683 58.0464 29.037 61.3921 26.0897L62.6227 25.0078C63.6914 24.0327 64.9886 23.3452 66.3933 23.0095C68.1091 22.6155 69.7761 22.1585 71.3503 21.6501L71.7125 21.5359C72.7527 21.2094 73.8323 20.8713 74.5892 20.0203C75.4924 19.0106 76.4722 18.0406 77.4218 17.101C78.8729 15.6669 80.3728 14.184 81.6336 12.5145C82.2233 11.731 82.8548 10.9569 83.4655 10.2084C83.8811 9.69773 84.3083 9.17076 84.7215 8.64613C85.0466 8.23574 85.0884 7.81603 84.84 7.4686C84.6977 7.26462 84.4897 7.11628 84.251 7.04872C84.0124 6.98115 83.7578 6.99851 83.5305 7.09786C83.1627 7.24662 82.8064 7.42277 82.4648 7.62483C82.3115 7.70877 82.1583 7.79505 82.0004 7.87433L81.4455 8.17279C81.0262 8.41404 80.5927 8.62973 80.1476 8.81867C79.9758 8.88629 79.8063 8.97023 79.6438 9.05184C79.2423 9.28109 78.7981 9.42477 78.3389 9.47389C78.5084 7.57353 77.25 6.88567 75.8314 6.44265C75.9745 5.74761 76.2394 5.08364 76.6138 4.48167L76.7137 4.29979C77.1837 3.45863 77.5472 2.56173 77.7956 1.62997C77.8862 1.27788 78.0789 0.543386 77.4381 0.144661C76.9017 -0.193439 76.5093 0.144661 76.182 0.436127C76.1239 0.487424 76.0636 0.538722 76.0055 0.585357C74.4964 1.79785 72.8781 3.09662 71.2458 4.38374C70.5052 4.969 69.7576 5.5496 69.0099 6.12786C67.4822 7.31471 65.8895 8.54586 64.3756 9.81665ZM65.6944 12.4282C65.6201 13.8482 65.5505 15.1913 65.1813 16.5204C64.9259 17.453 64.7169 17.6186 63.4214 17.8658C63.3666 17.7731 63.3333 17.6692 63.324 17.5618C63.3148 17.4544 63.3298 17.3463 63.368 17.2455C63.3796 17.1942 63.3889 17.1429 63.3982 17.0916C63.4469 16.7978 63.5003 16.5064 63.5537 16.2126C63.696 15.5067 63.8006 14.7938 63.8672 14.0767C63.9647 12.7943 64.5637 11.8919 65.7641 11.2483C65.7362 11.6424 65.7153 12.0365 65.6944 12.4282ZM74.9677 17.0613C72.6459 19.7241 69.7274 20.5776 67.1363 21.0252C67.993 19.4607 70.5005 18.1945 74.9677 17.0613ZM74.8516 13.5637L74.8748 13.5474C76.1239 12.6147 77.5379 11.9665 79.0378 11.2786C79.6461 10.9988 80.2753 10.7097 80.9231 10.3879C80.3403 11.738 79.6066 12.5727 78.6292 13.0041C77.7114 13.3795 76.7649 13.6797 75.7989 13.9018C75.4181 13.9998 75.0234 14.1024 74.638 14.2119C74.4476 13.8552 74.6357 13.7153 74.8516 13.5544V13.5637ZM74.2595 5.27679C74.1481 5.47965 74.0436 5.67318 73.9507 5.87604C73.6721 6.48695 73.3656 7.09786 73.0708 7.69012L72.8665 8.09817C72.7318 8.36865 72.5925 8.63913 72.4555 8.90961C72.2233 9.37595 71.9772 9.8423 71.759 10.3086C71.411 11.0397 70.8707 11.6614 70.1964 12.1064C69.948 11.5398 70.0919 11.1434 70.2335 10.761L70.2916 10.5978C70.5888 9.72804 70.9115 8.80468 71.2992 7.93961C71.4025 7.67265 71.4629 7.39087 71.478 7.10486C71.5221 6.68748 71.5639 6.29108 71.8913 6.01594C72.077 5.85738 72.2628 5.6965 72.4509 5.53094C73.2052 4.82992 74.03 4.20946 74.912 3.67955C74.7763 4.23914 74.5563 4.77461 74.2595 5.26746V5.27679ZM73.4585 11.2786C73.8834 10.789 74.3222 10.2807 74.7726 9.80033L74.9096 9.6511C75.2509 9.27802 75.6062 8.89095 76.1495 8.88862C76.2888 9.18242 76.1332 9.32932 75.9521 9.4972L75.8778 9.57182C74.4762 10.9518 73.1764 12.4325 71.9888 14.0021C70.4495 16.0657 66.7439 19.1948 63.9786 20.7781C64.039 20.0669 64.4639 19.7591 64.8748 19.4607L65.0165 19.3581C67.8328 17.2595 70.2939 14.7389 72.1258 12.7873C72.5902 12.2789 73.0267 11.766 73.4585 11.2693V11.2786ZM68.4109 10.9522C68.0267 12.0979 67.7119 13.2659 67.4683 14.4498C67.2918 13.1114 67.6354 11.8079 67.9698 10.5395C68.0232 10.3413 68.0766 10.1408 68.1277 9.94023C68.2855 9.313 68.4806 8.75571 69.1725 8.34533C68.9403 9.24538 68.6686 10.1128 68.4109 10.9522ZM35.1465 62.3807C35.0235 62.6022 34.8865 62.8214 34.7542 63.0336C34.5438 63.3544 34.3516 63.6868 34.1783 64.0292C33.2868 65.8666 31.838 67.3473 29.746 68.5574C26.8577 70.2293 24.2898 70.9661 21.6755 70.8891C21.369 70.8891 21.0625 70.8752 20.7468 70.8705C19.7917 70.8757 18.8375 70.8142 17.8909 70.6863C13.9718 70.052 11.1577 67.6341 9.27244 63.2901C8.15565 60.7065 7.76559 57.7825 8.086 54.3526C8.24852 52.5921 9.0658 50.827 10.5123 49.1062C12.6158 46.6042 15.3695 44.9091 18.9311 43.9391C19.8858 43.6764 20.8714 43.5446 21.8612 43.5474C23.5181 43.5814 25.161 43.8603 26.737 44.3751C27.7586 44.6852 28.4876 45.3941 29.1261 46.1146L29.2561 46.2615C29.681 46.7488 30.1198 47.2501 30.8257 47.3621C30.2429 48.1432 29.4721 48.7168 28.7361 49.2717C28.2723 49.6052 27.8259 49.9624 27.3987 50.342C26.1798 49.1178 25.9336 48.943 24.3455 48.7564C22.887 48.5588 21.4053 48.6172 19.9666 48.929C15.6063 49.9316 14.6265 53.3126 14.5847 55.9754C14.5875 57.7814 14.9837 59.5649 15.7456 61.2008C16.1114 62.1238 16.8258 62.8639 17.7331 63.2597C23.0105 65.5075 26.124 65.0365 30.0688 61.3944C31.9587 59.6502 32.3 57.6636 31.1763 54.9658C30.9928 54.5274 30.7723 54.1147 30.5378 53.6787C30.4379 53.4922 30.3358 53.3056 30.2383 53.1121C30.5726 52.597 30.991 52.1422 31.4758 51.7667C31.6615 51.6058 31.8542 51.4379 32.033 51.2654C32.4138 50.8946 32.7992 50.9086 33.245 51.3027L33.4261 51.4566C33.5598 51.5655 33.6876 51.6815 33.8092 51.804C36.2517 54.3572 36.874 59.3028 35.1465 62.3807ZM29.3421 59.7598C27.7563 62.1708 24.2968 63.5465 21.4781 62.8937C20.7816 62.7351 20.099 62.5462 19.428 62.362L19.096 62.2711C18.6804 62.1604 18.2978 61.95 17.9811 61.658C17.6644 61.366 17.4231 61.001 17.278 60.5946C16.4352 58.4774 16.1333 56.5444 16.3493 54.6813C16.5373 53.1144 17.278 51.9439 18.5712 51.2024C19.7043 50.5472 20.7398 50.2301 21.766 50.2301C22.0697 50.2295 22.3728 50.2568 22.6715 50.3117C22.9791 50.3609 23.2891 50.3928 23.6002 50.4073C23.7976 50.4189 23.995 50.4329 24.19 50.4539C24.796 50.5239 25.4809 50.6008 26.0962 51.2817C25.7853 51.7789 25.3928 52.2196 24.9353 52.5851C24.8145 52.6947 24.7031 52.802 24.5777 52.9116C24.3316 53.1447 24.0298 53.1447 23.7094 53.1447C23.6026 53.1447 23.4958 53.1447 23.3866 53.1447C22.9115 53.1811 22.4539 53.3407 22.0586 53.608C21.6632 53.8752 21.3437 54.2408 21.1313 54.6692C20.9188 55.0976 20.8207 55.574 20.8465 56.0518C20.8723 56.5297 21.0211 56.9927 21.2784 57.3955C21.73 58.1073 22.3296 58.7127 23.036 59.1699C23.2919 59.3509 23.5841 59.4735 23.8921 59.5291C24.2002 59.5847 24.5166 59.5719 24.8192 59.4917C25.1258 59.4055 25.4103 59.2538 25.6532 59.0469C25.896 58.84 26.0915 58.5829 26.2262 58.2932C26.3819 57.9364 26.4882 57.5598 26.542 57.174L26.5675 57.0154C26.5798 56.7063 26.6895 56.409 26.8809 56.1666C27.0675 55.9663 27.2375 55.751 27.3894 55.5231C27.7702 54.9845 28.1277 54.4738 28.7268 54.5391C29.4233 54.616 29.5649 55.2549 29.7135 55.9381C29.757 56.1673 29.8159 56.3932 29.89 56.6143C30.2568 57.6403 30.085 58.6499 29.349 59.7598H29.3421ZM26.874 53.6694C26.6217 53.929 26.3694 54.1886 26.1171 54.4482C25.33 55.2643 24.515 56.1083 23.656 56.8428C23.4888 56.6959 23.4702 56.5957 23.4702 56.556C23.4704 56.5356 23.4755 56.5156 23.4852 56.4977C23.495 56.4798 23.5089 56.4646 23.5259 56.4534C24.6868 55.5767 25.6481 54.5088 26.6023 53.3989C26.8248 53.1036 27.127 52.8786 27.473 52.7507C27.3552 53.1018 27.1516 53.4176 26.8809 53.6694H26.874ZM27.935 52.3333C28.757 51.3167 29.8273 50.5658 30.8628 49.836L31.1739 49.6168C30.2772 50.7193 29.1806 51.641 27.942 52.3333H27.935ZM31.1275 47.0892C30.9905 44.8112 29.2863 43.7735 27.6262 43.0577C24.9093 41.8637 21.8741 41.611 18.9984 42.3395C15.3691 43.1897 12.0628 45.0776 9.47908 47.7748C7.40803 49.9503 6.39805 52.4032 6.48396 55.0637C6.50486 55.7633 6.49557 56.4628 6.48396 57.1623C6.48396 57.4794 6.48396 57.7988 6.48396 58.1183C6.48776 61.0204 7.33856 63.8577 8.93114 66.2793C11.0858 69.6673 14.1691 71.6679 18.0953 72.2252C23.2868 72.9667 28.1788 71.6679 32.639 68.3709C33.5833 67.6927 34.3633 66.8097 34.9213 65.7873C35.1999 65.2674 35.5111 64.7544 35.8129 64.2577C36.001 63.9476 36.189 63.6375 36.3701 63.325C38.1997 60.1725 38.2276 56.8592 36.4676 53.203C35.9814 52.1551 35.3566 51.1778 34.6102 50.2977C34.2085 49.8313 34.2364 49.3533 34.6984 48.9103C34.8215 48.7914 34.9306 48.6655 35.0606 48.5396C35.2391 48.3381 35.4315 48.1496 35.6364 47.9753C36.6186 47.1778 37.1479 46.7651 37.4939 46.8397C37.8398 46.9144 38.1092 47.474 38.613 48.4906L38.6432 48.5536C40.222 51.7434 40.9487 55.1687 40.8651 59.03V59.1676C40.821 61.2032 40.7792 63.1315 39.9364 64.9736C39.8876 65.0762 39.8412 65.1811 39.7948 65.286C39.5092 65.9226 39.2166 66.5801 38.7291 67.0861C35.85 70.0777 32.6924 73.1486 28.5759 74.916C26.8345 75.6645 25.0142 76.0003 23.4679 76.2311C18.1394 77.0216 13.7303 74.8484 9.7693 72.3768C8.68966 71.7052 7.84453 70.7609 7.16192 69.9261C5.03626 67.319 3.36927 64.3666 2.23275 61.1962C2.03691 60.6691 1.92486 60.1144 1.90073 59.5523C1.84501 57.4724 1.83804 55.7749 1.87984 54.2103C1.93357 52.9444 2.28867 51.7099 2.91536 50.6101C4.57776 47.5649 6.3284 45.2822 8.42266 43.4284C10.4589 41.626 12.8039 40.1827 15.8037 38.8816C17.689 38.0631 19.6068 37.7763 21.7057 37.7763C22.7853 37.7763 23.9114 37.8533 25.1071 37.9722C28.0813 38.266 30.9464 39.4016 33.6258 41.3439C34.0901 41.675 34.5545 41.9991 35.0188 42.3139L35.5645 42.6893C34.9399 43.9904 32.7179 46.1985 31.1345 47.0892H31.1275ZM61.5825 23.772C60.9928 24.2827 60.3775 24.784 59.7808 25.269C59.1841 25.754 58.6199 26.2017 58.0673 26.6913L57.2826 27.3605C55.6921 28.7246 54.046 30.1353 52.4741 31.5786C49.8296 34.0083 46.9854 36.291 44.2341 38.4992C43.4702 39.1147 42.704 39.728 41.9424 40.3459C41.3759 40.8122 40.814 41.2926 40.2731 41.7636L39.5928 42.3489L39.4767 42.1856C44.443 37.1538 49.7321 32.2921 54.847 27.5914C56.8762 25.726 58.9728 23.8 61.0206 21.8903C61.1099 21.7858 61.2231 21.7047 61.3505 21.6539C61.4779 21.6031 61.6157 21.5842 61.752 21.5988C62.5716 22.879 62.56 22.9256 61.5895 23.7627L61.5825 23.772Z" fill="#168430"/>
</svg>
