<svg width="465" height="189" viewBox="0 0 465 189" fill="none" xmlns="http://www.w3.org/2000/svg">
<path d="M-20 162.478L1.73218 132.377L27.3206 96.8003C38.6067 81.1086 57.8264 73.1903 76.8906 76.3778V76.3778C82.105 77.2496 87.1512 78.9309 91.8465 81.3607L98.6361 84.8743C133.278 102.802 175.204 98.8051 205.835 74.6561L246.167 42.8595C254.422 36.3516 263.595 31.1019 273.388 27.2814L288.26 21.4794C290.766 20.5017 293.432 20 296.122 20V20C311.329 20 321.789 35.2768 316.29 49.4547L308.173 70.3814C304.963 78.6582 298.884 85.5049 291.045 89.6721L265.634 103.181C253.918 109.409 249.18 123.756 254.883 135.736V135.736C260.45 147.431 274.079 152.872 286.17 148.226L300.409 142.754C306.987 140.226 312.809 136.056 317.319 130.642L323.364 123.386C331.181 114.002 342.228 107.887 354.33 106.244L382.878 102.368C395.271 100.686 406.52 109.789 407.459 122.26V122.26C407.784 126.566 409.384 130.677 412.055 134.069L419.921 144.056C426.335 152.199 434.648 158.647 444.132 162.832L445.077 163.249C453.67 167.041 462.959 169 472.352 169H478.726H496" stroke="#EAEAEA" stroke-width="40"/>
</svg>
