<svg width="508" height="500" viewBox="0 0 508 500" fill="none" xmlns="http://www.w3.org/2000/svg">
<path d="M37.3877 528.693L75.944 439.628L112.244 335.164L170.096 215.446L216.141 121.387C224.28 104.762 234.96 89.5067 247.798 76.1716L265.723 57.553C271.304 51.7549 278.048 47.2014 285.512 44.1907L292.664 41.3058C296.435 39.7849 300.515 39.1899 304.563 39.5708V39.5708C318.549 40.8869 328.821 53.2922 327.505 67.2788L324.932 94.6193C324.27 101.657 322.204 108.491 318.856 114.716L295.574 158.014C288.819 170.576 282.981 183.611 278.107 197.016L254.001 263.318L185.818 450.465C183.247 457.523 183.379 465.282 186.188 472.249V472.249C195.635 495.677 227.875 498.04 240.637 476.238L286.185 398.427L331.207 304.231L374.144 227.649C376.878 222.771 380.48 218.434 384.771 214.849L390.241 210.28C404.75 198.162 425.98 198.625 439.946 211.364V211.364C450.897 221.353 455 236.82 450.439 250.923L414.014 363.559L390.693 456.436C390.397 457.613 390.191 458.812 390.078 460.021V460.021C388.134 480.679 411.614 493.846 428.227 481.413L477.444 444.579C483.707 439.892 490.961 436.703 498.649 435.258L572.046 421.458C593.25 417.471 614.068 411.65 634.265 404.061L676.355 388.243" stroke="#D6F470" stroke-width="80"/>
</svg>
